<svg width="58" height="58" viewBox="0 0 58 58" fill="none" xmlns="http://www.w3.org/2000/svg">
<g id="book 1" clip-path="url(#clip0_14_491)">
<g id="Page-1">
<g id="026---Idea">
<path id="Shape" d="M8.60028 30.3301H5.82028C5.34193 30.3309 4.93117 30.6704 4.84028 31.1401L0.460279 53.6201C0.346631 54.2073 0.501777 54.8146 0.883166 55.2754C1.26456 55.7361 1.83215 56.002 2.43028 56.0001H24.0003C24.0003 57.1001 26.2403 58.0001 29.0003 58.0001C31.7603 58.0001 34.0003 57.1001 34.0003 56.0001H55.5703C56.1684 56.002 56.736 55.7361 57.1174 55.2754C57.4988 54.8146 57.6539 54.2073 57.5403 53.6201L53.1603 31.1401C53.0694 30.6704 52.6586 30.3309 52.1803 30.3301H8.60028Z" fill="#E64C3C"/>
<path id="Shape_2" d="M29 33.2398V51.9998C27.5369 51.3643 26.0122 50.8818 24.45 50.5598C18.5116 49.2688 12.3366 49.5829 6.55995 51.4698C6.22791 51.5711 5.86712 51.4944 5.60499 51.2668C5.34285 51.0392 5.21627 50.6928 5.26995 50.3498L8.59995 30.3298L8.87995 28.6398C8.95162 28.2109 9.29024 27.8763 9.71995 27.8098C10.4 27.7098 11.1 27.6098 11.8 27.5298C13.0219 29.9052 15.4687 31.3987 18.14 31.3998C18.32 31.3998 18.49 31.3898 18.66 31.3798C19.3258 31.3278 19.9817 31.1866 20.61 30.9598C20.612 30.981 20.6189 31.0015 20.63 31.0198C21.3782 33.1155 23.3647 34.5132 25.59 34.5098C26.843 34.5139 28.0549 34.0626 29 33.2398Z" fill="#F5EFCA"/>
<path id="Shape_3" d="M51.44 51.4701C45.6633 49.5831 39.4883 49.269 33.55 50.5601C31.9878 50.8821 30.463 51.3646 29 52.0001V33.2401C29.2103 33.0682 29.4044 32.8774 29.58 32.6701C30.5791 33.0675 31.6447 33.2711 32.72 33.2701H32.78C32.8319 33.9851 33.1045 34.6665 33.56 35.2201C34.5306 36.1796 35.7439 36.8571 37.07 37.1801C38.0322 37.4873 38.8906 38.0549 39.55 38.8201C40.1378 39.5483 41.1338 39.8044 42 39.4501C42.7625 39.1207 43.2573 38.3707 43.26 37.5401C43.2611 37.3228 43.2273 37.1067 43.16 36.9001C43.06 36.5901 42.95 36.2801 42.82 35.9801C42.5692 35.3605 42.2399 34.7757 41.84 34.2401C43.8233 33.1675 45.2161 31.2565 45.63 29.0401C45.66 29.0001 45.7 28.9601 45.73 28.9201C46.0722 28.5175 46.352 28.0658 46.56 27.5801C47.14 27.6501 47.71 27.7201 48.28 27.8101C48.7097 27.8766 49.0483 28.2112 49.12 28.6401L49.4 30.3301L52.73 50.3501C52.7837 50.693 52.6571 51.0395 52.395 51.2671C52.1328 51.4947 51.772 51.5714 51.44 51.4701Z" fill="#F9EAB0"/>
<path id="Shape_4" d="M34 56.0001C34 57.1001 31.76 58.0001 29 58.0001C26.24 58.0001 24 57.1001 24 56.0001L24.45 50.5601C26.0122 50.882 27.537 51.3646 29 52.0001C30.463 51.3646 31.9878 50.882 33.55 50.5601L34 56.0001Z" fill="#C03A2B"/>
<path id="Shape_5" d="M47.0003 25.49C46.9994 26.2096 46.8496 26.9212 46.5603 27.58C46.3523 28.0658 46.0725 28.5175 45.7303 28.92C45.7003 28.96 45.6603 29 45.6303 29.04C45.2164 31.2565 43.8236 33.1674 41.8403 34.24C42.2402 34.7757 42.5695 35.3604 42.8203 35.98C42.9503 36.28 43.0603 36.59 43.1603 36.9C43.2276 37.1067 43.2614 37.3227 43.2603 37.54C43.2576 38.3706 42.7628 39.1207 42.0003 39.45C41.1341 39.8044 40.1381 39.5482 39.5503 38.82C38.8909 38.0549 38.0325 37.4872 37.0703 37.18C35.7442 36.8571 34.5309 36.1796 33.5603 35.22C33.1048 34.6664 32.8322 33.9851 32.7803 33.27H32.7203C31.6451 33.2711 30.5794 33.0674 29.5803 32.67C29.4047 32.8773 29.2106 33.0681 29.0003 33.24C28.0552 34.0629 26.8434 34.5142 25.5903 34.51C23.365 34.5135 21.3785 33.1157 20.6303 31.02C20.6192 31.0018 20.6124 30.9813 20.6103 30.96C19.9821 31.1868 19.3262 31.3281 18.6603 31.38C18.4903 31.39 18.3203 31.4 18.1403 31.4C15.4376 31.3982 12.9672 29.8714 11.7568 27.4549C10.5465 25.0383 10.8032 22.1456 12.4203 19.98C12.3 19.6535 12.2391 19.308 12.2403 18.96C12.2343 17.4822 13.2723 16.2056 14.7203 15.91C14.7257 15.9046 14.7327 15.9011 14.7403 15.9C14.7303 15.78 14.7203 15.66 14.7203 15.53C14.719 14.9754 14.8348 14.4268 15.0603 13.92C15.6984 12.4444 17.1526 11.4893 18.7603 11.49C19.3666 11.4872 19.9655 11.624 20.5103 11.89C21.5749 10.0976 23.5056 8.99928 25.5903 9.00004C27.0207 8.99485 28.4025 9.51837 29.4703 10.47C30.0833 9.48123 31.1983 8.91889 32.3579 9.01376C33.5174 9.10863 34.5262 9.84474 34.9703 10.92C35.2559 10.8881 35.543 10.8715 35.8303 10.87C39.7049 10.8765 42.9292 13.8488 43.2503 17.71H43.2803C44.1042 17.71 44.8942 18.038 45.4759 18.6215C46.0575 19.2051 46.383 19.9961 46.3803 20.82C46.3784 21.3588 46.2408 21.8884 45.9803 22.36C46.6439 23.2687 47.0012 24.3649 47.0003 25.49Z" fill="#FB7B76"/>
<path id="Shape_6" d="M29 3C28.4477 3 28 2.55228 28 2V1C28 0.447715 28.4477 0 29 0C29.5523 0 30 0.447715 30 1V2C30 2.55228 29.5523 3 29 3Z" fill="#F0C419"/>
<path id="Shape_7" d="M45.117 9.88292C44.7126 9.88283 44.3481 9.63919 44.1933 9.26557C44.0386 8.89196 44.1241 8.46191 44.41 8.17592L45.41 7.17592C45.6611 6.91596 46.0329 6.81171 46.3825 6.90322C46.7321 6.99474 47.0052 7.26778 47.0967 7.61741C47.1882 7.96704 47.084 8.33884 46.824 8.58992L45.824 9.58992C45.6365 9.77747 45.3822 9.88286 45.117 9.88292Z" fill="#F0C419"/>
<path id="Shape_8" d="M12.8833 9.88292C12.6181 9.88286 12.3638 9.77747 12.1763 9.58992L11.1763 8.58992C10.9163 8.33884 10.8121 7.96704 10.9036 7.61741C10.9951 7.26778 11.2681 6.99474 11.6178 6.90322C11.9674 6.81171 12.3392 6.91596 12.5903 7.17592L13.5903 8.17592C13.8762 8.46191 13.9617 8.89196 13.807 9.26557C13.6522 9.63919 13.2877 9.88283 12.8833 9.88292Z" fill="#F0C419"/>
<path id="Shape_9" d="M20.5805 5.6751C20.1761 5.67521 19.8114 5.43169 19.6565 5.0581L18.5085 2.2861C18.3626 1.95443 18.4075 1.56974 18.6259 1.28059C18.8443 0.991435 19.2021 0.843066 19.561 0.892772C19.92 0.942478 20.2239 1.18248 20.3555 1.5201L21.5045 4.2921C21.6065 4.53727 21.6068 4.81292 21.5053 5.05829C21.4038 5.30365 21.2089 5.49858 20.9635 5.6001C20.8419 5.64967 20.7119 5.67514 20.5805 5.6751Z" fill="#F0C419"/>
<path id="Shape_10" d="M37.4202 5.6751C37.2888 5.67482 37.1588 5.64901 37.0372 5.5991C36.7921 5.49758 36.5974 5.30281 36.4959 5.05769C36.3945 4.81256 36.3946 4.53716 36.4962 4.2921L37.6452 1.5201C37.7768 1.18248 38.0808 0.942478 38.4398 0.892772C38.7987 0.843066 39.1565 0.991435 39.3749 1.28059C39.5933 1.56974 39.6382 1.95443 39.4922 2.2861L38.3442 5.0581C38.1893 5.43169 37.8247 5.67521 37.4202 5.6751Z" fill="#F0C419"/>
<path id="Shape_11" d="M49.3253 17.5822C48.8471 17.5836 48.4348 17.2463 48.3415 16.7773C48.2482 16.3083 48.5 15.8389 48.9423 15.6572L51.7143 14.5092C52.0444 14.3725 52.4223 14.4223 52.7057 14.6399C52.9891 14.8575 53.135 15.2097 53.0882 15.5639C53.0415 15.9181 52.8094 16.2205 52.4793 16.3572L49.7083 17.5052C49.5869 17.5558 49.4568 17.5819 49.3253 17.5822Z" fill="#F0C419"/>
<path id="Shape_12" d="M8.67586 17.5822C8.54437 17.5819 8.41422 17.5558 8.29285 17.5052L5.52185 16.3572C5.19174 16.2205 4.95961 15.9181 4.9129 15.5639C4.86619 15.2097 5.01199 14.8575 5.2954 14.6399C5.5788 14.4223 5.95674 14.3725 6.28685 14.5092L9.05885 15.6572C9.50119 15.8389 9.75299 16.3083 9.65968 16.7773C9.56636 17.2463 9.15405 17.5836 8.67586 17.5822Z" fill="#F0C419"/>
<g id="Group">
<path id="Shape_13" d="M45.7321 28.9199C45.7021 28.9599 45.6621 28.9999 45.6321 29.0399C45.4559 30.0029 45.0887 30.921 44.5521 31.7399C44.0284 31.8885 43.4864 31.9625 42.9421 31.9599C41.951 31.957 40.9746 31.7206 40.0921 31.2699C39.6743 31.0463 39.282 30.7781 38.9221 30.4699C38.5232 30.6243 38.0998 30.7056 37.6721 30.7099C36.3512 30.7167 35.1412 29.9721 34.5521 28.7899C34.3913 28.4701 34.4133 28.0889 34.6099 27.7898C34.8064 27.4907 35.1476 27.3191 35.5049 27.3398C35.8622 27.3604 36.1813 27.5701 36.3421 27.8899C36.5396 28.269 36.8895 28.5459 37.3039 28.6509C37.7183 28.756 38.1578 28.6792 38.5121 28.4399C38.912 28.1669 39.1515 27.7141 39.1521 27.2299C39.1536 26.998 39.1023 26.7689 39.0021 26.5599C38.8007 26.0763 39.0066 25.5194 39.474 25.283C39.9414 25.0467 40.512 25.2111 40.7821 25.6599C41.0252 26.1475 41.1519 26.6849 41.1521 27.2299C41.144 27.9286 40.9243 28.6085 40.5221 29.1799C40.6821 29.2899 40.8421 29.3999 41.0021 29.4899C41.6021 29.7987 42.2672 29.9599 42.9421 29.9599C43.9679 29.9655 44.9603 29.5956 45.7321 28.9199Z" fill="#FF5364"/>
<path id="Shape_14" d="M33.5017 24.9938C34.7972 24.1013 35.6881 22.7335 35.9808 21.1878C36.0552 20.834 35.9328 20.4675 35.6607 20.2294C35.3885 19.9913 35.0091 19.9186 34.6682 20.0394C34.3274 20.1601 34.0783 20.4555 34.0167 20.8118C33.8207 21.8432 33.2256 22.7556 32.3608 23.3508C30.697 24.4714 28.4657 24.2171 27.0967 22.7508C26.7242 22.3422 26.0909 22.3128 25.6822 22.6853C25.2736 23.0579 25.2442 23.6912 25.6167 24.0998C26.4651 25.0365 27.5862 25.6829 28.8217 25.9478C28.2615 26.7353 27.3541 27.202 26.3877 27.1998C25.8355 27.1998 25.3877 27.6476 25.3877 28.1998C25.3877 28.7521 25.8355 29.1998 26.3877 29.1998C28.4579 29.2081 30.3154 27.9295 31.0468 25.9928C31.9291 25.8462 32.7677 25.5049 33.5017 24.9938Z" fill="#FF5364"/>
<path id="Shape_15" d="M42.8218 35.9797C42.0867 36.3549 41.297 36.6114 40.4818 36.7397C40.4289 36.7481 40.3753 36.7514 40.3218 36.7497C39.7951 36.7546 39.355 36.3501 39.3154 35.825C39.2758 35.2998 39.6503 34.8339 40.1718 34.7597C40.7516 34.672 41.3147 34.4967 41.8418 34.2397C42.2416 34.7754 42.571 35.3601 42.8218 35.9797Z" fill="#FF5364"/>
<path id="Shape_16" d="M20.5412 28.9997C20.4907 29.2803 20.464 29.5646 20.4612 29.8497C20.4592 30.2249 20.5097 30.5985 20.6112 30.9597C19.983 31.1865 19.3271 31.3277 18.6612 31.3797C18.5332 30.8898 18.4661 30.386 18.4612 29.8797C16.6998 29.6876 15.3645 28.2016 15.3612 26.4297C15.3579 25.8728 15.8043 25.4174 16.3612 25.4097C16.6252 25.4081 16.879 25.5116 17.0666 25.6973C17.2542 25.883 17.3602 26.1357 17.3612 26.3997V26.4297C17.3762 27.2199 18.0017 27.8629 18.7912 27.8997C18.9295 27.4486 19.1208 27.0156 19.3612 26.6097C19.4955 26.3804 19.7167 26.215 19.9746 26.151C20.2325 26.087 20.5053 26.1298 20.7312 26.2697C21.2014 26.5603 21.3526 27.1738 21.0712 27.6497C20.8173 28.0654 20.6379 28.5223 20.5412 28.9997Z" fill="#FF5364"/>
<path id="Shape_17" d="M35.4113 34.8499C34.8104 35.0421 34.1898 35.1662 33.5613 35.2199C33.1057 34.6662 32.8332 33.9849 32.7812 33.2699C32.878 33.2717 32.9748 33.2684 33.0713 33.2599C33.6651 33.2222 34.2525 33.1148 34.8213 32.9399C35.1661 32.8216 35.5481 32.9004 35.818 33.1455C36.0879 33.3906 36.203 33.7632 36.1184 34.1179C36.0337 34.4726 35.7628 34.753 35.4113 34.8499Z" fill="#FF5364"/>
<path id="Shape_18" d="M26.8012 17C26.8012 16.4477 26.3535 16 25.8012 16C23.2618 16.0028 21.2039 18.0606 21.2012 20.6C21.2012 21.1523 21.6489 21.6 22.2012 21.6C22.7535 21.6 23.2012 21.1523 23.2012 20.6C23.2012 19.9104 23.4751 19.2491 23.9627 18.7615C24.4503 18.2739 25.1116 18 25.8012 18C26.3535 18 26.8012 17.5523 26.8012 17Z" fill="#FF5364"/>
<path id="Shape_19" d="M13.7492 22.6228C13.5676 22.6231 13.3894 22.5732 13.2342 22.4788C12.4096 21.9813 11.7857 21.2102 11.4712 20.2998C11.3191 19.8671 11.2416 19.4116 11.2422 18.9528C11.2422 16.6865 13.0759 14.8475 15.3422 14.8409C16.6408 14.8359 17.8634 15.4526 18.6312 16.4999C18.8443 16.7867 18.8882 17.1655 18.7463 17.4935C18.6044 17.8215 18.2983 18.0489 17.9433 18.09C17.5883 18.1311 17.2383 17.9797 17.0252 17.6929C16.6332 17.1581 16.0092 16.8429 15.3462 16.8448C14.3997 16.8502 13.5722 17.4843 13.3209 18.3968C13.0696 19.3094 13.4558 20.2777 14.2662 20.7668C14.6515 20.9985 14.8348 21.4589 14.7142 21.8921C14.5936 22.3252 14.1988 22.6246 13.7492 22.6239V22.6228Z" fill="#FF5364"/>
<path id="Shape_20" d="M35.209 13.1108C34.6567 13.1108 34.209 12.6631 34.209 12.1108C34.209 10.9491 33.2672 10.0073 32.1055 10.0073C30.9437 10.0073 30.002 10.9491 30.002 12.1108C30.002 12.6631 29.5542 13.1108 29.002 13.1108C28.4497 13.1108 28.002 12.6631 28.002 12.1108C28.002 9.84452 29.8392 8.00732 32.1055 8.00732C34.3718 8.00732 36.209 9.84452 36.209 12.1108C36.209 12.376 36.1036 12.6304 35.9161 12.8179C35.7285 13.0055 35.4742 13.1108 35.209 13.1108Z" fill="#FF5364"/>
<path id="Shape_21" d="M44.589 24.641C44.1247 24.6364 43.7246 24.3129 43.623 23.8598C43.5215 23.4067 43.7451 22.9433 44.163 22.741C44.5615 22.5537 44.8923 22.2477 45.11 21.865C45.6188 20.998 45.4418 19.8921 44.6879 19.2272C43.934 18.5623 42.8146 18.5249 42.018 19.138C41.5762 19.4693 40.9494 19.3798 40.618 18.938C40.2867 18.4961 40.3762 17.8693 40.818 17.538C41.5178 17.0082 42.3703 16.7191 43.248 16.714C45.18 16.7009 46.8605 18.0349 47.286 19.9195C47.7115 21.8041 46.7672 23.7307 45.017 24.549C44.883 24.6113 44.7368 24.6427 44.589 24.641Z" fill="#FF5364"/>
</g>
</g>
</g>
</g>
<defs>
<clipPath id="clip0_14_491">
<rect width="58" height="58" fill="white"/>
</clipPath>
</defs>
</svg>
