<svg width="50" height="50" viewBox="0 0 50 50" fill="none" xmlns="http://www.w3.org/2000/svg">
<g id="languages" clip-path="url(#clip0_14_719)">
<g id="Group">
<path id="Vector" d="M16.2846 0.900391C24.7679 0.900391 31.8367 3.79092 31.8367 12.6255C31.8367 16.3517 30.5786 19.0197 28.4877 20.8601C28.1081 21.1942 27.946 21.7109 28.0776 22.1992C28.4477 23.5719 28.9815 25.0147 29.7141 26.3616C30.2759 27.3948 29.5174 28.6412 28.3417 28.6085C25.497 28.5293 22.3913 27.2044 20.0638 24.674C19.7868 24.3729 19.3904 24.2112 18.9826 24.2445C18.1046 24.3163 17.203 24.3505 16.2846 24.3505C7.80127 24.3505 0.732422 21.46 0.732422 12.6254C0.732422 3.79092 7.80127 0.900391 16.2846 0.900391Z" fill="#B0DA87"/>
<g id="Group_2">
<g id="Group_3">
<path id="Vector_2" d="M5.98438 12.8848C7.54415 12.8848 8.80859 11.8778 8.80859 10.6357C8.80859 9.39364 7.54415 8.38672 5.98438 8.38672C4.4246 8.38672 3.16016 9.39364 3.16016 10.6357C3.16016 11.8778 4.4246 12.8848 5.98438 12.8848Z" fill="white"/>
<path id="Vector_3" d="M21.2929 12.8848C22.8526 12.8848 24.117 11.8778 24.117 10.6357C24.117 9.39364 22.8526 8.38672 21.2929 8.38672C19.7332 8.38672 18.4688 9.39364 18.4688 10.6357C18.4688 11.8778 19.7332 12.8848 21.2929 12.8848Z" fill="white"/>
</g>
</g>
<path id="Vector_4" d="M33.7162 9.86719C42.1995 9.86719 49.2684 12.7577 49.2684 21.5923C49.2684 25.3185 48.0102 27.9865 45.9193 29.8269C45.5397 30.161 45.3776 30.6777 45.5093 31.166C45.8793 32.5387 46.4132 33.9814 47.1457 35.3284C47.7075 36.3616 46.949 37.608 45.7733 37.5753C42.9286 37.4961 39.823 36.1712 37.4954 33.6408C37.2185 33.3397 36.8221 33.178 36.4143 33.2114C35.5362 33.2832 34.6347 33.3174 33.7162 33.3174C25.2329 33.3174 18.1641 30.4269 18.1641 21.5923C18.1641 12.7577 25.2329 9.86719 33.7162 9.86719Z" fill="#8DAEE1"/>
<path id="Vector_5" d="M28.8325 21.4813C26.1812 19.7684 22.709 18.7782 18.4904 18.5273C18.2769 19.4587 18.1641 20.4782 18.1641 21.5926C18.1641 30.4271 25.2329 33.3177 33.7162 33.3177C34.0687 33.3177 34.4178 33.3109 34.7648 33.3007C34.7654 33.2395 34.7672 33.179 34.7672 33.1177C34.7672 28.0136 32.715 23.9898 28.8325 21.4813Z" fill="#6A95D6"/>
<path id="Vector_6" d="M16.2846 21.3926C7.80127 21.3926 0.732422 24.2831 0.732422 33.1177C0.732422 36.8438 1.99063 39.5119 4.08145 41.3522C4.46104 41.6864 4.62314 42.2031 4.4915 42.6914C4.12148 44.0641 3.5876 45.5068 2.85508 46.8538C2.29326 47.887 3.05176 49.1334 4.22744 49.1007C7.07217 49.0215 10.1778 47.6966 12.5055 45.1662C12.7825 44.865 13.1788 44.7034 13.5866 44.7367C14.4646 44.8085 15.3662 44.8427 16.2847 44.8427C24.768 44.8427 31.8368 41.9522 31.8368 33.1176C31.8367 24.2831 24.7679 21.3926 16.2846 21.3926Z" fill="#FBF1CF"/>
<path id="Vector_7" d="M10.0373 22.0361C4.5958 23.304 0.732422 26.586 0.732422 33.1168C0.732422 36.843 1.99062 39.511 4.08144 41.3514C4.46103 41.6855 4.62314 42.2022 4.4915 42.6905C4.12148 44.0632 3.5876 45.506 2.85508 46.8529C2.29326 47.8861 3.05176 49.1325 4.22744 49.0998C7.07217 49.0206 10.1778 47.6957 12.5055 45.1653C12.7825 44.8642 13.1788 44.7025 13.5866 44.7358C14.4646 44.8076 15.3662 44.8418 16.2847 44.8418C17.2306 44.8418 18.1588 44.8056 19.0617 44.7295C8.72549 41.5599 7.05566 26.9044 10.0373 22.0361Z" fill="#FAE0BD"/>
<path id="Vector_8" d="M7.63096 6.11162C6.48584 6.11162 5.5542 7.04317 5.5542 8.18828C5.5542 8.59287 5.88203 8.9207 6.28662 8.9207C6.69121 8.9207 7.01904 8.59287 7.01904 8.18828C7.01904 7.85098 7.29355 7.57647 7.63096 7.57647C7.96826 7.57647 8.24277 7.85098 8.24277 8.18828C8.24277 8.59287 8.57061 8.9207 8.97519 8.9207C9.37978 8.9207 9.70762 8.59287 9.70762 8.18828C9.70752 7.04317 8.77598 6.11162 7.63096 6.11162ZM15.5459 9.20723C15.241 8.94141 14.7782 8.97315 14.5126 9.27832C14.292 9.53145 13.9735 9.67666 13.639 9.67666C13.3043 9.67666 12.9857 9.53145 12.7652 9.27832C12.4996 8.97324 12.0368 8.94151 11.7319 9.20723C11.427 9.47295 11.3951 9.93555 11.6608 10.2405C12.1596 10.8131 12.8807 11.1415 13.639 11.1415C14.3973 11.1415 15.1182 10.8132 15.617 10.2405C15.8828 9.93555 15.851 9.47295 15.5459 9.20723ZM21.7236 8.18818C21.7236 7.04307 20.792 6.11152 19.6469 6.11152C18.5018 6.11152 17.5702 7.04307 17.5702 8.18818C17.5702 8.59277 17.898 8.92061 18.3026 8.92061C18.7072 8.92061 19.0351 8.59277 19.0351 8.18818C19.0351 7.85088 19.3096 7.57637 19.6469 7.57637C19.9843 7.57637 20.2588 7.85088 20.2588 8.18818C20.2588 8.59277 20.5866 8.92061 20.9912 8.92061C21.3958 8.92061 21.7236 8.59277 21.7236 8.18818ZM16.2951 25.5136C15.8905 25.5136 15.5627 25.8415 15.5627 26.246V28.116H11.3879C10.9833 28.116 10.6555 28.4439 10.6555 28.8484C10.6555 29.253 10.9833 29.5809 11.3879 29.5809H18.3044C18.1447 31.3085 17.3093 33.2012 16.0521 34.8598C15.3518 34.2302 14.7823 33.5115 14.4211 32.8337C14.2309 32.4768 13.7874 32.3415 13.4303 32.5317C13.0733 32.722 12.9382 33.1656 13.1283 33.5227C13.5584 34.3296 14.2432 35.2071 15.106 35.9778C14.3517 36.7776 13.4981 37.4877 12.5813 38.0503C12.2366 38.2619 12.1286 38.7129 12.3401 39.0576C12.5521 39.403 13.0034 39.51 13.3475 39.2988C14.3874 38.6606 15.382 37.8291 16.2681 36.8705C17.1135 37.4222 18.0643 37.8439 19.0741 38.0277C19.4691 38.0999 19.8529 37.8387 19.9259 37.4383C19.9982 37.0402 19.7344 36.659 19.3364 36.5865C18.5971 36.4521 17.8775 36.1457 17.2183 35.7376C18.5676 33.9611 19.6104 31.7968 19.7737 29.581H21.2024C21.607 29.581 21.9349 29.2531 21.9349 28.8485C21.9349 28.444 21.607 28.1161 21.2024 28.1161H17.0277V26.2461C17.0275 25.8414 16.6997 25.5136 16.2951 25.5136ZM46.2156 30.9752C46.1573 30.7587 46.2289 30.5293 46.4025 30.3765C48.7896 28.2753 50 25.3197 50 21.5921C50 16.7123 47.9591 13.1988 43.9339 11.1488C43.5736 10.9655 43.1325 11.1087 42.9488 11.4691C42.7652 11.8295 42.9087 12.2706 43.2691 12.4542C46.7634 14.2338 48.5352 17.3082 48.5352 21.5921C48.5352 24.8804 47.492 27.4659 45.4348 29.2769C44.8395 29.8008 44.5968 30.5977 44.8014 31.3564C45.2252 32.9289 45.7972 34.3829 46.5015 35.678C46.7903 36.2096 46.4146 36.8539 45.793 36.843C42.9927 36.765 40.092 35.3825 38.0336 33.1448C37.5981 32.6713 36.9859 32.429 36.3539 32.4813C35.1918 32.5762 33.9024 32.6097 32.5592 32.5648C32.4678 29.7815 31.6797 27.4578 30.2064 25.6194L30.8668 23.8856H36.5721L37.4248 26.1453C37.5678 26.5242 37.9906 26.7146 38.3687 26.5719C38.7471 26.4291 38.9381 26.0065 38.7952 25.628C34.6093 14.5363 34.6545 14.6552 34.6453 14.6322C34.3842 13.9975 33.7238 14.019 33.7336 14.0222C33.313 14.0226 32.9518 14.288 32.8165 14.6508L29.0897 24.4359C28.6479 24.036 28.1647 23.6658 27.6395 23.3265C25.4231 21.8945 22.4984 21.0341 18.9221 20.7578C19.1183 17.3022 20.5547 14.6948 23.2017 13.0031C25.6974 11.4082 29.2347 10.5995 33.7154 10.5995C36.115 10.5995 38.2735 10.8369 40.1307 11.3052C40.5226 11.4043 40.921 11.1662 41.0198 10.774C41.1188 10.3818 40.8809 9.98369 40.4887 9.88486C37.8672 9.22393 34.8909 9.05068 32.1682 9.16807C30.6986 3.27695 25.2248 0.167969 16.2845 0.167969C7.15801 0.167871 0 3.49688 0 12.6254C0 17.0871 1.73896 20.6929 5.69619 22.8699C1.7749 25.0256 0 28.5889 0 33.1172C0 36.845 1.21035 39.8004 3.59746 41.9015C3.77109 42.0544 3.84277 42.2838 3.78437 42.5003C3.52246 43.4718 3.19639 44.404 2.81494 45.2711C2.65205 45.6414 2.82021 46.0735 3.19053 46.2364C3.56064 46.3995 3.99297 46.2313 4.15586 45.8608C4.5668 44.9265 4.91777 43.924 5.19873 42.8815C5.40332 42.1228 5.16055 41.326 4.56543 40.802C2.50801 38.9911 1.46484 36.4057 1.46484 33.1172C1.46484 24.8431 8.04512 22.1246 16.2846 22.1246C20.7936 22.1246 24.3465 22.943 26.8444 24.5569C29.6711 26.3832 31.1044 29.2633 31.1044 33.1172C31.1044 36.9711 29.6711 39.8512 26.8444 41.6774C23.2669 43.989 17.8398 44.3487 13.6464 44.0064C13.0145 43.9539 12.402 44.1964 11.9665 44.6699C9.9082 46.9075 7.00752 48.29 4.20713 48.3681C3.88682 48.3752 3.68643 48.2083 3.59717 48.1068C3.33027 47.803 2.86738 47.773 2.56357 48.04C2.25967 48.3069 2.22979 48.7698 2.49678 49.0736C2.93359 49.5709 3.56865 49.8504 4.24795 49.8322C7.48311 49.7421 10.6894 48.222 13.0445 45.6614C13.1724 45.5227 13.3475 45.4517 13.5271 45.4661C18.0808 45.8385 23.7729 45.4059 27.6395 42.9078C30.6794 40.9437 32.3258 37.9594 32.5436 34.0296C33.9315 34.0752 35.266 34.0398 36.4733 33.9411C36.6515 33.9268 36.8279 33.9977 36.9557 34.1364C39.3109 36.6971 42.5172 38.2172 45.7522 38.3072C47.5008 38.3526 48.6175 36.5033 47.7884 34.9783C47.1388 33.7839 46.6097 32.437 46.2156 30.9752ZM33.7324 16.3615L36.0191 22.4209H31.4246L33.7324 16.3615ZM16.2846 20.6597C12.7923 20.6597 9.81787 21.136 7.40107 22.0779C3.27803 20.2705 1.46484 17.0035 1.46484 12.6254C1.46484 4.35127 8.04482 1.63271 16.2846 1.63271C22.5727 1.63271 29.0002 3.23574 30.6791 9.26631C27.3114 9.57197 24.5394 10.4099 22.4129 11.7688C19.3416 13.7316 17.6787 16.7276 17.4591 20.6789C17.0741 20.6665 16.683 20.6597 16.2846 20.6597Z" fill="black"/>
</g>
</g>
<defs>
<clipPath id="clip0_14_719">
<rect width="50" height="50" fill="white"/>
</clipPath>
</defs>
</svg>
