<svg width="58" height="58" viewBox="0 0 58 58" fill="none" xmlns="http://www.w3.org/2000/svg">
<g id="skill">
<g id="Group">
<path id="Vector" d="M42.3664 24.0834C42.3664 24.344 42.3551 24.6045 42.3437 24.8764C42.1285 28.7959 40.316 32.2737 37.5406 34.6979C34.7992 37.0768 33.2586 40.5545 33.2586 44.1909V44.5194H28.2969V11.2147C28.2969 10.5463 28.8633 10.0139 29.5316 10.0705C35.1504 10.5577 39.8176 14.3526 41.5961 19.4955C42.0945 20.9342 42.3664 22.4748 42.3664 24.0834Z" fill="#FFA91E"/>
<g id="Group_2">
<path id="Vector_2" d="M38.8329 24.9901C38.3345 24.9901 37.9267 24.5823 37.9267 24.0839C37.9267 23.0077 37.7454 21.9542 37.4056 20.946C36.4427 18.1706 34.313 16.0069 31.5376 15.0214C31.0618 14.8514 30.8239 14.3303 30.9825 13.8546C31.1524 13.3788 31.6735 13.1296 32.1493 13.2995C35.4345 14.4776 37.9833 17.0378 39.1161 20.3456C39.5239 21.5464 39.7392 22.7925 39.7392 24.0725C39.7392 24.5823 39.3314 24.9901 38.8329 24.9901Z" fill="#F79303"/>
</g>
<path id="Vector_3" d="M20.8887 9.16455C18.6457 9.16455 16.6746 10.5806 15.927 12.631C15.8137 12.6196 15.7004 12.6196 15.5984 12.6196C12.1773 12.6196 9.39062 15.395 9.39062 18.8274C9.39062 19.4958 9.50391 20.1755 9.71914 20.8099C7.21563 21.9653 5.5957 24.4575 5.5957 27.2896C5.5957 30.1216 7.21563 32.6024 9.71914 33.7692C9.50391 34.4036 9.39062 35.0833 9.39062 35.7517C9.39062 39.1728 12.1773 41.9595 15.5984 41.9595C15.7117 41.9595 15.8137 41.9481 15.927 41.9481C16.6746 44.0099 18.6457 45.4259 20.8887 45.4259C23.8113 45.4259 26.1789 43.047 26.1789 40.1356V14.4548C26.1789 11.5321 23.8113 9.16455 20.8887 9.16455ZM24.3551 40.1356C24.3551 42.0501 22.8031 43.6021 20.8887 43.6021C19.2234 43.6021 17.7961 42.4126 17.4789 40.7813C17.4563 40.6454 17.275 39.5013 17.9547 38.8103C18.1246 38.6517 18.3285 38.5157 18.5664 38.4251C19.0309 38.2438 19.2688 37.7228 19.0988 37.2583C18.9176 36.7825 18.3852 36.556 17.9207 36.7259C17.4449 36.9071 17.0145 37.179 16.6746 37.5302C15.9383 38.2665 15.6664 39.2407 15.6211 40.1243C13.1742 40.1583 11.2031 38.1759 11.2031 35.7403C11.2031 35.0153 11.3844 34.3243 11.7129 33.6899C12.0414 33.1575 12.4605 32.6931 12.959 32.3192C13.5027 31.9114 14.1031 31.6282 14.7602 31.4583C15.2473 31.3337 15.5418 30.8353 15.4172 30.3595C15.2926 29.8724 14.7941 29.5778 14.3184 29.7024C13.4234 29.929 12.6078 30.3368 11.8715 30.8806C11.3844 31.2544 10.9539 31.6849 10.5914 32.1606C8.66562 31.3224 7.41953 29.4306 7.41953 27.2896C7.41953 24.922 8.9375 22.8716 11.1918 22.1919C11.2031 22.1806 11.2031 22.1806 11.2031 22.1806C11.5543 22.0786 12.268 21.9313 13.0836 22.1692C13.9219 22.4185 14.443 22.9282 14.6922 23.2228C14.8734 23.438 15.134 23.5399 15.3832 23.5399C15.5871 23.5399 15.791 23.472 15.9609 23.3247C16.3461 23.0075 16.3914 22.4298 16.0742 22.0446C15.4285 21.2743 14.5449 20.6966 13.582 20.4247C12.7777 20.1981 12.0641 20.1981 11.4637 20.2774C11.3051 19.813 11.2145 19.3259 11.2145 18.8274C11.2145 16.4032 13.1855 14.4435 15.5984 14.4435C15.8703 14.4435 16.1422 14.4661 16.4254 14.5228H16.4367C16.9012 14.6021 17.5922 14.8173 18.2492 15.3497C18.6344 15.6556 18.9516 16.0294 19.2008 16.4599C19.3707 16.7544 19.6766 16.913 19.9824 16.913C20.141 16.913 20.2996 16.879 20.4469 16.7884C20.8773 16.5392 21.0246 15.9728 20.7754 15.5423C20.4129 14.9192 19.9371 14.3755 19.382 13.9224C18.8949 13.5259 18.3285 13.2313 17.7508 13.0161C18.3059 11.804 19.518 10.9771 20.9 10.9771C22.8145 10.9771 24.3664 12.529 24.3664 14.4435V40.1356H24.3551Z" fill="#E27F23"/>
<path id="Vector_4" d="M24.3555 14.4548V40.1356C24.3555 42.0501 22.8035 43.6021 20.8891 43.6021C19.2238 43.6021 17.7965 42.4126 17.4793 40.7813C17.4566 40.6454 17.2754 39.5013 17.9551 38.8103C18.125 38.6517 18.3289 38.5157 18.5668 38.4251C19.0312 38.2438 19.2691 37.7228 19.0992 37.2583C18.918 36.7825 18.3855 36.556 17.9211 36.7259C17.4453 36.9071 17.0148 37.179 16.675 37.5302C15.9387 38.2665 15.6668 39.2407 15.6215 40.1243C13.1746 40.1583 11.2035 38.1759 11.2035 35.7403C11.2035 35.0153 11.3848 34.3243 11.7133 33.6899C12.0418 33.1575 12.4609 32.6931 12.9594 32.3192C13.5031 31.9114 14.1035 31.6282 14.7605 31.4583C15.2477 31.3337 15.5422 30.8353 15.4176 30.3595C15.293 29.8724 14.7945 29.5778 14.3188 29.7024C13.4238 29.929 12.6082 30.3368 11.8719 30.8806C11.3848 31.2544 10.9543 31.6849 10.5918 32.1606C8.66602 31.3224 7.41992 29.4306 7.41992 27.2896C7.41992 24.922 8.93789 22.8716 11.1922 22.1919C11.2035 22.1806 11.2035 22.1806 11.2035 22.1806C11.5547 22.0786 12.2684 21.9313 13.084 22.1692C13.9223 22.4185 14.4434 22.9282 14.6926 23.2228C14.8738 23.438 15.1344 23.5399 15.3836 23.5399C15.5875 23.5399 15.7914 23.472 15.9613 23.3247C16.3465 23.0075 16.3918 22.4298 16.0746 22.0446C15.4289 21.2743 14.5453 20.6966 13.5824 20.4247C12.7781 20.1981 12.0645 20.1981 11.4641 20.2774C11.3055 19.813 11.2148 19.3259 11.2148 18.8274C11.2148 16.4032 13.1859 14.4435 15.5988 14.4435C15.8707 14.4435 16.1426 14.4661 16.4258 14.5228H16.4371C16.9016 14.6021 17.5926 14.8173 18.2496 15.3497C18.6348 15.6556 18.952 16.0294 19.2012 16.4599C19.3711 16.7544 19.677 16.913 19.9828 16.913C20.1414 16.913 20.3 16.879 20.4473 16.7884C20.8777 16.5392 21.025 15.9728 20.7758 15.5423C20.4133 14.9192 19.9375 14.3755 19.3824 13.9224C18.8953 13.5259 18.3289 13.2313 17.7512 13.0161C18.3062 11.804 19.5184 10.9771 20.9004 10.9771C22.8035 10.9771 24.3555 12.5403 24.3555 14.4548Z" fill="#FECC86" fill-opacity="0.54"/>
<g id="Group_3">
<g id="Group_4">
<g id="Group_5">
<path id="Vector_5" d="M40.497 12.9253C40.2591 12.9253 40.0325 12.8347 39.8513 12.6647C39.5001 12.3136 39.5001 11.7358 39.8513 11.3847L44.0653 7.17061C44.4165 6.81943 44.9942 6.81943 45.3454 7.17061C45.6966 7.52178 45.6966 8.09951 45.3454 8.45068L41.1427 12.6534C40.9728 12.8347 40.7349 12.9253 40.497 12.9253Z" fill="#F79303"/>
</g>
</g>
<g id="Group_6">
<g id="Group_7">
<path id="Vector_6" d="M51.4965 25.126H45.5605C45.0621 25.126 44.6543 24.7182 44.6543 24.2197C44.6543 23.7213 45.0621 23.3135 45.5605 23.3135H51.4965C51.9949 23.3135 52.4027 23.7213 52.4027 24.2197C52.4027 24.7182 51.9949 25.126 51.4965 25.126Z" fill="#F79303"/>
</g>
</g>
<g id="Group_8">
<g id="Group_9">
<path id="Vector_7" d="M44.6997 41.5175C44.4618 41.5175 44.2353 41.4269 44.054 41.2569L39.8513 37.0542C39.5001 36.703 39.5001 36.1253 39.8513 35.7741C40.2024 35.4229 40.7802 35.4229 41.1313 35.7741L45.3341 39.9769C45.6853 40.328 45.6853 40.9058 45.3341 41.2569C45.1642 41.4269 44.9376 41.5175 44.6997 41.5175Z" fill="#F79303"/>
</g>
</g>
<g id="Group_10">
<g id="Group_11">
<path id="Vector_8" d="M28.3086 7.87305C27.8102 7.87305 27.4023 7.46523 27.4023 6.9668V1.01953C27.4023 0.521094 27.8102 0.113281 28.3086 0.113281C28.807 0.113281 29.2148 0.521094 29.2148 1.01953V6.95547C29.2148 7.46523 28.807 7.87305 28.3086 7.87305Z" fill="#F79303"/>
</g>
</g>
</g>
<path id="Vector_9" d="M36.7027 46.8419C36.7027 47.4876 36.4422 48.0653 36.023 48.4845C35.6039 48.9036 35.0262 49.1642 34.3805 49.1642H17.8414C16.9918 49.1642 16.2555 48.711 15.8477 48.0313C16.1988 48.2466 16.6066 48.3599 17.0484 48.3599H33.5875C34.2332 48.3599 34.8109 48.0993 35.2301 47.6802C35.6492 47.261 35.9098 46.6833 35.9098 46.0376C35.9098 45.6071 35.7852 45.188 35.5813 44.8481C36.2496 45.256 36.7027 45.9923 36.7027 46.8419Z" fill="#0082BD"/>
<path id="Vector_10" d="M36.7027 51.4978C36.7027 52.1435 36.4422 52.7212 36.023 53.1403C35.6039 53.5595 35.0262 53.82 34.3805 53.82H17.8414C16.9918 53.82 16.2555 53.3669 15.8477 52.6872C16.1988 52.9024 16.6066 53.0157 17.0371 53.0157H33.5762C34.2219 53.0157 34.7996 52.7552 35.2188 52.336C35.6379 51.9169 35.8984 51.3392 35.8984 50.6935C35.8984 50.2517 35.7738 49.8438 35.5699 49.4927C36.2496 49.9118 36.7027 50.6595 36.7027 51.4978Z" fill="#0082BD"/>
<path id="Vector_11" d="M35.8984 46.0375C35.8984 46.6832 35.6379 47.2723 35.2188 47.6801C34.7996 48.0992 34.2219 48.3598 33.5762 48.3598H17.0371C16.6066 48.3598 16.1875 48.2352 15.8363 48.0312C15.6324 47.6801 15.5078 47.2723 15.5078 46.8418C15.5078 46.1961 15.7684 45.607 16.1875 45.1992C16.6066 44.7801 17.1957 44.5195 17.8301 44.5195H34.3691C34.8109 44.5195 35.2188 44.6441 35.5586 44.848C35.7738 45.1879 35.8984 45.607 35.8984 46.0375Z" fill="#48BBED"/>
<path id="Vector_12" d="M35.8988 50.7045C35.8988 51.3502 35.6383 51.9279 35.2191 52.3471C34.8 52.7662 34.2223 53.0268 33.5766 53.0268H17.0375C16.607 53.0268 16.1992 52.9021 15.848 52.6982C15.6328 52.3584 15.5195 51.9393 15.5195 51.5088C15.5195 50.8631 15.7801 50.274 16.1992 49.8662C16.6184 49.4471 17.2074 49.1865 17.8418 49.1865H34.3809C34.8227 49.1865 35.2305 49.3111 35.5703 49.515C35.7742 49.8436 35.8988 50.2627 35.8988 50.7045Z" fill="#48BBED"/>
<path id="Vector_13" d="M32.4996 53.8311V54.9299C32.4996 56.5611 31.1742 57.8865 29.543 57.8865H22.6668C21.6359 57.8865 20.7184 57.3541 20.1973 56.5498C20.6617 56.867 21.2168 57.0482 21.8285 57.0482H28.7047C30.3359 57.0482 31.6613 55.7229 31.6613 54.0916V53.8311H32.4996Z" fill="#0082BD"/>
<path id="Vector_14" d="M31.6617 53.8312V54.0917C31.6617 55.7229 30.3363 57.0483 28.7051 57.0483H21.8289C21.2285 57.0483 20.6621 56.8671 20.1977 56.5499C19.8805 56.0854 19.6992 55.5304 19.6992 54.9187V53.8198H31.6617V53.8312Z" fill="#48BBED"/>
</g>
</g>
</svg>
