<svg width="58" height="58" viewBox="0 0 58 58" fill="none" xmlns="http://www.w3.org/2000/svg">
<g id="couple" clip-path="url(#clip0_14_738)">
<path id="Vector" d="M47.1485 6.37085C47.0681 6.37113 46.9889 6.35135 46.918 6.31331C46.8472 6.27526 46.787 6.22015 46.7429 6.15296C46.6987 6.08577 46.672 6.00863 46.6652 5.92852C46.6584 5.84841 46.6716 5.76787 46.7038 5.69418L47.3022 4.29832L43.8338 6.30415C43.733 6.36308 43.6142 6.38353 43.4995 6.36172C43.3848 6.33991 43.2819 6.27731 43.2097 6.18549C43.1376 6.09367 43.1012 5.97884 43.1071 5.86223C43.1131 5.74562 43.161 5.63511 43.2422 5.55112L44.5066 4.23162L40.9173 6.30415C40.815 6.36679 40.693 6.38911 40.5751 6.36677C40.4572 6.34443 40.3518 6.27903 40.2794 6.18328C40.2071 6.08754 40.1729 5.96831 40.1836 5.84878C40.1943 5.72925 40.2491 5.61798 40.3373 5.53662L42.2436 3.71445L37.9729 6.18042C37.8733 6.23787 37.7564 6.25792 37.6434 6.23698C37.5303 6.21604 37.4284 6.15548 37.356 6.06617C37.2835 5.97686 37.2453 5.86465 37.2482 5.7497C37.2511 5.63475 37.2948 5.52458 37.3716 5.43898L39.4267 3.14798L39.1706 3.29492C39.0601 3.3527 38.9316 3.36557 38.8119 3.33084C38.6921 3.2961 38.5905 3.21645 38.5281 3.10853C38.4657 3.0006 38.4474 2.87274 38.4771 2.75165C38.5067 2.63057 38.582 2.52563 38.6872 2.45875L41.5669 0.795118C41.6665 0.737668 41.7834 0.717612 41.8964 0.738552C42.0095 0.759492 42.1114 0.820055 42.1838 0.909367C42.2562 0.998678 42.2945 1.11089 42.2916 1.22584C42.2887 1.34079 42.245 1.45096 42.1682 1.53655L40.1169 3.82755L45.2335 0.870518C45.3359 0.807878 45.4579 0.785557 45.5758 0.807898C45.6937 0.830238 45.7991 0.895642 45.8714 0.991385C45.9437 1.08713 45.9779 1.20636 45.9672 1.32589C45.9565 1.44541 45.9017 1.55669 45.8135 1.63805L43.9072 3.46118L46.959 1.69992C47.0597 1.64242 47.1777 1.62302 47.2914 1.64526C47.4052 1.66751 47.5072 1.72991 47.5788 1.82109C47.6504 1.91227 47.6869 2.02615 47.6815 2.14197C47.6762 2.25778 47.6294 2.36781 47.5496 2.45198L46.2852 3.77052L48.0745 2.73812C48.1623 2.68741 48.2639 2.66561 48.3648 2.6758C48.4657 2.68599 48.5608 2.72766 48.6367 2.79491C48.7126 2.86215 48.7655 2.95157 48.7877 3.0505C48.81 3.14943 48.8006 3.25286 48.7609 3.34615L48.1644 4.74008L48.8846 4.32538C48.9396 4.29041 49.0011 4.26693 49.0654 4.25635C49.1298 4.24577 49.1956 4.24831 49.2589 4.26382C49.3222 4.27933 49.3817 4.30749 49.4339 4.3466C49.486 4.3857 49.5297 4.43496 49.5623 4.4914C49.595 4.54783 49.6158 4.61028 49.6237 4.675C49.6316 4.73971 49.6263 4.80534 49.6081 4.86794C49.5899 4.93055 49.5593 4.98883 49.518 5.03929C49.4767 5.08975 49.4257 5.13134 49.3679 5.16155L47.3901 6.30512C47.3167 6.34788 47.2334 6.37055 47.1485 6.37085Z" fill="#563B36"/>
<path id="Vector_2" d="M43.0641 20.582C42.9613 20.582 42.8611 20.5491 42.7782 20.4883C42.6953 20.4274 42.634 20.3417 42.6032 20.2436C42.5724 20.1455 42.5736 20.0401 42.6068 19.9428C42.64 19.8454 42.7033 19.7612 42.7876 19.7023L44.9897 18.1731L41.1395 20.3964C41.0321 20.4587 40.9048 20.4772 40.7841 20.4482C40.6634 20.4192 40.5584 20.3448 40.4911 20.2406C40.4237 20.1363 40.399 20.01 40.4222 19.8881C40.4454 19.7661 40.5146 19.6577 40.6155 19.5854L45.938 15.7564L38.5788 20.0049C38.4704 20.0641 38.3435 20.0795 38.2241 20.0481C38.1047 20.0166 38.0018 19.9407 37.9366 19.8358C37.8715 19.7309 37.8489 19.6051 37.8736 19.4841C37.8983 19.3631 37.9683 19.2562 38.0693 19.1852L40.9529 17.2576L36.8881 19.5999C36.7797 19.6591 36.6528 19.6745 36.5334 19.6431C36.414 19.6116 36.3111 19.5357 36.246 19.4308C36.1808 19.3259 36.1582 19.2001 36.1829 19.0791C36.2076 18.9581 36.2776 18.8511 36.3786 18.7801L39.9437 16.405L35.2737 19.1001C35.1659 19.1631 35.038 19.1819 34.9166 19.1526C34.7952 19.1233 34.6899 19.0482 34.6227 18.943C34.5555 18.8378 34.5315 18.7107 34.556 18.5882C34.5804 18.4658 34.6512 18.3575 34.7537 18.2862L42.285 12.9888L33.149 18.263C33.0406 18.3238 32.9128 18.3404 32.7924 18.3095C32.672 18.2786 32.5681 18.2024 32.5024 18.0968C32.4366 17.9913 32.4141 17.8645 32.4395 17.7427C32.4649 17.621 32.5362 17.5138 32.6386 17.4432L37.9156 13.9014L32.1707 17.218C32.0618 17.2789 31.9335 17.2953 31.8127 17.2637C31.6919 17.2321 31.5881 17.155 31.5229 17.0486C31.4577 16.9421 31.4361 16.8146 31.4629 16.6927C31.4896 16.5707 31.5624 16.4638 31.6661 16.3944L33.2814 15.3436L32.1707 15.9845C32.0621 16.0437 31.935 16.0589 31.8155 16.0271C31.696 15.9953 31.5932 15.9189 31.5283 15.8136C31.4634 15.7084 31.4413 15.5822 31.4666 15.4612C31.4919 15.3401 31.5626 15.2334 31.6642 15.1629L33.3162 14.0773L32.1746 14.7346C32.0665 14.7965 31.9387 14.8141 31.8178 14.784C31.697 14.7539 31.5924 14.6782 31.526 14.5729C31.4595 14.4675 31.4363 14.3406 31.4611 14.2186C31.486 14.0965 31.557 13.9888 31.6594 13.9178L35.1751 11.5011L32.4143 13.0942C32.3066 13.1553 32.1795 13.1728 32.0593 13.1429C31.9391 13.113 31.8349 13.0382 31.7683 12.9337C31.7017 12.8293 31.6778 12.7033 31.7014 12.5817C31.725 12.4601 31.7944 12.3522 31.8952 12.2803L34.0954 10.7336L32.9537 11.3919C32.8509 11.4493 32.7306 11.4671 32.6155 11.442C32.5004 11.4169 32.3984 11.3506 32.3288 11.2557C32.2591 11.1607 32.2265 11.0435 32.2371 10.9262C32.2477 10.8089 32.3007 10.6995 32.3863 10.6186L35.0794 8.16808C34.966 8.20182 34.8441 8.19277 34.7369 8.14263C34.6297 8.0925 34.5446 8.00477 34.4978 7.89608C34.4509 7.78739 34.4456 7.66529 34.4828 7.55293C34.52 7.44057 34.5971 7.34577 34.6995 7.28648L38.4367 5.12308C38.5396 5.06574 38.6599 5.04793 38.7749 5.07302C38.89 5.09811 38.992 5.16437 39.0617 5.25933C39.1314 5.3543 39.164 5.47145 39.1534 5.58876C39.1428 5.70607 39.0897 5.81547 39.0041 5.89641L36.3525 8.31308L43.0506 4.44641C43.1581 4.38736 43.2841 4.3714 43.4029 4.40176C43.5218 4.43213 43.6246 4.50655 43.6906 4.60994C43.7567 4.71333 43.7809 4.83795 43.7584 4.95855C43.736 5.07914 43.6685 5.18669 43.5697 5.25938L41.3734 6.80605L45.2642 4.55951C45.3724 4.4977 45.5002 4.48002 45.6211 4.51016C45.7419 4.54029 45.8465 4.61592 45.9129 4.72127C45.9794 4.82662 46.0026 4.95355 45.9777 5.0756C45.9529 5.19765 45.8818 5.30538 45.7795 5.37635L42.2608 7.79785L47.2546 4.91525C47.3635 4.85334 47.4922 4.83613 47.6135 4.86723C47.7349 4.89834 47.8394 4.97534 47.9051 5.082C47.9707 5.18867 47.9924 5.31666 47.9656 5.43901C47.9387 5.56136 47.8654 5.66851 47.7612 5.73788L46.1178 6.81668L48.6466 5.35701C48.7557 5.29357 48.8853 5.27532 49.0077 5.30614C49.13 5.33697 49.2355 5.41443 49.3015 5.52198C49.3675 5.62953 49.3889 5.75863 49.361 5.8817C49.3331 6.00478 49.2581 6.11205 49.1522 6.18061L47.5417 7.22751L49.8356 5.90221C49.9441 5.84141 50.0718 5.82475 50.1922 5.85569C50.3127 5.88663 50.4165 5.9628 50.4823 6.06835C50.548 6.1739 50.5705 6.30073 50.5451 6.42245C50.5197 6.54418 50.4484 6.65144 50.346 6.72195L45.0651 10.2667L51.1493 6.75385C51.2571 6.69088 51.3851 6.67206 51.5065 6.70135C51.6278 6.73064 51.7332 6.80575 51.8004 6.91096C51.8676 7.01616 51.8915 7.1433 51.8671 7.26574C51.8427 7.38818 51.7718 7.49641 51.6694 7.56778L44.1361 12.868L52.5007 8.03468C52.6094 7.97289 52.7377 7.95558 52.8588 7.98638C52.9799 8.01719 53.0844 8.09371 53.1503 8.1999C53.2163 8.30609 53.2385 8.43368 53.2123 8.55589C53.1862 8.67811 53.1137 8.78545 53.0102 8.85538L49.4393 11.2343L53.2441 9.04195C53.3527 8.98015 53.4811 8.96284 53.6022 8.99365C53.7233 9.02446 53.8278 9.10098 53.8937 9.20717C53.9596 9.31335 53.9818 9.44094 53.9557 9.56316C53.9296 9.68537 53.8571 9.79271 53.7535 9.86265L50.8777 11.7844L53.8251 10.084C53.9324 10.0219 54.0594 10.0035 54.18 10.0324C54.3005 10.0614 54.4053 10.1356 54.4727 10.2396C54.5402 10.3439 54.5651 10.4701 54.542 10.5921C54.519 10.7141 54.4499 10.8226 54.349 10.895L49.0323 14.7211L54.4186 11.6123C54.5262 11.554 54.6519 11.5387 54.7704 11.5694C54.8888 11.6002 54.9912 11.6748 55.0568 11.7781C55.1225 11.8813 55.1465 12.0057 55.124 12.126C55.1015 12.2463 55.0342 12.3536 54.9358 12.4262L52.7259 13.9652L54.7038 12.8245C54.8077 12.7658 54.9298 12.7477 55.0464 12.7736C55.1629 12.7995 55.2658 12.8677 55.3351 12.965C55.4044 13.0622 55.4352 13.1817 55.4216 13.3004C55.408 13.419 55.351 13.5284 55.2615 13.6075L51.4944 16.8719L54.8352 14.9386C54.9307 14.8835 55.0421 14.8627 55.151 14.8796C55.26 14.8965 55.3598 14.9502 55.4341 15.0317C55.5083 15.1131 55.5525 15.2175 55.5593 15.3275C55.566 15.4376 55.535 15.5466 55.4713 15.6365L54.6622 16.7772L54.8439 16.6728C54.8989 16.6378 54.9604 16.6144 55.0248 16.6038C55.0891 16.5932 55.1549 16.5957 55.2182 16.6113C55.2815 16.6268 55.341 16.6549 55.3932 16.694C55.4453 16.7331 55.489 16.7824 55.5217 16.8388C55.5543 16.8953 55.5752 16.9577 55.583 17.0224C55.5909 17.0871 55.5856 17.1528 55.5674 17.2154C55.5492 17.278 55.5186 17.3363 55.4773 17.3867C55.4361 17.4372 55.385 17.4788 55.3272 17.509L53.2306 18.7241C53.1351 18.7792 53.0236 18.8 52.9147 18.7831C52.8058 18.7662 52.7059 18.7125 52.6317 18.631C52.5574 18.5496 52.5133 18.4452 52.5065 18.3352C52.4997 18.2251 52.5308 18.1161 52.5945 18.0261L53.4036 16.8855L47.6036 20.233C47.4995 20.2929 47.3768 20.3118 47.2595 20.2861C47.1421 20.2605 47.0386 20.192 46.969 20.0942C46.8993 19.9963 46.8686 19.876 46.8828 19.7568C46.897 19.6375 46.9551 19.5278 47.0458 19.4491L50.809 16.1837L43.3067 20.5172C43.2331 20.5601 43.1493 20.5825 43.0641 20.582Z" fill="#6D4941"/>
<path id="Vector_3" d="M35.467 57.4879C35.3626 57.4878 35.2611 57.4538 35.1775 57.3911C35.094 57.3284 35.0331 57.2403 35.0038 57.1401C34.9745 57.0399 34.9785 56.9328 35.0151 56.8351C35.0518 56.7373 35.1191 56.654 35.207 56.5976L38.745 54.3347L33.3955 57.4203C33.2871 57.4794 33.1602 57.4949 33.0408 57.4634C32.9214 57.432 32.8185 57.356 32.7533 57.2512C32.6882 57.1463 32.6656 57.0204 32.6903 56.8995C32.715 56.7785 32.785 56.6715 32.886 56.6005L43.7021 49.3969L31.148 56.6469C31.0388 56.7091 30.9098 56.7263 30.7881 56.6949C30.6665 56.6635 30.5619 56.586 30.4964 56.4788C30.4309 56.3716 30.4098 56.2432 30.4374 56.1206C30.465 55.9981 30.5392 55.8911 30.6443 55.8224L39.1133 50.3636L30.3717 55.4096C30.2622 55.471 30.1331 55.4873 30.0118 55.4552C29.8904 55.4231 29.7864 55.345 29.7215 55.2375C29.6567 55.13 29.6363 55.0015 29.6646 54.8791C29.6928 54.7568 29.7675 54.6503 29.8729 54.5821L33.0078 52.615L30.2364 54.2167C30.127 54.2808 29.9968 54.2994 29.8739 54.2684C29.751 54.2374 29.6451 54.1594 29.5792 54.0511C29.5133 53.9428 29.4925 53.813 29.5214 53.6895C29.5503 53.5661 29.6266 53.4589 29.7337 53.3912L37.4912 48.4022L30.2345 52.5918C30.1263 52.6503 29.9998 52.6653 29.8809 52.6338C29.7619 52.6023 29.6595 52.5267 29.5944 52.4223C29.5293 52.3179 29.5065 52.1926 29.5306 52.072C29.5547 51.9513 29.6239 51.8444 29.7241 51.773L41.2351 44.0445L30.2335 50.3965C30.125 50.4594 29.9962 50.4776 29.8744 50.4473C29.7527 50.417 29.6475 50.3406 29.5811 50.2341C29.5147 50.1277 29.4922 49.9995 29.5186 49.8769C29.5449 49.7542 29.6179 49.6466 29.7221 49.5767L39.9485 42.6834L30.2325 48.2901C30.1236 48.351 29.9953 48.3673 29.8745 48.3358C29.7537 48.3042 29.6499 48.2271 29.5847 48.1207C29.5194 48.0142 29.4979 47.8867 29.5247 47.7647C29.5514 47.6428 29.6242 47.5359 29.7279 47.4665L34.5506 44.3364L30.2316 46.8295C30.1231 46.8903 29.9954 46.9069 29.875 46.876C29.7545 46.845 29.6507 46.7689 29.5849 46.6633C29.5192 46.5578 29.4967 46.431 29.5221 46.3092C29.5474 46.1875 29.6188 46.0802 29.7212 46.0097L36.0238 41.7931L30.2306 45.1436C30.1225 45.2015 29.9965 45.2162 29.878 45.1847C29.7595 45.1532 29.6574 45.0778 29.5924 44.9739C29.5274 44.8699 29.5044 44.7451 29.5279 44.6248C29.5515 44.5045 29.6198 44.3976 29.7192 44.3258L34.395 41.1687L31.9397 42.5858C31.8311 42.6487 31.7024 42.6669 31.5806 42.6367C31.4588 42.6064 31.3536 42.5299 31.2872 42.4234C31.2208 42.317 31.1984 42.1889 31.2247 42.0662C31.2511 41.9435 31.3241 41.8359 31.4283 41.7661L33.1915 40.578C33.0931 40.5709 32.9993 40.5338 32.9226 40.4718C32.8459 40.4098 32.79 40.3258 32.7625 40.2311C32.7349 40.1364 32.737 40.0355 32.7684 39.942C32.7998 39.8485 32.8591 39.7669 32.9382 39.708L34.9218 38.2493C34.8292 38.2459 34.7395 38.216 34.6635 38.163C34.5874 38.1101 34.5281 38.0364 34.4928 37.9507C34.4574 37.865 34.4475 37.771 34.4641 37.6798C34.4807 37.5886 34.5231 37.5041 34.5864 37.4364L36.7324 35.1241C36.7159 35.1041 36.701 35.0828 36.6879 35.0603C36.6239 34.9493 36.6065 34.8174 36.6397 34.6935C36.6728 34.5697 36.7538 34.4642 36.8648 34.4001L38.0973 33.6886C38.1975 33.6312 38.315 33.6115 38.4284 33.6332C38.5418 33.6548 38.6438 33.7164 38.7157 33.8067C38.7877 33.897 38.825 34.0101 38.8207 34.1255C38.8165 34.2409 38.7712 34.351 38.6928 34.4358L37.4874 35.7312L41.4507 33.445C41.5576 33.3851 41.6831 33.368 41.8021 33.3972C41.9211 33.4264 42.0245 33.4996 42.0915 33.6021C42.1586 33.7046 42.1842 33.8288 42.1632 33.9494C42.1422 34.0701 42.0762 34.1783 41.9785 34.2522L40.5411 35.3087L43.7707 33.4469C43.8791 33.3852 44.0072 33.3677 44.1281 33.3982C44.2491 33.4287 44.3536 33.5047 44.4198 33.6105C44.4859 33.7162 44.5087 33.8435 44.4832 33.9656C44.4577 34.0877 44.386 34.1952 44.283 34.2657L43.4991 34.7935L45.8355 33.4402C45.9436 33.3822 46.0696 33.3675 46.1881 33.3991C46.3066 33.4306 46.4087 33.5059 46.4737 33.6099C46.5387 33.7139 46.5618 33.8386 46.5382 33.959C46.5147 34.0793 46.4463 34.1862 46.3469 34.258L41.6624 37.4228L48.198 33.6528C48.3066 33.5899 48.4354 33.5717 48.5571 33.602C48.6789 33.6323 48.7841 33.7087 48.8505 33.8152C48.9169 33.9216 48.9393 34.0498 48.913 34.1724C48.8867 34.2951 48.8137 34.4027 48.7094 34.4726L42.4087 38.6882L50.142 34.2251C50.2511 34.1617 50.3807 34.1434 50.503 34.1742C50.6254 34.2051 50.7309 34.2825 50.7969 34.3901C50.8629 34.4976 50.8843 34.6267 50.8564 34.7498C50.8285 34.8729 50.7535 34.9801 50.6476 35.0487L45.8336 38.173L51.505 34.8969C51.6134 34.8352 51.7415 34.8177 51.8624 34.8482C51.9834 34.8787 52.0879 34.9547 52.1541 35.0605C52.2202 35.1662 52.243 35.2935 52.2175 35.4156C52.192 35.5377 52.1203 35.6452 52.0173 35.7157L41.7852 42.6119L53.1319 36.0618C53.2401 36.0032 53.3666 35.9882 53.4855 36.0197C53.6044 36.0512 53.7069 36.1268 53.772 36.2312C53.8371 36.3356 53.8599 36.4609 53.8358 36.5816C53.8117 36.7022 53.7425 36.8091 53.6423 36.8805L42.139 44.6032L54.4756 37.4799C54.5851 37.4131 54.7166 37.3925 54.8412 37.4227C54.9658 37.4529 55.0734 37.5313 55.1402 37.6408C55.2069 37.7503 55.2275 37.8818 55.1973 38.0064C55.1671 38.1311 55.0887 38.2386 54.9792 38.3054L47.2217 43.2944L55.2779 38.6437C55.3873 38.5845 55.5153 38.5697 55.6353 38.6024C55.7554 38.6352 55.8581 38.7129 55.9223 38.8195C55.9864 38.9261 56.007 39.0534 55.9797 39.1748C55.9524 39.2961 55.8793 39.4023 55.7757 39.4712L52.6341 41.4422L55.7893 39.621C55.8983 39.5611 56.0263 39.5455 56.1466 39.5775C56.2668 39.6095 56.3701 39.6867 56.4349 39.793C56.4997 39.8992 56.521 40.0264 56.4943 40.148C56.4677 40.2695 56.3952 40.3761 56.2919 40.4456L47.823 45.9034L56.3103 41.0034C56.4189 40.9416 56.5473 40.9243 56.6684 40.9551C56.7895 40.9859 56.894 41.0624 56.9599 41.1686C57.0259 41.2748 57.0481 41.4024 57.0219 41.5246C56.9958 41.6468 56.9233 41.7541 56.8197 41.8241L46.0018 49.0286L56.6883 42.8594C56.7972 42.801 56.9244 42.7867 57.0436 42.8192C57.1628 42.8517 57.2651 42.9287 57.3293 43.0342C57.3935 43.1398 57.4149 43.266 57.389 43.3868C57.3631 43.5077 57.2919 43.614 57.19 43.6839L53.6491 45.9469L56.7579 44.1528C56.8656 44.0916 56.9927 44.0742 57.1129 44.1041C57.2331 44.1339 57.3373 44.2088 57.4039 44.3133C57.4705 44.4177 57.4945 44.5437 57.4708 44.6653C57.4472 44.7869 57.3778 44.8948 57.277 44.9667L48.5354 51.0992L56.7617 46.351C56.8706 46.2891 56.9993 46.2718 57.1207 46.303C57.242 46.3341 57.3465 46.4111 57.4122 46.5177C57.4779 46.6244 57.4996 46.7524 57.4727 46.8747C57.4459 46.9971 57.3726 47.1042 57.2683 47.1736L56.0116 47.9982L56.7646 47.5641C56.8709 47.504 56.996 47.4863 57.1148 47.5146C57.2335 47.543 57.3372 47.6152 57.4049 47.7168C57.4726 47.8184 57.4993 47.9419 57.4797 48.0624C57.4601 48.1829 57.3956 48.2916 57.2992 48.3665L51.4354 52.8508L56.7617 49.7739C56.8674 49.7145 56.9916 49.6969 57.1096 49.7247C57.2276 49.7526 57.3308 49.8237 57.3988 49.9241C57.4668 50.0244 57.4946 50.1467 57.4767 50.2666C57.4588 50.3865 57.3965 50.4953 57.3021 50.5714L53.9294 53.2298L56.7617 51.5951C56.8673 51.536 56.9912 51.5186 57.1089 51.5464C57.2267 51.5742 57.3297 51.6451 57.3977 51.7451C57.4657 51.8452 57.4937 51.9671 57.4762 52.0868C57.4587 52.2065 57.3969 52.3153 57.3031 52.3917L56.1701 53.2897L56.7617 52.9485C56.8573 52.8928 56.9691 52.8721 57.0782 52.8897C57.1873 52.9073 57.287 52.9623 57.3601 53.0451C57.4344 53.1264 57.4787 53.2305 57.4858 53.3404C57.4928 53.4503 57.4621 53.5592 57.3988 53.6493L56.117 55.4724L56.1982 55.4251C56.3086 55.3673 56.4372 55.3544 56.5569 55.3891C56.6766 55.4239 56.7783 55.5035 56.8407 55.6115C56.9031 55.7194 56.9213 55.8472 56.8917 55.9683C56.862 56.0894 56.7867 56.1944 56.6815 56.2612L54.7018 57.4009C54.6064 57.4561 54.495 57.4771 54.3861 57.4603C54.2772 57.4435 54.1773 57.39 54.1029 57.3087C54.0286 57.2273 53.9842 57.123 53.9773 57.0131C53.9704 56.9031 54.0012 56.794 54.0647 56.704L55.3475 54.8808L50.9424 57.4203C50.8369 57.4794 50.713 57.4968 50.5952 57.469C50.4775 57.4412 50.3744 57.3703 50.3064 57.2703C50.2384 57.1702 50.2104 57.0483 50.228 56.9286C50.2455 56.8089 50.3073 56.7001 50.4011 56.6237L51.5321 55.7267L48.6002 57.4203C48.4945 57.4797 48.3704 57.4973 48.2523 57.4694C48.1343 57.4416 48.0311 57.3705 47.9631 57.2701C47.8951 57.1698 47.8673 57.0475 47.8852 56.9276C47.9031 56.8077 47.9654 56.6989 48.0598 56.6228L51.4325 53.9644L45.4469 57.4203C45.3406 57.4817 45.2149 57.5003 45.0953 57.4724C44.9758 57.4445 44.8713 57.3722 44.8031 57.2701C44.735 57.1679 44.7082 57.0437 44.7283 56.9226C44.7484 56.8015 44.8139 56.6926 44.9114 56.6179L50.7752 52.1345L41.6189 57.4203C41.5102 57.4811 41.3822 57.4976 41.2616 57.4663C41.1411 57.435 41.0372 57.3584 40.9717 57.2524C40.9063 57.1464 40.8843 57.0193 40.9103 56.8975C40.9363 56.7756 41.0084 56.6686 41.1114 56.5986L42.3681 55.7721L39.5125 57.4154C39.405 57.4745 39.2791 57.4904 39.1602 57.4601C39.0414 57.4297 38.9385 57.3553 38.8725 57.2519C38.8065 57.1485 38.7822 57.0239 38.8047 56.9033C38.8272 56.7827 38.8946 56.6752 38.9934 56.6025L47.7389 50.469L35.7087 57.4203C35.6355 57.4637 35.5522 57.487 35.467 57.4879Z" fill="#9693EB"/>
<path id="Vector_4" d="M7.83633 57.488C7.73159 57.4879 7.62971 57.4537 7.54606 57.3907C7.4624 57.3277 7.40148 57.2392 7.37247 57.1385C7.34347 57.0379 7.34794 56.9305 7.38522 56.8326C7.42251 56.7348 7.49058 56.6516 7.5792 56.5958L8.25587 56.1695L6.0828 57.4204C5.97348 57.4805 5.84516 57.496 5.72467 57.4637C5.60418 57.4313 5.50085 57.3537 5.4363 57.2469C5.37175 57.1402 5.35097 57.0126 5.37832 56.8909C5.40567 56.7692 5.47902 56.6627 5.58303 56.5938L7.27083 55.5305L4.00737 57.4204C3.9531 57.4533 3.89287 57.4752 3.83013 57.4849C3.76738 57.4946 3.70335 57.4918 3.64168 57.4767C3.58001 57.4616 3.52192 57.4345 3.47072 57.397C3.41952 57.3595 3.37621 57.3122 3.34327 57.2579C3.31032 57.2037 3.28839 57.1435 3.27873 57.0807C3.26906 57.018 3.27185 56.9539 3.28693 56.8923C3.31738 56.7677 3.39606 56.6604 3.50567 56.5938L8.7972 53.225L2.44523 56.8887C2.33627 56.9565 2.20484 56.9782 2.07984 56.9491C1.95485 56.9201 1.84653 56.8425 1.77872 56.7335C1.7109 56.6246 1.68915 56.4931 1.71825 56.3681C1.74735 56.2431 1.82491 56.1348 1.93387 56.067L12.8475 48.8798L1.40027 55.487C1.29181 55.5454 1.16514 55.5602 1.04614 55.5284C0.927143 55.4965 0.824795 55.4204 0.760006 55.3157C0.695218 55.2109 0.672879 55.0853 0.697554 54.9647C0.722228 54.844 0.792054 54.7372 0.892766 54.6663L11.9505 47.3728L1.23787 53.5585C1.12874 53.6177 1.00104 53.6325 0.881233 53.6001C0.761425 53.5677 0.658692 53.4904 0.59432 53.3842C0.529949 53.2781 0.508873 53.1513 0.53546 53.03C0.562047 52.9088 0.634259 52.8024 0.737133 52.733L6.17077 49.2704L1.24077 52.1172C1.13164 52.1764 1.00394 52.1912 0.884133 52.1588C0.764325 52.1264 0.661592 52.0491 0.59722 51.9429C0.532849 51.8368 0.511773 51.71 0.53836 51.5887C0.564947 51.4675 0.637159 51.3611 0.740033 51.2917L5.05523 48.5473L1.23787 50.7503C1.12932 50.8103 1.0019 50.8262 0.881954 50.7948C0.762004 50.7634 0.6587 50.6872 0.593402 50.5818C0.528103 50.4764 0.505804 50.3499 0.531117 50.2285C0.556429 50.1072 0.627416 50.0002 0.729399 49.9296L10.2994 43.5699L1.23787 48.7967C1.12874 48.8559 1.00104 48.8707 0.881233 48.8383C0.761425 48.8059 0.658692 48.7286 0.59432 48.6224C0.529949 48.5163 0.508873 48.3895 0.53546 48.2682C0.562047 48.147 0.634259 48.0406 0.737133 47.9712L3.8991 45.9547L1.23787 47.4907C1.12982 47.5536 1.00161 47.5722 0.880158 47.5425C0.75871 47.5129 0.653471 47.4374 0.586541 47.3318C0.519611 47.2262 0.496195 47.0988 0.52121 46.9763C0.546226 46.8538 0.617727 46.7458 0.720699 46.6749L10.1109 40.1683L1.23787 45.2916C1.12852 45.3589 0.996921 45.38 0.872016 45.3503C0.74711 45.3205 0.639131 45.2424 0.571833 45.133C0.504534 45.0237 0.483428 44.8921 0.513159 44.7672C0.54289 44.6423 0.621022 44.5343 0.730366 44.467L3.77053 42.467L1.28717 43.8986C1.17895 43.9595 1.05146 43.9764 0.931138 43.9458C0.810812 43.9152 0.706874 43.8394 0.640871 43.7343C0.574868 43.6291 0.551862 43.5026 0.576623 43.3809C0.601384 43.2593 0.672012 43.1518 0.773866 43.0808L4.424 40.582L1.5791 42.2253C1.47151 42.2858 1.34489 42.3028 1.22517 42.2728C1.10545 42.2429 1.00171 42.1683 0.935216 42.0644C0.868718 41.9604 0.844497 41.835 0.867518 41.7138C0.89054 41.5925 0.959059 41.4847 1.05903 41.4123L3.6236 39.6027L2.23643 40.407C2.13264 40.4663 2.01057 40.485 1.8938 40.4595C1.77703 40.434 1.67383 40.3662 1.60414 40.2691C1.53444 40.172 1.50319 40.0526 1.51642 39.9338C1.52965 39.815 1.58642 39.7053 1.67577 39.6259L4.54387 37.0913C4.44879 37.1056 4.35162 37.0906 4.26529 37.0483C4.17896 37.006 4.10754 36.9384 4.06053 36.8545C3.99644 36.7435 3.97907 36.6116 4.01225 36.4878C4.04542 36.3639 4.12642 36.2584 4.23743 36.1943L8.12827 33.9477C8.23206 33.8885 8.35412 33.8698 8.4709 33.8952C8.58767 33.9207 8.69087 33.9885 8.76056 34.0856C8.83026 34.1827 8.86151 34.3022 8.84828 34.421C8.83505 34.5398 8.77828 34.6494 8.68893 34.7288L5.95327 37.1377L12.3516 33.4451C12.459 33.3865 12.5846 33.3709 12.703 33.4012C12.8215 33.4316 12.9241 33.5058 12.99 33.6088C13.056 33.7117 13.0804 33.8359 13.0585 33.9562C13.0365 34.0765 12.9698 34.184 12.8717 34.2571L10.3062 36.0686L14.8495 33.4451C14.9573 33.387 15.0832 33.372 15.2017 33.4031C15.3201 33.4343 15.4223 33.5092 15.4877 33.6128C15.553 33.7165 15.5765 33.841 15.5535 33.9613C15.5305 34.0816 15.4627 34.1887 15.3638 34.261L11.7136 36.7607L17.4576 33.4451C17.5664 33.382 17.6955 33.3638 17.8175 33.3944C17.9395 33.425 18.0448 33.5019 18.111 33.6089C18.1772 33.7158 18.1991 33.8444 18.172 33.9672C18.1449 34.0901 18.071 34.1975 17.966 34.2668L14.9336 36.2648L19.7737 33.4702C19.8817 33.4073 20.01 33.3888 20.1314 33.4184C20.2529 33.4481 20.3581 33.5236 20.425 33.6292C20.492 33.7348 20.5154 33.8622 20.4904 33.9847C20.4653 34.1072 20.3938 34.2152 20.2909 34.2861L10.9026 40.7937L22.4059 34.1546C22.5154 34.0921 22.6449 34.0748 22.7669 34.1064C22.889 34.138 22.9938 34.216 23.0591 34.3238C23.1245 34.4316 23.1451 34.5607 23.1166 34.6835C23.0881 34.8063 23.0128 34.9131 22.9067 34.9811L19.7602 36.9869L23.0807 35.07C23.1892 35.0101 23.3166 34.9942 23.4366 35.0256C23.5565 35.057 23.6598 35.1332 23.7251 35.2386C23.7904 35.344 23.8127 35.4705 23.7874 35.5919C23.7621 35.7132 23.6911 35.8202 23.5891 35.8907L14.0191 42.2553L24.0879 36.4437C24.1422 36.4107 24.2024 36.3888 24.2652 36.3791C24.3279 36.3695 24.3919 36.3723 24.4536 36.3873C24.5153 36.4024 24.5734 36.4295 24.6246 36.467C24.6758 36.5046 24.7191 36.5518 24.752 36.6061C24.785 36.6604 24.8069 36.7206 24.8166 36.7833C24.8262 36.8461 24.8235 36.9101 24.8084 36.9718C24.7933 37.0334 24.7662 37.0915 24.7287 37.1427C24.6911 37.1939 24.6439 37.2372 24.5896 37.2702L20.2744 40.0145L24.7955 37.4045C24.9051 37.338 25.0367 37.3178 25.1612 37.3482C25.2229 37.3633 25.281 37.3904 25.3322 37.4279C25.3834 37.4654 25.4267 37.5127 25.4596 37.5669C25.4926 37.6212 25.5145 37.6814 25.5242 37.7442C25.5338 37.8069 25.5311 37.871 25.516 37.9326C25.5009 37.9943 25.4738 38.0524 25.4363 38.1036C25.3987 38.1548 25.3515 38.1981 25.2972 38.231L19.8617 41.6946L25.5418 38.4157C25.6505 38.3549 25.7785 38.3384 25.8991 38.3697C26.0197 38.4009 26.1235 38.4775 26.189 38.5835C26.2544 38.6895 26.2764 38.8167 26.2504 38.9385C26.2244 39.0603 26.1523 39.1674 26.0493 39.2373L14.9955 46.5241L26.5839 39.8319C26.6929 39.7666 26.8232 39.7468 26.9467 39.7769C27.0702 39.8071 27.1768 39.8846 27.2435 39.9927C27.3103 40.1009 27.3317 40.231 27.3032 40.3548C27.2747 40.4787 27.1986 40.5863 27.0914 40.6545L16.1835 47.8407L27.623 41.2364C27.7326 41.1699 27.8642 41.1496 27.9887 41.1801C28.0504 41.1952 28.1085 41.2222 28.1597 41.2598C28.2109 41.2973 28.2542 41.3445 28.2871 41.3988C28.3201 41.4531 28.342 41.5133 28.3517 41.5761C28.3613 41.6388 28.3586 41.7028 28.3435 41.7645C28.3284 41.8262 28.3013 41.8843 28.2638 41.9355C28.2262 41.9867 28.179 42.03 28.1247 42.0629L22.8371 45.4337L28.3625 42.2437C28.472 42.1823 28.6011 42.166 28.7225 42.1981C28.8438 42.2302 28.9479 42.3083 29.0127 42.4158C29.0775 42.5233 29.098 42.6518 29.0697 42.7741C29.0415 42.8964 28.9667 43.003 28.8613 43.0711L27.1677 44.1345L28.9851 43.0847C29.0394 43.0519 29.0997 43.0301 29.1624 43.0205C29.2252 43.011 29.2892 43.014 29.3508 43.0292C29.4124 43.0444 29.4705 43.0716 29.5216 43.1092C29.5727 43.1469 29.6159 43.1942 29.6487 43.2485C29.6815 43.3029 29.7033 43.3631 29.7128 43.4259C29.7223 43.4886 29.7194 43.5527 29.7042 43.6143C29.689 43.6759 29.6618 43.7339 29.6241 43.785C29.5865 43.8361 29.5392 43.8793 29.4848 43.9121L28.8294 44.3259L29.5815 43.8918C29.6894 43.8299 29.817 43.812 29.9378 43.8418C30.0586 43.8716 30.1632 43.9467 30.2299 44.0517C30.2967 44.1567 30.3204 44.2834 30.2961 44.4054C30.2718 44.5274 30.2015 44.6353 30.0996 44.7067L21.1754 50.9311L29.6965 46.0137C29.8054 45.9546 29.9328 45.9396 30.0524 45.9717C30.1721 46.0038 30.2748 46.0806 30.3394 46.1863C30.4041 46.292 30.4257 46.4185 30.3997 46.5396C30.3738 46.6607 30.3024 46.7673 30.2002 46.8373L29.7632 47.1205C29.8728 47.0785 29.9939 47.0778 30.1039 47.1185C30.214 47.1592 30.3054 47.2386 30.3613 47.3418C30.4171 47.4449 30.4335 47.5649 30.4075 47.6793C30.3814 47.7937 30.3146 47.8947 30.2195 47.9634L25.0198 51.6948L29.6965 48.9949C29.8017 48.9356 29.9253 48.9178 30.043 48.9451C30.1606 48.9724 30.2638 49.0427 30.3322 49.1423C30.4006 49.2418 30.4292 49.3634 30.4125 49.483C30.3957 49.6026 30.3348 49.7116 30.2417 49.7885L25.6385 53.515L29.6985 51.1737C29.8046 51.114 29.9294 51.0966 30.0478 51.1249C30.1663 51.1532 30.2697 51.2251 30.3374 51.3264C30.405 51.4277 30.432 51.5507 30.4128 51.671C30.3937 51.7913 30.3298 51.8999 30.234 51.9751L29.0208 52.907L29.6975 52.5155C29.7988 52.4578 29.9175 52.4386 30.0317 52.4616C30.146 52.4845 30.2482 52.5479 30.3194 52.6402C30.3906 52.7324 30.426 52.8473 30.4192 52.9637C30.4124 53.08 30.3638 53.19 30.2823 53.2733L28.783 54.79L29.6318 54.2999C29.6868 54.265 29.7483 54.2415 29.8126 54.2309C29.8769 54.2203 29.9427 54.2229 30.0061 54.2384C30.0694 54.2539 30.1289 54.2821 30.181 54.3212C30.2332 54.3603 30.2769 54.4095 30.3095 54.466C30.3421 54.5224 30.363 54.5848 30.3709 54.6496C30.3787 54.7143 30.3734 54.7799 30.3553 54.8425C30.3371 54.9051 30.3065 54.9634 30.2652 55.0139C30.2239 55.0643 30.1729 55.1059 30.1151 55.1361L26.1518 57.4242C26.0505 57.4826 25.9314 57.5023 25.8167 57.4797C25.702 57.4571 25.5994 57.3936 25.5279 57.3011C25.4564 57.2086 25.4209 57.0933 25.4279 56.9766C25.4349 56.8599 25.4839 56.7497 25.566 56.6663L27.0672 55.1487L23.1261 57.4204C23.0199 57.4813 22.8946 57.4997 22.7754 57.4718C22.6561 57.4439 22.552 57.3718 22.4838 57.2701C22.4157 57.1683 22.3888 57.0445 22.4084 56.9237C22.428 56.8028 22.4928 56.6939 22.5896 56.619L23.8037 55.6871L20.8013 57.4204C20.696 57.4807 20.5719 57.4993 20.4536 57.4723C20.3353 57.4454 20.2315 57.375 20.1627 57.2751C20.0939 57.1751 20.0652 57.053 20.0824 56.9328C20.0995 56.8127 20.1611 56.7035 20.2551 56.6267L24.8584 52.9002L17.0284 57.4204C16.921 57.481 16.7945 57.4984 16.6748 57.4688C16.5551 57.4393 16.4512 57.3651 16.3844 57.2615C16.3175 57.1579 16.2928 57.0326 16.3153 56.9114C16.3378 56.7901 16.4058 56.6821 16.5054 56.6093L21.7061 52.877L13.8364 57.4204C13.7276 57.4794 13.6002 57.4945 13.4805 57.4624C13.3609 57.4302 13.2581 57.3534 13.1935 57.2477C13.1289 57.142 13.1073 57.0156 13.1332 56.8944C13.1591 56.7733 13.2306 56.6667 13.3328 56.5967L13.6779 56.3725L11.8625 57.4204C11.7548 57.48 11.6285 57.4963 11.5092 57.4659C11.3899 57.4356 11.2867 57.3609 11.2206 57.2571C11.1545 57.1532 11.1306 57.0281 11.1535 56.9072C11.1765 56.7863 11.2448 56.6787 11.3444 56.6064L20.2657 50.385L8.078 57.4204C8.00481 57.4638 7.92144 57.4871 7.83633 57.488Z" fill="#E3C84C"/>
<path id="Vector_5" d="M14.8258 37.1116C14.7309 37.1116 14.638 37.0837 14.5589 37.0312C14.4797 36.9788 14.4178 36.9042 14.3807 36.8167C14.3437 36.7293 14.3333 36.6329 14.3507 36.5396C14.3682 36.4462 14.4127 36.3601 14.4788 36.2919L15.5827 35.1512L13.6581 36.2629C13.5552 36.3203 13.4349 36.3381 13.3198 36.313C13.2047 36.2879 13.1028 36.2216 13.0331 36.1267C12.9634 36.0317 12.9308 35.9145 12.9414 35.7972C12.952 35.6799 13.0051 35.5705 13.0906 35.4896L14.6982 34.027L12.9456 35.0391C12.8454 35.0972 12.7277 35.1174 12.6139 35.096C12.5 35.0746 12.3977 35.013 12.3254 34.9225C12.2532 34.832 12.2158 34.7185 12.2202 34.6028C12.2246 34.487 12.2703 34.3767 12.3492 34.2919L13.9925 32.5325L12.8412 33.1966C12.7603 33.2432 12.6675 33.2652 12.5743 33.2601C12.481 33.2551 12.3913 33.2231 12.3158 33.1681C12.2403 33.1131 12.1824 33.0374 12.1491 32.9502C12.1157 32.8629 12.1083 32.7679 12.1278 32.6766L12.4333 31.2546C12.3476 31.2227 12.2728 31.1671 12.2174 31.0943C12.1621 31.0215 12.1285 30.9345 12.1206 30.8434C12.1127 30.7523 12.1308 30.6609 12.1728 30.5797C12.2148 30.4984 12.279 30.4308 12.3579 30.3846L12.8412 30.1033C12.9222 30.0565 13.0151 30.0342 13.1085 30.0391C13.2019 30.0441 13.2919 30.076 13.3675 30.131C13.4432 30.1861 13.5012 30.2619 13.5346 30.3493C13.568 30.4367 13.5753 30.5319 13.5556 30.6234L13.2985 31.8162L16.2951 30.0859C16.3955 30.0271 16.5136 30.0064 16.6279 30.0277C16.7422 30.0489 16.8451 30.1107 16.9175 30.2016C16.99 30.2925 17.0273 30.4065 17.0225 30.5227C17.0178 30.6389 16.9713 30.7494 16.8916 30.8341L15.2482 32.5925L18.0902 30.9491C18.1931 30.8918 18.3134 30.874 18.4285 30.8991C18.5436 30.9242 18.6456 30.9904 18.7152 31.0854C18.7849 31.1804 18.8175 31.2975 18.8069 31.4148C18.7963 31.5321 18.7433 31.6415 18.6577 31.7225L17.0549 33.186L18.0951 32.5857C18.196 32.5282 18.3142 32.5089 18.4281 32.5313C18.5421 32.5538 18.6441 32.6165 18.7156 32.7081C18.787 32.7996 18.8232 32.9138 18.8173 33.0298C18.8115 33.1458 18.7641 33.2558 18.6838 33.3397L17.5798 34.4804L17.9665 34.2571C18.0215 34.2248 18.0823 34.2038 18.1455 34.1952C18.2086 34.1865 18.2729 34.1905 18.3345 34.2068C18.3961 34.2231 18.4539 34.2514 18.5045 34.2901C18.5552 34.3288 18.5977 34.3772 18.6295 34.4324C18.6614 34.4876 18.682 34.5485 18.6903 34.6117C18.6985 34.6749 18.6941 34.7392 18.6774 34.8007C18.6607 34.8622 18.632 34.9198 18.5929 34.9702C18.5539 35.0205 18.5053 35.0627 18.4498 35.0942L15.0665 37.0459C14.9936 37.0889 14.9105 37.1116 14.8258 37.1116Z" fill="#DAAB94"/>
<path id="Vector_6" d="M3.66019 16.9168C3.55725 16.9167 3.45705 16.8837 3.37419 16.8226C3.29132 16.7615 3.23011 16.6756 3.19947 16.5773C3.16884 16.4791 3.17038 16.3736 3.20386 16.2762C3.23735 16.1789 3.30104 16.0948 3.38565 16.0362L12.9818 9.39036L3.17009 15.0541C3.06226 15.1122 2.93639 15.1272 2.81792 15.096C2.69946 15.0649 2.59724 14.9899 2.53192 14.8863C2.46661 14.7827 2.44307 14.6581 2.46607 14.5378C2.48907 14.4175 2.55689 14.3104 2.65582 14.2382L11.9155 7.89396L3.17009 12.9429C3.06259 13.0042 2.93566 13.0219 2.81546 12.9924C2.69526 12.963 2.59096 12.8885 2.52403 12.7844C2.45711 12.6803 2.43267 12.5545 2.45575 12.4329C2.47883 12.3113 2.54767 12.2032 2.64809 12.1309L10.5139 6.54159L3.18169 10.7746C3.07395 10.8357 2.94686 10.8532 2.82665 10.8233C2.70644 10.7934 2.60228 10.7186 2.53567 10.6141C2.46907 10.5097 2.4451 10.3837 2.46872 10.2621C2.49233 10.1405 2.56173 10.0326 2.66259 9.96069L6.97585 6.93986L3.39919 9.00562C3.29382 9.06629 3.16945 9.08502 3.05088 9.05807C2.93232 9.03112 2.82827 8.96047 2.75948 8.86021C2.69069 8.75995 2.66221 8.63745 2.67973 8.51713C2.69724 8.3968 2.75947 8.28751 2.85399 8.21102L7.42342 4.52802L4.46832 6.23032C4.3629 6.28916 4.23928 6.30641 4.12178 6.27868C4.00427 6.25095 3.9014 6.18026 3.83341 6.0805C3.76541 5.98074 3.7372 5.85915 3.75434 5.73965C3.77148 5.62014 3.83272 5.51138 3.92602 5.43476L5.76269 3.96832C5.69876 3.92708 5.64571 3.87104 5.60802 3.80496C5.54385 3.69406 5.52633 3.56223 5.55932 3.43842C5.59231 3.31462 5.67311 3.20898 5.78395 3.14472L9.48435 1.00936C9.58978 0.950522 9.7134 0.933272 9.8309 0.960999C9.9484 0.988725 10.0513 1.05942 10.1193 1.15918C10.1873 1.25893 10.2155 1.38053 10.1983 1.50003C10.1812 1.61954 10.12 1.7283 10.0267 1.80492L9.56942 2.16839L12.3273 0.580156C12.4327 0.520582 12.5565 0.50269 12.6744 0.530017C12.7923 0.557344 12.8956 0.627902 12.964 0.727745C13.0324 0.827587 13.0609 0.94945 13.0437 1.06925C13.0266 1.18905 12.9652 1.29807 12.8716 1.37476L8.30212 5.05679L16.0616 0.580156C16.1691 0.521101 16.295 0.505139 16.4139 0.535503C16.5327 0.565868 16.6356 0.640288 16.7016 0.743679C16.7676 0.847069 16.7919 0.971693 16.7694 1.09229C16.7469 1.21289 16.6795 1.32043 16.5807 1.39312L12.2761 4.41106L18.9094 0.580156C19.0169 0.517031 19.1447 0.497927 19.266 0.526841C19.3874 0.555754 19.4928 0.630444 19.5603 0.735298C19.6279 0.840152 19.6523 0.967051 19.6284 1.08947C19.6045 1.21188 19.5343 1.32034 19.4323 1.39216L11.5685 6.97852L22.2966 0.784122C22.4045 0.724692 22.531 0.708704 22.6503 0.739424C22.7696 0.770144 22.8726 0.845254 22.9384 0.949408C23.0042 1.05356 23.0277 1.1789 23.0042 1.29982C22.9806 1.42074 22.9118 1.5281 22.8118 1.59999L13.5463 7.94906L22.6958 2.66622C22.8038 2.60335 22.9321 2.58478 23.0535 2.61442C23.1749 2.64407 23.2802 2.71961 23.3471 2.8252C23.414 2.93079 23.4375 3.0582 23.4124 3.18069C23.3874 3.30317 23.3159 3.4112 23.213 3.48209L13.6178 10.126L23.2246 4.57926C23.3327 4.51346 23.4623 4.49271 23.5856 4.52146C23.7089 4.55022 23.8159 4.62619 23.8838 4.73305C23.9517 4.8399 23.9749 4.96911 23.9485 5.09291C23.9221 5.21672 23.8482 5.32522 23.7427 5.39512L16.8194 10.2004L25.1521 5.38932C25.26 5.32741 25.3876 5.30947 25.5084 5.33925C25.6291 5.36903 25.7338 5.44422 25.8005 5.5492C25.8673 5.65417 25.891 5.78083 25.8667 5.90284C25.8424 6.02484 25.7721 6.13279 25.6702 6.20422L19.7339 10.3435L26.4039 6.49616C26.5106 6.43674 26.6359 6.41992 26.7545 6.44908C26.8731 6.47825 26.9762 6.55123 27.0432 6.65336C27.1102 6.75548 27.136 6.87918 27.1155 6.99959C27.095 7.11999 27.0297 7.22816 26.9327 7.30236L20.862 11.8109L27.3474 8.06699C27.4552 8.00402 27.5832 7.98521 27.7046 8.01449C27.8259 8.04378 27.9312 8.11889 27.9985 8.2241C28.0657 8.32931 28.0896 8.45644 28.0652 8.57888C28.0408 8.70132 27.9699 8.80956 27.8675 8.88092L25.386 10.6267L27.6867 9.29949C27.7929 9.24051 27.9175 9.22371 28.0355 9.25241C28.1536 9.28112 28.2565 9.35324 28.3238 9.4544C28.391 9.55557 28.4178 9.67837 28.3986 9.79834C28.3794 9.91831 28.3158 10.0267 28.2203 10.1018L25.4595 12.2063L27.7698 10.8723C27.8718 10.8126 27.9922 10.7924 28.1081 10.8155C28.224 10.8386 28.3274 10.9033 28.3988 10.9974C28.4702 11.0916 28.5047 11.2086 28.4957 11.3265C28.4866 11.4443 28.4348 11.5547 28.3498 11.6369L25.8655 14.0536L27.7756 12.9535C27.8684 12.8983 27.9772 12.8763 28.0842 12.8911C28.1911 12.9058 28.2899 12.9565 28.3643 13.0347C28.4391 13.1118 28.4861 13.2116 28.4978 13.3184C28.5095 13.4252 28.4854 13.5328 28.4291 13.6244L27.5591 15.0367L27.7843 14.9071C27.8393 14.8722 27.9009 14.8487 27.9652 14.8381C28.0295 14.8275 28.0953 14.8301 28.1586 14.8456C28.2219 14.8611 28.2815 14.8892 28.3336 14.9283C28.3858 14.9674 28.4295 15.0167 28.4621 15.0731C28.4947 15.1296 28.5156 15.192 28.5234 15.2567C28.5313 15.3214 28.526 15.3871 28.5078 15.4497C28.4897 15.5123 28.459 15.5706 28.4177 15.621C28.3765 15.6715 28.3254 15.7131 28.2677 15.7433L26.3894 16.825C26.2964 16.8785 26.1882 16.8995 26.0818 16.8847C25.9755 16.8699 25.8771 16.8201 25.8022 16.7432C25.7273 16.6664 25.6802 16.5667 25.6682 16.46C25.6562 16.3534 25.68 16.2457 25.736 16.1541L26.606 14.7409L22.9887 16.8289C22.8867 16.8885 22.7663 16.9087 22.6504 16.8856C22.5345 16.8626 22.4311 16.7978 22.3597 16.7037C22.2883 16.6095 22.2538 16.4925 22.2628 16.3747C22.2719 16.2568 22.3238 16.1464 22.4087 16.0642L24.894 13.6476L19.3724 16.8376C19.2661 16.8977 19.141 16.9154 19.0223 16.887C18.9035 16.8587 18.7998 16.7865 18.7321 16.6849C18.6644 16.5833 18.6377 16.4598 18.6573 16.3393C18.6769 16.2188 18.7414 16.1101 18.8378 16.0352L21.5986 13.9318L16.5594 16.8414C16.4516 16.9044 16.3236 16.9232 16.2022 16.8939C16.0809 16.8646 15.9755 16.7895 15.9083 16.6843C15.8411 16.5791 15.8172 16.452 15.8416 16.3295C15.866 16.2071 15.9369 16.0989 16.0393 16.0275L18.5227 14.2798L14.076 16.8443C13.9693 16.9037 13.8441 16.9206 13.7255 16.8914C13.6069 16.8622 13.5037 16.7892 13.4367 16.6871C13.3697 16.585 13.3439 16.4613 13.3644 16.3409C13.3849 16.2205 13.4502 16.1123 13.5473 16.0381L19.6228 11.5238L10.4075 16.8405C10.2996 16.9046 10.1709 16.9241 10.0487 16.895C9.92659 16.8659 9.82056 16.7904 9.7531 16.6845C9.68563 16.5786 9.66203 16.4506 9.68729 16.3276C9.71255 16.2046 9.78468 16.0963 9.88842 16.0256L15.8218 11.8902L7.23879 16.8472C7.13074 16.9101 7.00253 16.9287 6.88108 16.899C6.75963 16.8694 6.65439 16.7938 6.58746 16.6882C6.52053 16.5827 6.49712 16.4552 6.52213 16.3328C6.54715 16.2103 6.61865 16.1022 6.72162 16.0314L13.6468 11.2251L3.90185 16.8511C3.82858 16.8941 3.74516 16.9168 3.66019 16.9168Z" fill="#7A5047"/>
<path id="Vector_7" d="M29.8049 44.7565C29.7066 44.7564 29.6107 44.7263 29.53 44.6703C29.4493 44.6144 29.3875 44.5351 29.353 44.4431C29.3184 44.3511 29.3127 44.2508 29.3367 44.1555C29.3606 44.0602 29.413 43.9745 29.4868 43.9097L30.5502 42.9749L29.1069 43.8082C29.0016 43.8678 28.8778 43.8857 28.7599 43.8583C28.642 43.831 28.5386 43.7605 28.4702 43.6606C28.4019 43.5608 28.3734 43.4389 28.3905 43.3191C28.4077 43.1993 28.4691 43.0903 28.5627 43.0136L32.3839 39.9454L27.8116 42.5834C27.7061 42.6457 27.5809 42.6656 27.4612 42.639C27.3416 42.6125 27.2366 42.5415 27.1673 42.4404C27.098 42.3393 27.0697 42.2157 27.0881 42.0946C27.1065 41.9734 27.1703 41.8638 27.2664 41.7879L32.1819 37.84L26.351 41.2069C26.2445 41.2688 26.1185 41.2878 25.9985 41.2599C25.8786 41.232 25.7738 41.1594 25.7056 41.0569C25.6373 40.9544 25.6108 40.8297 25.6314 40.7083C25.652 40.5869 25.7182 40.4779 25.8164 40.4036L30.0514 37.1885L25.1136 40.0392C25.0076 40.101 24.8819 40.1201 24.7622 40.0927C24.6426 40.0652 24.5378 39.9932 24.4693 39.8913C24.4007 39.7895 24.3736 39.6653 24.3932 39.5441C24.4129 39.4229 24.478 39.3137 24.5752 39.2388L28.7725 35.9879L23.8367 38.8366C23.7339 38.8918 23.6146 38.9079 23.5008 38.882C23.3871 38.8561 23.2865 38.79 23.2178 38.6957C23.149 38.6015 23.1166 38.4856 23.1266 38.3693C23.1366 38.2531 23.1883 38.1444 23.2721 38.0633L25.5486 36.0227L22.8594 37.5742C22.7575 37.6329 22.6376 37.6525 22.5223 37.6293C22.407 37.606 22.3042 37.5415 22.233 37.4478C22.1619 37.3541 22.1273 37.2377 22.1359 37.1204C22.1444 37.0031 22.1954 36.8929 22.2794 36.8105L24.6071 34.533L22.5239 35.7336C22.4234 35.7911 22.3055 35.8106 22.1918 35.7884C22.0781 35.7663 21.9761 35.7041 21.9044 35.6131C21.8327 35.5221 21.7961 35.4083 21.8013 35.2926C21.8064 35.1769 21.8529 35.0668 21.9323 34.9825L23.0517 33.8013C22.9512 33.789 22.857 33.7454 22.7825 33.6767C22.7081 33.608 22.6571 33.5176 22.6368 33.4183C22.6165 33.3191 22.6279 33.2159 22.6694 33.1235C22.7109 33.0311 22.7804 32.954 22.8681 32.9032L25.2171 31.5499C25.3175 31.4931 25.435 31.4741 25.5483 31.4964C25.6615 31.5187 25.763 31.5807 25.8345 31.6713C25.906 31.762 25.9426 31.8751 25.9379 31.9905C25.9332 32.1058 25.8873 32.2156 25.8087 32.3L24.9242 33.2338L27.4481 31.7771C27.55 31.7183 27.6699 31.6987 27.7852 31.722C27.9005 31.7452 28.0034 31.8098 28.0745 31.9034C28.1457 31.9971 28.1802 32.1135 28.1717 32.2308C28.1631 32.3482 28.1121 32.4583 28.0281 32.5407L25.7004 34.8182L29.0934 32.8597C29.1962 32.8046 29.3155 32.7885 29.4292 32.8144C29.543 32.8403 29.6435 32.9064 29.7123 33.0006C29.7811 33.0949 29.8135 33.2108 29.8035 33.327C29.7935 33.4433 29.7418 33.552 29.6579 33.6331L27.3805 35.6737L34.4613 31.5876C34.5674 31.5271 34.6924 31.5089 34.8113 31.5368C34.9302 31.5647 35.0341 31.6366 35.1022 31.7379C35.1702 31.8393 35.1974 31.9627 35.1782 32.0833C35.1591 32.2039 35.0949 32.3127 34.9988 32.388L30.7976 35.6408L36.211 32.5156C36.3174 32.4537 36.4435 32.4347 36.5634 32.4626C36.6834 32.4905 36.7882 32.5631 36.8564 32.6656C36.9246 32.7681 36.9511 32.8928 36.9305 33.0142C36.9099 33.1357 36.8438 33.2446 36.7456 33.3189L32.5115 36.5331L37.1564 33.8515C37.2618 33.7909 37.3861 33.7721 37.5047 33.7991C37.6233 33.826 37.7273 33.8967 37.7961 33.997C37.8649 34.0972 37.8934 34.2197 37.8758 34.34C37.8583 34.4604 37.7961 34.5697 37.7016 34.6461L32.7832 38.5969L37.341 35.9656C37.4464 35.9061 37.5702 35.8882 37.6881 35.9155C37.806 35.9428 37.9093 36.0134 37.9777 36.1132C38.0461 36.2131 38.0745 36.3349 38.0574 36.4547C38.0403 36.5745 37.9789 36.6835 37.8853 36.7602L34.0708 39.8265L34.3347 39.6747C34.4386 39.6153 34.5608 39.5965 34.6778 39.6221C34.7947 39.6476 34.8981 39.7156 34.9677 39.813C35.0374 39.9103 35.0685 40.0301 35.0549 40.149C35.0414 40.2679 34.9842 40.3776 34.8944 40.4568L31.221 43.6748C31.232 43.7686 31.2152 43.8635 31.1727 43.9479C31.1303 44.0322 31.0641 44.1023 30.9823 44.1494L30.0475 44.6888C29.9742 44.7329 29.8904 44.7563 29.8049 44.7565Z" fill="#CD4C60"/>
<path id="Vector_8" d="M24.4719 14.971C24.3658 14.9706 24.2628 14.9353 24.1787 14.8706C24.0947 14.8059 24.0342 14.7153 24.0067 14.6128C23.9793 14.5104 23.9862 14.4017 24.0266 14.3036C24.067 14.2055 24.1386 14.1234 24.2302 14.07L25.831 13.1469C25.9415 13.0891 26.07 13.0762 26.1897 13.1109C26.3094 13.1457 26.4111 13.2253 26.4735 13.3332C26.5359 13.4412 26.5542 13.569 26.5245 13.6901C26.4949 13.8112 26.4196 13.9161 26.3144 13.983L24.7136 14.9062C24.6402 14.9489 24.5568 14.9712 24.4719 14.971Z" fill="#EABEA3"/>
<path id="Vector_9" d="M6.81342 15.6605C6.71858 15.6605 6.62584 15.6326 6.54674 15.5802C6.46764 15.5279 6.40569 15.4535 6.36859 15.3662C6.33149 15.2789 6.32089 15.1826 6.33811 15.0894C6.35533 14.9961 6.39961 14.91 6.46542 14.8417L7.25326 14.0268C7.15445 13.9873 7.07175 13.9158 7.01836 13.8238C6.95419 13.7129 6.93667 13.5811 6.96966 13.4573C7.00265 13.3335 7.08345 13.2278 7.19429 13.1636L9.28036 11.9591C9.38123 11.9015 9.49945 11.8822 9.61339 11.9047C9.72733 11.9272 9.82937 11.9899 9.90084 12.0815C9.97231 12.173 10.0084 12.2872 10.0026 12.4032C9.99676 12.5192 9.94935 12.6292 9.86906 12.7131L9.55586 13.0379L15.2524 9.75122C15.3074 9.71625 15.369 9.69277 15.4333 9.68219C15.4976 9.67161 15.5634 9.67415 15.6267 9.68966C15.69 9.70517 15.7495 9.73332 15.8017 9.77243C15.8539 9.81154 15.8976 9.8608 15.9302 9.91723C15.9628 9.97367 15.9837 10.0361 15.9915 10.1008C15.9994 10.1655 15.9941 10.2312 15.9759 10.2938C15.9578 10.3564 15.9271 10.4147 15.8858 10.4651C15.8446 10.5156 15.7935 10.5572 15.7358 10.5874L7.05702 15.5947C6.98328 15.6383 6.89908 15.661 6.81342 15.6605Z" fill="#EABEA3"/>
<path id="Vector_10" d="M14.7485 31.3585C14.6479 31.3585 14.5497 31.3271 14.4678 31.2687C14.3858 31.2103 14.3242 31.1277 14.2914 31.0326C14.2586 30.9374 14.2563 30.8344 14.2849 30.7379C14.3135 30.6414 14.3715 30.5562 14.4508 30.4943L19.1439 26.8403L12.4005 30.733C12.2916 30.7961 12.1625 30.8143 12.0405 30.7837C11.9185 30.7531 11.8132 30.6762 11.747 30.5692C11.6808 30.4623 11.659 30.3337 11.686 30.2109C11.7131 30.088 11.787 29.9806 11.892 29.9114L14.1047 28.443L11.1283 30.1598C11.0204 30.2217 10.8928 30.2397 10.7721 30.2099C10.6513 30.1801 10.5466 30.1049 10.4799 29.9999C10.4131 29.895 10.3894 29.7683 10.4137 29.6463C10.438 29.5243 10.5084 29.4163 10.6102 29.3449L18.3658 23.9451L9.50723 29.0597C9.39885 29.1215 9.27079 29.139 9.14982 29.1085C9.02885 29.078 8.92436 29.0019 8.85819 28.8962C8.79201 28.7904 8.76929 28.6632 8.79477 28.5411C8.82025 28.419 8.89196 28.3114 8.9949 28.241L16.4972 23.165L8.32887 27.8804C8.22133 27.9375 8.09619 27.952 7.97847 27.9208C7.86075 27.8897 7.75912 27.8153 7.6939 27.7124C7.62868 27.6096 7.60468 27.4859 7.6267 27.3662C7.64872 27.2464 7.71514 27.1394 7.81267 27.0665L17.3324 20.4931L7.2549 26.3057C7.14644 26.3665 7.01871 26.3832 6.89828 26.3522C6.77785 26.3213 6.67398 26.2451 6.60826 26.1396C6.54253 26.034 6.52002 25.9072 6.54539 25.7855C6.57077 25.6637 6.64208 25.5565 6.7445 25.486L11.7973 22.0949L6.6807 25.049C6.57305 25.1111 6.44563 25.1293 6.32489 25.0999C6.20416 25.0705 6.09938 24.9957 6.03233 24.8911C5.96528 24.7865 5.9411 24.6601 5.96481 24.5381C5.98852 24.4161 6.0583 24.308 6.15967 24.2361L14.0709 18.6381L6.18577 23.1882C6.07706 23.2465 5.95017 23.2611 5.83107 23.2289C5.71197 23.1967 5.60969 23.1202 5.54519 23.0151C5.48068 22.9099 5.45883 22.784 5.48411 22.6633C5.50939 22.5425 5.57989 22.436 5.68117 22.3656L6.12873 22.0756L6.0717 22.1075C5.96324 22.1683 5.83551 22.1849 5.71508 22.154C5.59465 22.123 5.49078 22.0469 5.42506 21.9413C5.35933 21.8358 5.33682 21.709 5.36219 21.5872C5.38757 21.4655 5.45888 21.3582 5.5613 21.2877L7.7566 19.8165L4.95327 21.4376C4.846 21.4991 4.71921 21.5172 4.59901 21.4881C4.4788 21.4591 4.37432 21.385 4.30706 21.2812C4.23981 21.1774 4.2149 21.0518 4.23747 20.9302C4.26003 20.8086 4.32835 20.7003 4.42837 20.6275L9.91323 16.6709L3.61637 20.3056C3.50887 20.3669 3.38194 20.3847 3.26174 20.3552C3.14154 20.3257 3.03723 20.2512 2.97031 20.1471C2.90339 20.043 2.87895 19.9172 2.90203 19.7956C2.92511 19.674 2.99395 19.5659 3.09437 19.4936L7.85907 16.0977L3.17557 18.8044C3.07578 18.8612 2.95904 18.8806 2.84624 18.8591C2.73345 18.8377 2.63196 18.7768 2.55997 18.6874C2.48798 18.5979 2.45017 18.4858 2.45333 18.371C2.45649 18.2562 2.5004 18.1463 2.5772 18.061L4.01947 16.4786L3.1746 16.9619C3.08103 17.016 2.97201 17.0372 2.86497 17.0221C2.75794 17.007 2.65905 16.9565 2.58413 16.8785C2.50921 16.8006 2.46257 16.6998 2.45168 16.5923C2.44079 16.4847 2.46626 16.3766 2.52403 16.2852L3.37083 14.9396C3.25864 14.9757 3.13714 14.9695 3.02919 14.9223C2.92123 14.875 2.83426 14.7899 2.78462 14.6831C2.73498 14.5762 2.7261 14.4549 2.75964 14.3419C2.79318 14.2289 2.86684 14.1321 2.96677 14.0696L4.56467 13.1465C4.65824 13.0923 4.76725 13.0711 4.87429 13.0862C4.98133 13.1014 5.08021 13.1519 5.15514 13.2298C5.23006 13.3078 5.27669 13.4086 5.28759 13.5161C5.29848 13.6237 5.27301 13.7318 5.21523 13.8231L4.3781 15.1513L6.22733 14.088C6.32723 14.0306 6.44435 14.0107 6.5576 14.032C6.67084 14.0533 6.77274 14.1144 6.84494 14.2042C6.91713 14.294 6.95487 14.4066 6.95134 14.5218C6.94781 14.637 6.90325 14.7471 6.8257 14.8323L5.38343 16.4109L16.1231 10.2107C16.2304 10.1514 16.3562 10.1351 16.4751 10.1651C16.5939 10.195 16.697 10.2691 16.7633 10.3721C16.8297 10.4752 16.8544 10.5997 16.8324 10.7203C16.8105 10.8409 16.7435 10.9486 16.6451 11.0217L11.8775 14.4196L17.6775 11.072C17.7848 11.0104 17.9116 10.9923 18.0318 11.0214C18.152 11.0505 18.2564 11.1246 18.3237 11.2284C18.391 11.3322 18.4159 11.4578 18.3933 11.5794C18.3707 11.701 18.3024 11.8093 18.2024 11.8821L12.7214 15.8357L19.8477 11.7216C19.9562 11.6587 20.085 11.6404 20.2067 11.6707C20.3285 11.701 20.4337 11.7775 20.5001 11.884C20.5665 11.9904 20.5889 12.1185 20.5626 12.2412C20.5363 12.3639 20.4633 12.4715 20.359 12.5413L18.1666 14.0097L21.577 12.0406C21.6861 11.9772 21.8157 11.9589 21.9381 11.9897C22.0604 12.0206 22.1659 12.098 22.2319 12.2056C22.2979 12.3131 22.3193 12.4422 22.2914 12.5653C22.2635 12.6884 22.1885 12.7956 22.0826 12.8642L21.6273 13.16L22.6558 12.5665C22.7636 12.5023 22.892 12.4825 23.014 12.5112C23.1361 12.54 23.2422 12.615 23.3099 12.7205C23.3777 12.8261 23.4018 12.9538 23.3771 13.0767C23.3525 13.1996 23.281 13.3082 23.1778 13.3794L15.2666 18.9774L23.7404 14.0841C23.8489 14.0233 23.9766 14.0067 24.0971 14.0376C24.2175 14.0686 24.3214 14.1447 24.3871 14.2503C24.4528 14.3558 24.4753 14.4826 24.4499 14.6044C24.4246 14.7261 24.3533 14.8334 24.2508 14.9039L19.1961 18.2959L27.1837 13.6839C27.2917 13.623 27.419 13.6058 27.5392 13.6361C27.6595 13.6663 27.7635 13.7416 27.8298 13.8464C27.8961 13.9512 27.9196 14.0774 27.8954 14.199C27.8712 14.3207 27.8012 14.4283 27.6999 14.4998L18.1792 21.078L27.7618 15.5457C27.8701 15.484 27.9982 15.4665 28.1192 15.497C28.2401 15.5275 28.3446 15.6035 28.4108 15.7093C28.477 15.815 28.4997 15.9423 28.4742 16.0644C28.4487 16.1865 28.377 16.294 28.2741 16.3645L20.7737 21.4385L27.7618 17.4046C27.8697 17.3427 27.9973 17.3248 28.118 17.3546C28.2388 17.3843 28.3435 17.4595 28.4102 17.5645C28.477 17.6695 28.5007 17.7961 28.4764 17.9181C28.4521 18.0402 28.3817 18.1481 28.2799 18.2195L20.5176 23.6242L27.0116 19.8764C27.1203 19.8146 27.2486 19.7973 27.3697 19.8281C27.4909 19.8589 27.5953 19.9354 27.6613 20.0416C27.7272 20.1478 27.7494 20.2754 27.7233 20.3976C27.6971 20.5198 27.6246 20.6272 27.5211 20.6971L24.884 22.4477C24.9897 22.4315 25.0977 22.4508 25.1913 22.5025C25.2848 22.5542 25.3586 22.6355 25.401 22.7336C25.4434 22.8317 25.4521 22.9412 25.4258 23.0448C25.3994 23.1483 25.3394 23.2403 25.2552 23.3061L20.564 26.9592L23.9009 25.0365C24.0051 24.9764 24.128 24.9574 24.2456 24.9831C24.3631 25.0089 24.4668 25.0775 24.5364 25.1756C24.606 25.2738 24.6365 25.3943 24.6219 25.5137C24.6074 25.6332 24.5488 25.7429 24.4577 25.8214L22.0836 27.864C22.1818 27.8802 22.2726 27.9264 22.3436 27.9962C22.4146 28.066 22.4623 28.1561 22.4802 28.2541C22.4981 28.352 22.4853 28.4531 22.4435 28.5435C22.4018 28.6339 22.3331 28.7092 22.2469 28.7591L18.5475 30.8945C18.4434 30.9534 18.3212 30.9716 18.2044 30.9456C18.0877 30.9196 17.9847 30.8512 17.9154 30.7537C17.8462 30.6562 17.8155 30.5364 17.8294 30.4176C17.8433 30.2988 17.9008 30.1894 17.9907 30.1105L19.9124 28.4498L14.9824 31.2937C14.9114 31.3352 14.8308 31.3575 14.7485 31.3585Z" fill="#EABEA3"/>
<path id="Vector_11" d="M42.6916 37.0696C42.5947 37.0698 42.4999 37.0409 42.4196 36.9866C42.3393 36.9323 42.2772 36.8551 42.2414 36.765C42.2055 36.675 42.1976 36.5762 42.2186 36.4816C42.2395 36.387 42.2885 36.3008 42.3591 36.2344L43.0628 35.5683L41.7559 36.3223C41.6515 36.3828 41.5282 36.4021 41.4103 36.3764C41.2925 36.3506 41.1885 36.2817 41.1188 36.1831C41.0492 36.0843 41.0191 35.963 41.0345 35.8432C41.0499 35.7233 41.1096 35.6135 41.202 35.5355L41.9666 34.8878L41.1043 35.3847C41.0036 35.4429 40.8854 35.4628 40.7712 35.4408C40.657 35.4189 40.5545 35.3564 40.4826 35.265C40.4107 35.1736 40.3742 35.0594 40.3797 34.9432C40.3852 34.827 40.4325 34.7168 40.5127 34.6326L42.5108 32.5417L40.8675 33.4881C40.7664 33.5464 40.6476 33.5662 40.5331 33.5438C40.4186 33.5213 40.316 33.4582 40.2444 33.3661C40.1728 33.274 40.1369 33.159 40.1434 33.0425C40.1499 32.926 40.1983 32.8157 40.2798 32.7321L40.5997 32.4035C40.4974 32.3985 40.3994 32.3605 40.3204 32.2952C40.2443 32.2332 40.189 32.1494 40.1617 32.0551C40.1344 31.9608 40.1365 31.8605 40.1676 31.7674L40.3735 31.1507C40.3053 31.1089 40.2485 31.0507 40.2082 30.9815C40.1763 30.9266 40.1554 30.866 40.1469 30.803C40.1384 30.7401 40.1424 30.6761 40.1587 30.6146C40.1749 30.5532 40.2031 30.4956 40.2416 30.4451C40.2802 30.3946 40.3283 30.3522 40.3832 30.3203L40.8665 30.038C40.9515 29.9885 41.0495 29.966 41.1476 29.9736C41.2456 29.9812 41.339 30.0186 41.4153 30.0807C41.4915 30.1428 41.5471 30.2266 41.5744 30.3211C41.6018 30.4156 41.5996 30.5161 41.5683 30.6093L41.4823 30.8655L42.9323 30.0274C43.0334 29.9691 43.1522 29.9493 43.2667 29.9717C43.3812 29.9942 43.4838 30.0573 43.5554 30.1494C43.627 30.2415 43.6629 30.3565 43.6564 30.473C43.6499 30.5895 43.6015 30.6998 43.52 30.7833L43.3992 30.908L44.9401 30.0187C45.0407 29.9612 45.1587 29.9418 45.2725 29.9641C45.3863 29.9863 45.4883 30.0487 45.5599 30.1399C45.6315 30.2311 45.668 30.3449 45.6626 30.4608C45.6572 30.5766 45.6104 30.6866 45.5307 30.7708L43.5326 32.8617L46.13 31.3682C46.2346 31.3074 46.3582 31.2881 46.4764 31.314C46.5945 31.3399 46.6987 31.4091 46.7683 31.5081C46.8378 31.6071 46.8678 31.7285 46.8522 31.8485C46.8365 31.9684 46.7765 32.0782 46.6839 32.156L45.9193 32.8037L46.13 32.6828C46.2324 32.6252 46.3523 32.6068 46.4672 32.6312C46.5822 32.6555 46.6843 32.7209 46.7546 32.815C46.8248 32.9092 46.8584 33.0258 46.8489 33.1429C46.8395 33.26 46.7877 33.3696 46.7033 33.4513L46.0005 34.1174L46.0459 34.0922C46.1564 34.0345 46.2849 34.0216 46.4046 34.0563C46.5244 34.0911 46.626 34.1707 46.6884 34.2786C46.7508 34.3866 46.7691 34.5144 46.7394 34.6355C46.7098 34.7566 46.6345 34.8615 46.5293 34.9284L42.9333 37.0038C42.8601 37.047 42.7766 37.0697 42.6916 37.0696Z" fill="#925C4C"/>
<path id="Vector_12" d="M51.5402 16.9055C51.4342 16.9051 51.3311 16.8699 51.2471 16.8051C51.163 16.7404 51.1026 16.6499 51.0751 16.5474C51.0476 16.4449 51.0546 16.3363 51.095 16.2382C51.1354 16.1401 51.2069 16.058 51.2986 16.0046L52.9023 15.0785C53.0127 15.0207 53.1413 15.0078 53.261 15.0426C53.3807 15.0773 53.4824 15.157 53.5448 15.2649C53.6072 15.3728 53.6254 15.5007 53.5958 15.6218C53.5661 15.7428 53.4908 15.8478 53.3856 15.9147L51.7819 16.8407C51.7085 16.8834 51.6251 16.9058 51.5402 16.9055Z" fill="#A9725E"/>
<path id="Vector_13" d="M41.4443 13.63C41.3379 13.63 41.2344 13.5949 41.15 13.5301C41.0656 13.4653 41.0049 13.3745 40.9774 13.2718C40.9499 13.169 40.957 13.06 40.9977 12.9617C41.0384 12.8634 41.1104 12.7813 41.2026 12.7281L43.7903 11.2317C43.8454 11.1967 43.9069 11.1732 43.9712 11.1627C44.0355 11.1521 44.1013 11.1546 44.1646 11.1701C44.228 11.1856 44.2875 11.2138 44.3396 11.2529C44.3918 11.292 44.4355 11.3413 44.4681 11.3977C44.5007 11.4541 44.5216 11.5166 44.5295 11.5813C44.5373 11.646 44.532 11.7116 44.5138 11.7743C44.4957 11.8369 44.465 11.8951 44.4238 11.9456C44.3825 11.9961 44.3314 12.0376 44.2737 12.0679L41.6898 13.5604C41.6157 13.6052 41.5309 13.6292 41.4443 13.63Z" fill="#A9725E"/>
<path id="Vector_14" d="M42.8228 31.36C42.723 31.3599 42.6257 31.329 42.5442 31.2713C42.4627 31.2137 42.401 31.1323 42.3677 31.0382C42.3343 30.9442 42.3309 30.8421 42.3579 30.746C42.3848 30.6499 42.4409 30.5645 42.5183 30.5016L46.9795 26.9017L40.4506 30.6717C40.3419 30.7363 40.2122 30.7557 40.0893 30.7257C39.9664 30.6958 39.8602 30.6188 39.7934 30.5114C39.7266 30.404 39.7045 30.2747 39.732 30.1512C39.7595 30.0278 39.8342 29.92 39.9402 29.851L41.8107 28.6079L39.2655 30.0734C39.1582 30.134 39.0317 30.1514 38.912 30.1218C38.7922 30.0923 38.6883 30.0181 38.6215 29.9145C38.5547 29.8109 38.53 29.6856 38.5525 29.5644C38.575 29.4431 38.643 29.3351 38.7425 29.2623L46.7262 23.5503L37.6347 28.7993C37.526 28.8639 37.3963 28.8833 37.2734 28.8533C37.1505 28.8233 37.0443 28.7464 36.9775 28.639C36.9107 28.5316 36.8886 28.4023 36.9161 28.2788C36.9436 28.1553 37.0183 28.0476 37.1243 27.9786L42.0659 24.6919L36.7444 27.764C36.6371 27.8247 36.5106 27.842 36.3909 27.8125C36.2712 27.7829 36.1673 27.7088 36.1004 27.6051C36.0336 27.5015 36.0089 27.3762 36.0314 27.255C36.0539 27.1338 36.1219 27.0257 36.2215 26.953L42.8412 22.2037L35.8512 26.2396C35.7424 26.3026 35.6133 26.3208 35.4913 26.2903C35.3693 26.2597 35.264 26.1827 35.1978 26.0758C35.1316 25.9688 35.1097 25.8402 35.1368 25.7174C35.1639 25.5946 35.2378 25.4871 35.3428 25.4179L37.367 24.0704L35.453 25.1762C35.3447 25.2391 35.2162 25.2574 35.0946 25.2275C34.9731 25.1975 34.8679 25.1215 34.8012 25.0155C34.7346 24.9095 34.7116 24.7818 34.7373 24.6592C34.7629 24.5366 34.8351 24.4288 34.9387 24.3584L39.0954 21.5213L35.1514 23.7978C35.0434 23.8587 34.9161 23.8759 34.7959 23.8456C34.6756 23.8154 34.5716 23.7401 34.5053 23.6353C34.439 23.5305 34.4155 23.4043 34.4397 23.2826C34.4639 23.161 34.5338 23.0534 34.6352 22.9819L39.107 19.8886L34.4747 22.5633C34.3663 22.6251 34.2383 22.6426 34.1173 22.6121C33.9963 22.5816 33.8918 22.5055 33.8257 22.3998C33.7595 22.294 33.7368 22.1668 33.7623 22.0447C33.7877 21.9226 33.8594 21.815 33.9624 21.7446L36.6217 19.9437L33.1745 21.9331C33.0669 21.9951 32.9395 22.0134 32.8187 21.984C32.698 21.9545 32.5932 21.8798 32.5262 21.7752C32.4591 21.6705 32.4349 21.5441 32.4587 21.4221C32.4824 21.3001 32.5522 21.192 32.6535 21.1201L37.5062 17.6904L32.3306 20.6783C32.2315 20.7352 32.1154 20.7552 32.003 20.7346C31.8906 20.714 31.7891 20.6543 31.7165 20.566C31.644 20.4777 31.6051 20.3665 31.6067 20.2522C31.6084 20.1379 31.6504 20.0279 31.7255 19.9417L33.1707 18.2887L32.1731 18.8687C32.0795 18.9224 31.9707 18.9432 31.8639 18.9279C31.7572 18.9126 31.6586 18.862 31.5839 18.7842C31.5092 18.7064 31.4627 18.6058 31.4517 18.4985C31.4408 18.3912 31.466 18.2833 31.5235 18.1921L32.3538 16.8919C32.2489 16.9235 32.1365 16.9189 32.0344 16.8789C31.9324 16.839 31.8468 16.7659 31.7912 16.6715C31.7274 16.5607 31.71 16.4291 31.743 16.3055C31.776 16.1819 31.8566 16.0765 31.9672 16.0122L33.5718 15.0862C33.6654 15.0329 33.774 15.0125 33.8805 15.028C33.987 15.0435 34.0853 15.0941 34.1598 15.1718C34.2343 15.2495 34.2807 15.3498 34.2917 15.4569C34.3027 15.5639 34.2776 15.6716 34.2205 15.7628L33.4046 17.0417L35.2123 15.9977C35.3114 15.9408 35.4275 15.9209 35.5399 15.9414C35.6523 15.962 35.7539 16.0218 35.8264 16.1101C35.899 16.1984 35.9379 16.3096 35.9362 16.4238C35.9346 16.5381 35.8925 16.6481 35.8174 16.7343L34.3722 18.3883L46.094 11.6216C46.2015 11.5618 46.3277 11.5452 46.447 11.5751C46.5662 11.6051 46.6696 11.6794 46.736 11.7829C46.8024 11.8864 46.8269 12.0113 46.8044 12.1322C46.782 12.2531 46.7142 12.3609 46.6151 12.4336L41.7595 15.8585L47.7857 12.3785C47.8939 12.3192 48.0206 12.3035 48.1399 12.3346C48.2592 12.3657 48.3622 12.4412 48.4276 12.5458C48.4931 12.6503 48.5162 12.7758 48.4921 12.8968C48.468 13.0177 48.3986 13.1249 48.298 13.1963L45.6368 14.9992L48.8191 13.1625C48.9271 13.1015 49.0543 13.0844 49.1746 13.1146C49.2948 13.1449 49.3989 13.2202 49.4652 13.3249C49.5315 13.4297 49.555 13.556 49.5308 13.6776C49.5066 13.7992 49.4366 13.9069 49.3353 13.9784L44.8712 17.0717L49.7645 14.2461C49.8729 14.1799 50.003 14.1591 50.1267 14.188C50.2503 14.217 50.3576 14.2935 50.4253 14.401C50.493 14.5084 50.5157 14.6383 50.4885 14.7623C50.4612 14.8864 50.3862 14.9947 50.2797 15.0639L46.1153 17.904L50.4373 15.409C50.5461 15.3459 50.6752 15.3277 50.7972 15.3583C50.9193 15.3889 51.0245 15.4659 51.0907 15.5728C51.1569 15.6798 51.1788 15.8083 51.1517 15.9312C51.1247 16.054 51.0508 16.1615 50.9457 16.2307L48.9322 17.5676L50.8375 16.4675C50.9448 16.4069 51.0713 16.3895 51.191 16.419C51.3108 16.4486 51.4147 16.5227 51.4815 16.6264C51.5483 16.73 51.573 16.8553 51.5505 16.9765C51.528 17.0978 51.46 17.2058 51.3604 17.2786L44.7359 22.0307L54.6925 16.2848C54.801 16.224 54.9287 16.2074 55.0492 16.2383C55.1696 16.2692 55.2735 16.3454 55.3392 16.451C55.4049 16.5565 55.4274 16.6833 55.4021 16.8051C55.3767 16.9268 55.3054 17.0341 55.2029 17.1046L50.2662 20.397L54.8317 17.7609C54.9391 17.7003 55.0656 17.6829 55.1853 17.7124C55.305 17.742 55.4089 17.8161 55.4758 17.9198C55.5426 18.0234 55.5673 18.1487 55.5448 18.2699C55.5223 18.3912 55.4543 18.4992 55.3547 18.572L47.3662 24.2801L54.5514 20.1322C54.66 20.0704 54.7884 20.0531 54.9095 20.0839C55.0306 20.1147 55.1351 20.1912 55.201 20.2974C55.267 20.4036 55.2892 20.5312 55.263 20.6534C55.2369 20.7756 55.1644 20.8829 55.0608 20.9529L52.1173 22.9104C52.2146 22.9164 52.3077 22.9517 52.3844 23.0116C52.4612 23.0715 52.5182 23.1532 52.5477 23.246C52.5773 23.3388 52.5782 23.4383 52.5502 23.5316C52.5222 23.6249 52.4667 23.7076 52.3909 23.7688L47.9375 27.3677L51.0733 25.5571C51.1795 25.4938 51.3058 25.4736 51.4264 25.5005C51.547 25.5275 51.6527 25.5996 51.7217 25.7021C51.7908 25.8046 51.818 25.9296 51.7977 26.0515C51.7774 26.1734 51.7112 26.2829 51.6128 26.3575L50.1173 27.5243C50.2071 27.5523 50.2867 27.6058 50.3465 27.6784C50.4063 27.751 50.4436 27.8395 50.4539 27.9329C50.4641 28.0264 50.4469 28.1208 50.4043 28.2047C50.3617 28.2885 50.2955 28.3581 50.214 28.4049L45.4715 31.1425C45.3656 31.2039 45.2402 31.2227 45.1209 31.1953C45.0016 31.1678 44.8971 31.0961 44.8286 30.9946C44.7602 30.8931 44.7327 30.7693 44.752 30.6484C44.7712 30.5275 44.8355 30.4183 44.9321 30.3431L45.5546 29.8597L43.0635 31.2972C42.9903 31.3391 42.9072 31.3608 42.8228 31.36Z" fill="#A9725E"/>
<path id="Vector_15" d="M0.483294 48.0289C0.166228 53.9256 -0.832339 58.5105 7.03923 57.5689H19.1622C22.5678 57.392 28.0043 59.0605 29.928 55.363C31.5578 58.8991 36.5332 57.4665 39.6555 57.5767H50.9327C52.7316 57.5767 54.9124 57.9392 56.3663 56.6245C58.1256 55.0343 57.5041 51.768 57.5041 49.7128C58.2958 41.5271 56.1875 34.3554 46.9732 33.3288C46.9732 32.3621 47.0003 31.3819 46.9452 30.4288C48.5297 29.8044 49.9057 28.7452 50.9147 27.3731C51.9237 26.001 52.5247 24.3719 52.6485 22.6732C55.4673 22.2199 55.997 19.0444 55.5156 16.6799C55.3784 11.5372 53.5823 7.66959 49.7214 5.70436C49.9505 -1.34361 36.8319 -1.10775 37.2514 5.70436C33.3277 7.72179 31.581 11.7315 31.4717 16.9651C31.4132 17.1572 31.3886 17.358 31.3992 17.5586C31.0677 19.7442 31.7124 22.4886 34.3166 22.7138C34.3674 24.4476 34.9394 26.1258 35.9579 27.5297C36.9764 28.9336 38.3943 29.9981 40.0267 30.5844C40.0209 31.5115 39.9968 32.4443 40.0267 33.3713C39.2534 33.4243 38.4873 33.5538 37.7396 33.758C36.1929 30.743 32.0788 30.9614 29.9628 33.178C27.8864 30.9295 23.807 30.7884 22.2101 33.6613C21.097 33.4083 19.9586 33.2834 18.8171 33.2892C18.8799 32.4617 18.8587 31.6072 18.8471 30.8309C20.7236 30.1492 22.3584 28.9311 23.5484 27.328C24.7384 25.7248 25.431 23.8074 25.5403 21.8139C28.6626 21.549 28.6181 17.9143 28.4509 15.5151C28.5176 10.2893 28.3687 4.89139 22.3725 4.32299C26.3242 -0.574145 17.1921 0.323888 13.5169 0.395422C9.56996 0.472755 6.01456 1.87442 3.90336 5.39889C2.04929 8.48546 2.46883 12.0969 2.45336 15.5334C2.37023 18.0796 2.36636 21.2493 5.38139 21.7704C5.49175 23.7745 6.18467 25.7028 7.37517 27.3188C8.56566 28.9348 10.2019 30.1682 12.0833 30.8677C12.0833 31.6855 12.0659 32.511 12.0775 33.3259C3.46643 33.6246 0.483294 40.2782 0.483294 48.0289ZM43.4574 1.56992C45.5367 1.56992 48.6281 2.89522 48.8563 5.29546C47.1202 4.61247 45.2688 4.27016 43.4033 4.28722V4.26306C41.6025 4.29251 39.8211 4.64073 38.1417 5.29159C38.2867 2.87976 41.4236 1.56799 43.4574 1.56992ZM43.3743 5.41339C50.4986 5.66569 53.911 9.35642 54.5432 15.3343C54.0356 15.0236 53.4318 14.9096 52.8459 15.014C52.2601 15.1184 51.7328 15.4339 51.3638 15.9008C50.2396 13.1032 47.2294 10.849 44.1844 11.1148C42.6184 11.2511 41.3511 12.6305 40.1582 13.5315L36.1456 16.5658C36.024 16.2049 35.8164 15.8789 35.5406 15.6162C35.2649 15.3534 34.9293 15.1617 34.5629 15.0577C34.1965 14.9537 33.8103 14.9404 33.4376 15.0191C33.0649 15.0978 32.717 15.266 32.4239 15.5093C32.9575 9.46276 36.2896 5.67826 43.3743 5.41339ZM35.3065 22.0275C35.3083 21.9512 35.28 21.8773 35.2277 21.8218C35.1754 21.7662 35.1034 21.7335 35.0271 21.7307C34.3333 21.7295 33.6682 21.4536 33.1772 20.9635C32.6861 20.4733 32.409 19.8087 32.4065 19.1149C32.3833 18.5195 32.3997 17.9172 32.4065 17.3208C32.5157 15.315 35.1634 15.8244 35.2601 17.6108C35.2572 17.6472 35.2617 17.6838 35.2734 17.7184C35.2852 17.7529 35.3038 17.7848 35.3282 17.8119C35.3527 17.8391 35.3823 17.8609 35.4155 17.8762C35.4487 17.8915 35.4846 17.8999 35.5211 17.9008C37.9967 16.7408 40.1901 13.6958 42.8146 12.6189C46.1119 11.0297 50.1468 14.2922 50.7268 17.606C50.7404 17.6706 50.7704 17.7307 50.8139 17.7804C50.8574 17.8302 50.9129 17.868 50.9752 17.8902C51.0374 17.9124 51.1043 17.9183 51.1694 17.9073C51.2346 17.8963 51.2959 17.8687 51.3474 17.8273C51.4495 17.7819 51.5389 17.7119 51.6074 17.6235C51.6758 17.5351 51.7214 17.4311 51.7398 17.3208C51.8491 15.315 54.4968 15.8244 54.5934 17.6108C54.7442 19.3962 54.5577 21.694 52.2657 21.7298C52.1199 21.7535 51.9856 21.8234 51.8826 21.9292C51.7796 22.035 51.7133 22.1711 51.6934 22.3175C50.9733 33.2138 35.842 32.8087 35.3065 22.0275ZM45.8432 30.7971C45.9079 32.8087 46.2627 35.932 43.6904 36.2617C40.7614 36.6367 41.1026 32.946 41.1587 30.9092C42.7068 31.2458 44.3129 31.2073 45.8432 30.7971ZM40.1205 34.3448C40.7672 37.9485 46.2472 38.1534 46.8872 34.4414C56.6631 35.4845 56.5616 44.3981 56.5616 52.1034C56.5616 55.7854 54.3498 56.4911 51.7012 56.5646V46.3179C51.7012 45.561 50.7635 45.8742 50.7635 46.4803V56.5675C46.0394 56.2272 41.1171 57.1214 36.2103 56.8149V46.4426C36.2103 45.7785 35.321 45.5997 35.321 46.3575V56.7434C33.0803 56.6622 31.0522 55.4867 30.5843 53.3233C31.0735 50.5403 30.5215 47.04 30.4616 44.6997L37.0281 38.5072C37.5067 37.9947 37.8519 37.3724 38.0333 36.6951C38.2147 36.0178 38.2267 35.3062 38.0683 34.6232C38.7406 34.4651 39.4265 34.3719 40.1166 34.3448H40.1205ZM27.693 32.657C28.68 32.8097 29.464 34.8958 30.4616 34.0799C33.2736 30.3969 39.5289 34.0722 36.0412 38.0432L29.9666 43.7717L25.1468 39.2284C24.1802 38.3216 23.0772 37.5087 22.8945 36.0944C22.5494 33.4361 25.1923 31.7908 27.693 32.657ZM3.34076 10.557C3.82409 4.87786 7.66853 1.79709 13.0297 1.53802C15.0191 1.79999 25.3266 0.157622 21.0385 4.37422C19.5208 7.03159 27.6399 2.46602 27.5761 13.7248C27.3541 13.4998 27.0873 13.324 26.7928 13.2091C26.4984 13.0941 26.1831 13.0426 25.8674 13.0577C25.5517 13.0728 25.2428 13.1544 24.9607 13.297C24.6786 13.4396 24.4298 13.64 24.2304 13.8853C23.4484 12.0148 21.401 11.7306 19.6349 11.4512C18.4053 11.1845 17.2499 10.6491 16.2516 9.88326C16.0175 9.68555 15.7218 9.57573 15.4155 9.57273C15.1091 9.56973 14.8113 9.67374 14.5734 9.86682C12.3501 12.1327 7.92759 10.7368 6.60713 13.9587C6.41549 13.7164 6.17781 13.5145 5.90777 13.3645C5.63774 13.2145 5.34069 13.1194 5.03374 13.0847C4.72679 13.05 4.41601 13.0764 4.11931 13.1624C3.82261 13.2484 3.54586 13.3922 3.30499 13.5856C3.26025 12.5762 3.27219 11.5651 3.34076 10.557ZM6.24656 21.287C6.24656 21.0396 6.01166 20.6964 5.74293 20.6964C3.47416 20.5301 3.34656 18.707 3.34656 16.937C3.31659 16.4838 3.31659 16.0292 3.34656 15.576C3.56406 13.9935 6.10929 13.3459 6.32003 15.4426C6.31449 15.5113 6.323 15.5805 6.34502 15.646C6.36704 15.7114 6.40212 15.7716 6.44813 15.823C6.49415 15.8745 6.55013 15.916 6.61269 15.9452C6.67525 15.9743 6.74308 15.9905 6.81206 15.9926C7.03923 16.0206 7.25189 15.8698 7.21323 15.487C7.21323 13.2637 9.41626 13.0133 11.0441 12.6586C12.5283 12.3904 13.928 11.7754 15.1293 10.8635C15.234 10.7639 15.3721 10.7071 15.5166 10.704C15.6611 10.701 15.8015 10.752 15.9103 10.847C17.1143 11.7599 18.5159 12.3772 20.0022 12.6489C21.6523 13.0153 23.72 13.2347 23.72 15.4426C23.7148 15.5106 23.7232 15.5791 23.7448 15.6439C23.7663 15.7087 23.8007 15.7685 23.8457 15.8198C23.8907 15.8711 23.9456 15.913 24.007 15.9428C24.0684 15.9726 24.1352 15.9899 24.2034 15.9936C24.3967 16.0438 24.5813 15.9607 24.6142 15.632C24.6115 15.2481 24.7572 14.8779 25.0207 14.5987C25.2842 14.3194 25.6453 14.1527 26.0288 14.1331C26.4123 14.1135 26.7885 14.2427 27.0791 14.4937C27.3696 14.7446 27.5522 15.098 27.5886 15.4803C27.6118 17.5209 27.9105 20.68 25.0028 20.7167C24.8414 20.7061 24.7051 20.8134 24.6896 21.0976C24.6605 22.5179 24.3101 23.9132 23.6645 25.1787C23.0189 26.4441 22.095 27.5469 20.9621 28.4041C19.8293 29.2613 18.5169 29.8508 17.1236 30.1281C15.7303 30.4054 14.2923 30.3635 12.9175 30.0054C12.8689 29.9746 12.8114 29.961 12.7542 29.9667C10.8881 29.3994 9.25133 28.2524 8.08119 26.6921C6.91106 25.1317 6.26845 23.2392 6.24656 21.289V21.287ZM15.5266 31.4999C16.3274 31.4557 17.1216 31.3297 17.8968 31.1238C17.9452 33.2553 18.1772 36.8687 15.0036 36.1196C12.8044 35.6014 12.9465 33.0949 13.0248 31.1615C13.8397 31.3816 14.6796 31.496 15.5237 31.5018L15.5266 31.4999ZM12.1432 34.3805C12.2485 35.1706 12.6368 35.8957 13.2361 36.4212C13.8353 36.9467 14.6049 37.237 15.402 37.2382C16.1991 37.2394 16.9695 36.9514 17.5703 36.4276C18.1712 35.9039 18.5616 35.18 18.6692 34.3902C19.7175 34.3821 20.7634 34.493 21.7867 34.7208C21.0317 37.3202 23.6089 39.2767 25.3324 40.7847L29.4833 44.6987C29.4698 47.1154 28.8492 50.5954 29.3451 53.4616C29.1114 54.4829 28.5049 55.3802 27.6443 55.9777C26.7837 56.5753 25.7311 56.8301 24.6925 56.6922V46.2415C24.6925 45.5794 23.6446 46.0134 23.6446 46.5586V56.6661C18.125 56.3103 12.8373 56.5066 7.33406 56.6661V46.3227C7.33406 45.705 6.20306 45.9254 6.20306 46.4813V56.6158C0.272561 56.5752 1.21506 49.3629 1.44996 45.0467C1.85886 38.7286 5.76613 34.5197 12.1423 34.3825L12.1432 34.3805Z" fill="#262626"/>
<path id="Vector_16" d="M19.6543 24.4569C20.1096 23.904 19.4745 23.3085 19.0114 23.8702C18.5872 24.3997 18.0469 24.8247 17.4325 25.1125C16.818 25.4003 16.1456 25.5432 15.4672 25.5301C14.7888 25.517 14.1224 25.3484 13.5195 25.0371C12.9166 24.7259 12.3931 24.2803 11.9896 23.7348C11.63 23.2989 10.8373 24.1418 11.2075 24.5913C11.7228 25.219 12.3731 25.7223 13.11 26.0636C13.8469 26.4049 14.6513 26.5755 15.4633 26.5626C16.2753 26.5497 17.0739 26.3536 17.7996 25.989C18.5253 25.6244 19.1592 25.1007 19.6543 24.4569Z" fill="#262626"/>
<path id="Vector_17" d="M45.8338 26.3003C46.3172 25.7126 45.4472 25.3994 45.0334 25.9011C44.8361 26.1179 44.5925 26.2875 44.3207 26.3973C44.0488 26.507 43.7558 26.5541 43.4632 26.5351C43.1707 26.516 42.8862 26.4313 42.6309 26.2873C42.3756 26.1432 42.156 25.9435 41.9884 25.7029C41.624 25.2602 40.7733 26.048 41.1445 26.4975C41.4383 26.8411 41.8064 27.1135 42.2209 27.2939C42.6354 27.4744 43.0855 27.5583 43.5371 27.5393C43.9888 27.5203 44.4303 27.3989 44.8281 27.1843C45.226 26.9696 45.5699 26.6674 45.8338 26.3003Z" fill="#262626"/>
</g>
<defs>
<clipPath id="clip0_14_738">
<rect width="58" height="58" fill="white"/>
</clipPath>
</defs>
</svg>
