<svg width="60" height="60" viewBox="0 0 60 60" fill="none" xmlns="http://www.w3.org/2000/svg">
<g id="teacher (1)">
<g id="Group">
<g id="Group_2">
<path id="Vector" d="M37.0056 32.2773H22.9949C18.4958 32.2773 15.3022 27.8931 16.682 23.6108L19.01 16.3853H40.9907L43.3187 23.6108C44.6982 27.8931 41.5046 32.2773 37.0056 32.2773Z" fill="#7C3108"/>
</g>
<g id="Group_3">
<g id="Group_4">
<g id="Group_5">
<g id="Group_6">
<g id="Group_7">
<g id="Group_8">
<path id="Vector_2" d="M46.7137 44.105V51.0659C46.7137 52.362 45.6637 53.4097 44.3699 53.4097H15.6309C14.3371 53.4097 13.2871 52.362 13.2871 51.0659V44.105C13.2871 38.9276 17.4848 34.73 22.6621 34.73H37.3387C42.516 34.73 46.7137 38.9276 46.7137 44.105Z" fill="#F79219"/>
</g>
<g id="Group_9">
<path id="Vector_3" d="M39.0173 34.8809C40.8672 36.5934 42.0252 39.0424 42.0252 41.7619V48.7228C42.0252 50.0173 40.9759 51.0666 39.6815 51.0666H13.2871C13.2871 52.361 14.3364 53.4103 15.6309 53.4103H44.369C45.6634 53.4103 46.7127 52.361 46.7127 51.0666V44.1056C46.7127 39.5016 43.3935 35.6726 39.0173 34.8809Z" fill="#EF7816"/>
</g>
</g>
<g id="Group_10">
<g id="Group_11">
<path id="Vector_4" d="M27.3065 29.7061V36.3724C27.3065 36.888 27.4546 37.3931 27.7331 37.8271C28.7929 39.479 31.2072 39.479 32.2671 37.8271C32.5455 37.3931 32.6936 36.8882 32.6936 36.3724V29.7063L27.3065 29.7061Z" fill="#FCC4AE"/>
</g>
<g id="Group_12">
<g id="Group_13">
<path id="Vector_5" d="M27.3065 31.7906C28.1531 32.0737 29.058 32.2293 30 32.2293C30.9419 32.2293 31.8471 32.0737 32.6936 31.7903V29.7061H27.3065V31.7906Z" fill="#F2AD97"/>
</g>
<g id="Group_14">
<g id="Group_15">
<g id="Group_16">
<path id="Vector_6" d="M21.5263 25.4327C23.0338 25.4327 24.2558 24.2106 24.2558 22.7032C24.2558 21.1957 23.0338 19.9736 21.5263 19.9736C20.0188 19.9736 18.7968 21.1957 18.7968 22.7032C18.7968 24.2106 20.0188 25.4327 21.5263 25.4327Z" fill="#FFD2C0"/>
</g>
<g id="Group_17">
<path id="Vector_7" d="M21.5253 24.2716C22.3916 24.2716 23.0938 23.5694 23.0938 22.7032C23.0938 21.837 22.3916 21.1348 21.5253 21.1348C20.6591 21.1348 19.9569 21.837 19.9569 22.7032C19.9569 23.5694 20.6591 24.2716 21.5253 24.2716Z" fill="#F2AD97"/>
</g>
</g>
<g id="Group_18">
<g id="Group_19">
<path id="Vector_8" d="M38.4736 25.4327C39.981 25.4327 41.2031 24.2106 41.2031 22.7032C41.2031 21.1957 39.981 19.9736 38.4736 19.9736C36.9661 19.9736 35.744 21.1957 35.744 22.7032C35.744 24.2106 36.9661 25.4327 38.4736 25.4327Z" fill="#FFD2C0"/>
</g>
<g id="Group_20">
<path id="Vector_9" d="M38.4726 24.2716C39.3388 24.2716 40.0411 23.5694 40.0411 22.7032C40.0411 21.837 39.3388 21.1348 38.4726 21.1348C37.6064 21.1348 36.9042 21.837 36.9042 22.7032C36.9042 23.5694 37.6064 24.2716 38.4726 24.2716Z" fill="#F2AD97"/>
</g>
</g>
</g>
<g id="Group_21">
<path id="Vector_10" d="M38.4899 18.1619V22.5682C38.5182 27.2866 34.5636 31.0973 30.0008 31.0572C25.438 31.0971 21.4834 27.2868 21.5117 22.5682V18.1619C21.5117 13.4744 25.3133 9.67285 30.0008 9.67285C34.6892 9.67145 38.4885 13.4754 38.4899 18.1619Z" fill="#FFD2C0"/>
</g>
<g id="Group_22">
<path id="Vector_11" d="M21.5116 18.1615V20.427C24.8196 18.2187 26.9357 14.4511 26.9226 10.3202C26.9226 10.2961 26.9224 10.2722 26.9221 10.248C23.7557 11.4809 21.5116 14.5591 21.5116 18.1615Z" fill="#F2AD97"/>
</g>
<g id="Group_23">
<path id="Vector_12" d="M35.3888 11.6016C36.5939 13.0673 37.3179 14.9437 37.3179 16.9894V21.3959C37.3179 26.0841 33.5173 29.8847 28.8291 29.8847C26.7835 29.8847 24.9068 29.1607 23.4413 27.9555C24.9982 29.8488 27.3584 31.0566 30.001 31.0566C34.6892 31.0566 38.4898 27.2559 38.4898 22.5677V18.1612C38.4898 15.5187 37.2821 13.1585 35.3888 11.6016Z" fill="#FCC4AE"/>
</g>
<g id="Group_24">
<path id="Vector_13" d="M26.9222 7.97691C26.9365 12.4844 24.4156 16.5595 20.5777 18.6478C19.7658 19.0896 18.769 18.4537 18.8504 17.5329C19.1262 14.4051 20.5163 11.5425 22.7014 9.52613C23.8819 8.43277 25.294 7.58973 26.8873 7.08301C26.9098 7.37832 26.9222 7.67551 26.9222 7.97691Z" fill="#7C3108"/>
</g>
<g id="Group_25">
<path id="Vector_14" d="M40.4607 17.904C33.3446 21.5776 24.3983 17.3846 22.7012 9.52603C23.8752 8.43877 25.2779 7.599 26.8604 7.09158C33.4761 4.944 40.0691 9.97861 41.0736 16.7078C41.146 17.1941 40.8976 17.6785 40.4607 17.904Z" fill="#8C3F0A"/>
</g>
<g id="Group_26">
<path id="Vector_15" d="M41.0733 16.7077C40.0688 9.97883 33.4758 4.94399 26.8601 7.09156C25.2776 7.59899 23.8749 8.43875 22.7009 9.52602C22.7445 9.72828 22.7933 9.9282 22.8462 10.1255C23.3771 9.85344 23.9344 9.62188 24.5162 9.43531C31.0016 7.32992 37.4651 12.1269 38.6635 18.6559C39.2715 18.4573 39.8722 18.2075 40.4602 17.904C40.8976 17.6785 41.146 17.1941 41.0733 16.7077Z" fill="#7C3108"/>
</g>
<g id="Group_27">
<path id="Vector_16" d="M41.0733 16.7077C40.0688 9.97883 33.4758 4.94399 26.8601 7.09156C25.2776 7.59899 23.8749 8.43875 22.7009 9.52602C22.715 9.5907 22.7293 9.65516 22.7443 9.71938C23.6337 9.10016 24.62 8.6061 25.6883 8.26344C32.304 6.11586 38.8969 11.1505 39.9015 17.8796C39.9162 17.978 39.9174 18.0763 39.9071 18.1723C40.0927 18.088 40.2774 17.9987 40.4607 17.904C40.8976 17.6785 41.146 17.1941 41.0733 16.7077Z" fill="#6D2E03"/>
</g>
<g id="Group_28">
<g id="Group_29">
<path id="Vector_17" d="M26.0107 22.4846C26.5787 22.4846 27.0392 22.0242 27.0392 21.4562C27.0392 20.8882 26.5787 20.4277 26.0107 20.4277C25.4427 20.4277 24.9823 20.8882 24.9823 21.4562C24.9823 22.0242 25.4427 22.4846 26.0107 22.4846Z" fill="#995222"/>
</g>
<g id="Group_30">
<path id="Vector_18" d="M33.9894 22.4846C34.5574 22.4846 35.0178 22.0242 35.0178 21.4562C35.0178 20.8882 34.5574 20.4277 33.9894 20.4277C33.4214 20.4277 32.9609 20.8882 32.9609 21.4562C32.9609 22.0242 33.4214 22.4846 33.9894 22.4846Z" fill="#995222"/>
</g>
</g>
</g>
<g id="Group_31">
<path id="Vector_19" d="M34.9177 18.3116C33.1693 18.3116 31.4818 17.9296 29.8998 17.1749C28.3789 16.4507 27.0125 15.3842 25.9435 14.0975C25.8638 13.9991 25.8263 13.8772 25.8383 13.753C25.85 13.6288 25.9086 13.5163 26.0047 13.4366C26.1966 13.2772 26.5083 13.3077 26.6654 13.4975C28.7068 15.9608 31.7138 17.3741 34.9154 17.3741C35.5248 17.3741 36.1294 17.3225 36.7154 17.2171C36.9734 17.1725 37.2148 17.346 37.2591 17.5967C37.3037 17.8522 37.1349 18.096 36.8794 18.1405C36.2373 18.2553 35.5789 18.3116 34.9177 18.3116ZM25.2383 12.7264C25.0719 12.7264 24.9172 12.6374 24.833 12.4944C24.833 12.4921 24.833 12.4921 24.8305 12.4921C24.7695 12.3819 24.7531 12.2577 24.7862 12.1358C24.819 12.0139 24.8963 11.9132 25.0062 11.8522C25.2244 11.728 25.5219 11.81 25.6461 12.0257V12.028C25.707 12.1358 25.7234 12.2624 25.6904 12.3819C25.6576 12.5038 25.5802 12.6046 25.4703 12.6655C25.4 12.7053 25.3203 12.7264 25.2383 12.7264Z" fill="#995222"/>
</g>
</g>
<g id="Group_32">
<g id="Group_33">
<g id="Group_34">
<path id="Vector_20" d="M36.0584 34.7301L32.702 33.2161V34.6718L29.9998 38.8825L27.2977 34.6715V33.2158L23.9434 34.7299L28.2406 46.3938C28.8432 48.0295 31.1565 48.0295 31.7593 46.394L36.0584 34.7301Z" fill="#D1D3D4"/>
</g>
<g id="Group_35">
<path id="Vector_21" d="M23.9434 34.7304L26.473 41.5919C26.5759 41.8711 26.9333 41.9494 27.1437 41.7391L29.9996 38.8828L27.2975 34.6718V33.2163L23.9434 34.7304Z" fill="#F1F2F2"/>
</g>
<g id="Group_36">
<path id="Vector_22" d="M36.0585 34.7299L33.5268 41.5914C33.4239 41.8706 33.0664 41.9489 32.856 41.7386L29.9999 38.8823L32.702 34.6713V33.2158L36.0585 34.7299Z" fill="#F1F2F2"/>
</g>
</g>
</g>
</g>
</g>
<g id="Group_37">
<g id="Group_38">
<g id="Group_39">
<path id="Vector_23" d="M21.5117 19.499H22.7298V20.2021H21.5117V19.499Z" fill="#EF7816"/>
</g>
</g>
<g id="Group_40">
<g id="Group_41">
<path id="Vector_24" d="M29.4718 20.6307L28.9747 20.1336C29.2501 19.8582 29.616 19.7065 30.005 19.7065C30.3941 19.7065 30.7602 19.8582 31.0354 20.1336L30.5382 20.6307C30.2528 20.3454 29.7571 20.3454 29.4718 20.6307Z" fill="#EF7816"/>
</g>
</g>
<g id="Group_42">
<g id="Group_43">
<path id="Vector_25" d="M27.1213 24.3511H24.9027C23.5109 24.3511 22.3789 23.219 22.3789 21.8275V19.8506C22.3789 19.1397 22.9573 18.5615 23.668 18.5615H28.3555C29.0661 18.5615 29.6445 19.1397 29.6445 19.8506V21.8275C29.6448 23.219 28.5125 24.3511 27.1213 24.3511ZM23.6682 19.2649C23.345 19.2649 23.0823 19.5279 23.0823 19.8508V21.8278C23.0823 22.8316 23.8988 23.6482 24.9029 23.6482H27.1215C28.1251 23.6482 28.9419 22.8316 28.9419 21.8278V19.8508C28.9419 19.5279 28.6791 19.2649 28.3559 19.2649H23.6682Z" fill="#F79219"/>
</g>
</g>
<g id="Group_44">
<g id="Group_45">
<path id="Vector_26" d="M37.2714 19.499H38.4894V20.2021H37.2714V19.499Z" fill="#EF7816"/>
</g>
</g>
<g id="Group_46">
<g id="Group_47">
<path id="Vector_27" d="M35.0994 24.3511H32.8808C31.4893 24.3511 30.3573 23.219 30.3573 21.8275V19.8506C30.3573 19.1397 30.9357 18.5615 31.6464 18.5615H36.3339C37.0445 18.5615 37.6229 19.1397 37.6229 19.8506V21.8275C37.6229 23.219 36.4909 24.3511 35.0994 24.3511ZM31.6464 19.2649C31.3232 19.2649 31.0604 19.5279 31.0604 19.8508V21.8278C31.0604 22.8316 31.877 23.6482 32.8808 23.6482H35.0994C36.1032 23.6482 36.92 22.8316 36.92 21.8278V19.8508C36.92 19.5279 36.6573 19.2649 36.3341 19.2649H31.6464Z" fill="#F79219"/>
</g>
</g>
</g>
<g id="Group_48">
<path id="Vector_28" d="M31.5097 25.7144C31.7432 25.7144 31.9201 25.9323 31.8662 26.1597C31.6654 27.0041 30.9062 27.6322 30.0004 27.6322C29.0945 27.6322 28.3354 27.0041 28.1345 26.1597C28.0806 25.9326 28.2573 25.7144 28.491 25.7144H31.5097Z" fill="#E59076"/>
</g>
</g>
<g id="Group_49">
<g id="Group_50">
<g id="Group_51">
<g id="Group_52">
<path id="Vector_29" d="M42.249 41.192C43.5582 40.3616 45.1142 39.8856 46.7822 39.8992C51.3329 39.9362 55.0554 43.6879 55.0585 48.2387C55.0618 52.9466 51.1665 56.7456 46.4234 56.5853C42.076 56.4384 38.5381 52.9155 38.3733 48.5685C38.3061 46.7919 38.7947 45.1335 39.6788 43.7523C39.759 43.6269 39.7796 43.4727 39.7297 43.3323L38.9044 41.0198C38.7701 40.6431 39.1336 40.2794 39.5103 40.4139L41.8306 41.2417C41.9703 41.2914 42.1238 41.2712 42.249 41.192Z" fill="#F1F2F2"/>
</g>
</g>
<g id="Group_53">
<path id="Vector_30" d="M51.9884 41.7964C53.1717 43.2373 53.8852 45.0755 53.8863 47.0668C53.8896 51.7747 49.9943 55.5737 45.2512 55.4133C43.3652 55.3496 41.6318 54.6504 40.2598 53.5243C41.737 55.3243 43.9491 56.5015 46.4231 56.5852C51.1662 56.7455 55.0615 52.9465 55.0582 48.2387C55.0566 45.6563 53.857 43.3313 51.9884 41.7964Z" fill="#E6E7E8"/>
</g>
</g>
</g>
</g>
<g id="Group_54">
<g id="Group_55">
<g id="Group_56">
<g id="Group_57">
<path id="Vector_31" d="M45.577 53.3234H47.0451C47.3519 53.3234 47.6005 53.0748 47.6005 52.768V43.8406C47.6005 43.5338 47.3519 43.2852 47.0451 43.2852H45.577C45.2702 43.2852 45.0215 43.5338 45.0215 43.8406V52.768C45.0215 53.0748 45.2702 53.3234 45.577 53.3234Z" fill="#E63950"/>
</g>
</g>
<g id="Group_58">
<path id="Vector_32" d="M46.0332 50.285V44.9171C46.0332 44.7919 46.1347 44.6904 46.2598 44.6904C46.385 44.6904 46.4865 44.7919 46.4865 44.9171V50.285C46.4865 50.4101 46.385 50.5116 46.2598 50.5116C46.1347 50.5116 46.0332 50.4101 46.0332 50.285Z" fill="#E8566F"/>
</g>
</g>
<g id="Group_59">
<g id="Group_60">
<g id="Group_61">
<path id="Vector_33" d="M42.9969 53.3234H44.465C44.7718 53.3234 45.0205 53.0748 45.0205 52.768V43.8406C45.0205 43.5338 44.7718 43.2852 44.465 43.2852H42.9969C42.6901 43.2852 42.4414 43.5338 42.4414 43.8406V52.768C42.4412 53.0748 42.6901 53.3234 42.9969 53.3234Z" fill="#478CF7"/>
</g>
</g>
<g id="Group_62">
<path id="Vector_34" d="M43.5039 49.8709V44.503C43.5039 44.3779 43.6054 44.2764 43.7305 44.2764C43.8557 44.2764 43.9572 44.3779 43.9572 44.503V49.8709C43.9572 49.9961 43.8557 50.0975 43.7305 50.0975C43.6054 50.0973 43.5039 49.9961 43.5039 49.8709Z" fill="#5E9CF7"/>
</g>
</g>
<g id="Group_63">
<g id="Group_64">
<g id="Group_65">
<g id="Group_66">
<path id="Vector_35" d="M49.7557 53.3157L51.203 53.068C51.5053 53.0162 51.7085 52.7291 51.6567 52.4267L50.1499 43.6273C50.0981 43.325 49.811 43.1218 49.5087 43.1736L48.0614 43.4213C47.7591 43.4731 47.5559 43.7602 47.6077 44.0626L49.1145 52.862C49.1663 53.1643 49.4534 53.3675 49.7557 53.3157Z" fill="#58595B"/>
</g>
</g>
</g>
<g id="Group_67">
<path id="Vector_36" d="M49.6962 51.4343L50.6344 51.2738C50.7577 51.2527 50.8749 51.3354 50.896 51.4589C50.9171 51.5822 50.8344 51.6994 50.7109 51.7205L49.7727 51.8811C49.6494 51.9022 49.5322 51.8194 49.5111 51.6959C49.49 51.5726 49.573 51.4557 49.6962 51.4343Z" fill="#FFA91A"/>
</g>
<g id="Group_68">
<path id="Vector_37" d="M49.5478 50.5706L50.486 50.41C50.6093 50.3889 50.7265 50.4717 50.7476 50.5952C50.7687 50.7185 50.6859 50.8356 50.5624 50.8567L49.6242 51.0173C49.5009 51.0384 49.3838 50.9556 49.3627 50.8321C49.3416 50.7088 49.4243 50.5917 49.5478 50.5706Z" fill="#FFA91A"/>
</g>
<g id="Group_69">
<path id="Vector_38" d="M48.5673 44.8406L49.5055 44.68C49.6288 44.6589 49.746 44.7417 49.767 44.8652C49.7881 44.9885 49.7054 45.1057 49.5819 45.1268L48.6437 45.2873C48.5204 45.3084 48.4032 45.2257 48.3821 45.1021C48.3613 44.9789 48.444 44.8617 48.5673 44.8406Z" fill="#939598"/>
</g>
</g>
</g>
</g>
</g>
</svg>
