<svg width="1440" height="652" viewBox="0 0 1440 652" fill="none" xmlns="http://www.w3.org/2000/svg">
<rect width="1440" height="496" fill="#004BFD"/>
<mask id="mask0_14_759" style="mask-type:luminance" maskUnits="userSpaceOnUse" x="0" y="0" width="1440" height="496">
<rect width="1440" height="496" fill="white"/>
</mask>
<g mask="url(#mask0_14_759)">
<path opacity="0.247745" d="M184 -48.5C184 53.3965 101.397 136 -0.5 136C-102.397 136 -185 53.3965 -185 -48.5C-185 -150.397 -102.397 -233 -0.5 -233C101.397 -233 184 -150.397 184 -48.5Z" stroke="#7BE8FB" stroke-width="80"/>
<path opacity="0.247745" d="M1645 575.5C1645 688.442 1553.44 780 1440.5 780C1327.56 780 1236 688.442 1236 575.5C1236 462.558 1327.56 371 1440.5 371C1553.44 371 1645 462.558 1645 575.5Z" stroke="#7BE8FB" stroke-width="40"/>
<g opacity="0.499558">
<path opacity="0.254767" fill-rule="evenodd" clip-rule="evenodd" d="M398.027 334.98C399.64 332.685 402.632 326.856 404.902 326.036C406.364 325.508 405.938 330.972 405.956 332.014C406.026 336.045 405.633 340.05 405.147 344.047C404.273 351.256 401.413 357.676 397.49 363.811C395.471 366.968 393.104 370.164 389.824 372.133C388.315 373.041 386.499 373.192 385.008 373.974C383.272 374.884 384.217 374.148 383.435 375.954C382.349 378.461 382.001 381.696 381.498 384.371C379.19 396.652 373.602 461.573 374.571 474.065C374.657 475.172 373.11 475.437 373.033 474.085C372.622 466.918 376.174 417.285 377.965 401.054C379.757 384.823 381.57 370.483 383.388 364.868C385.593 358.055 389.576 349.862 392.892 343.509C394.432 340.557 396.111 337.708 398.027 334.98Z" fill="white"/>
<path opacity="0.248489" fill-rule="evenodd" clip-rule="evenodd" d="M410.621 414.868C414.827 411.808 419.379 417.584 415.573 420.645C413.469 422.337 411.27 421.735 410.031 420.325C409.228 421.296 408.475 422.311 407.752 423.169C405.55 425.783 403.468 428.459 401.478 431.197C397.345 436.886 393.803 442.896 390.1 448.797C386.445 454.62 382.82 460.473 379.507 466.444C376.701 471.503 372.961 477.454 372 483C373.458 471.238 378.989 459.933 385.576 449.564C392.11 439.28 399.607 428.049 409.723 419.933C408.694 418.432 408.665 416.29 410.621 414.868Z" fill="white"/>
<path opacity="0.251628" fill-rule="evenodd" clip-rule="evenodd" d="M330.728 386.012C333.057 386.467 336.861 391.738 338.781 393.747C341.062 396.133 343.132 398.677 345.082 401.342C349.282 407.078 353.038 413.178 356.231 419.538C361.438 429.907 365.609 440.551 368.637 451.842C370.49 458.753 371.689 465.917 372.4 473.031C372.535 474.372 373.94 484.716 371.915 484.994C370.093 485.245 370.656 477.14 370.568 476.038C369.574 463.6 366.598 451.498 362.459 439.775C361.557 437.221 360.719 434.093 359.277 431.795C358.239 430.139 359.27 430.716 357.445 430.09C355.878 429.552 354.093 429.683 352.488 429.024C349.002 427.594 346.211 424.817 343.764 422.024C339.009 416.595 335.241 410.723 333.277 403.767C332.188 399.91 331.187 396.031 330.631 392.055C330.487 391.027 329.228 385.718 330.728 386.012Z" fill="white"/>
<path opacity="0.498396" fill-rule="evenodd" clip-rule="evenodd" d="M339.439 298.256C348.354 313.574 355.681 330.4 360.412 347.443C363.278 357.769 365.282 368.365 367.274 378.885C370.357 395.173 373.274 411.459 374.104 428.037C374.939 444.71 376.589 463.941 371.078 480C373.831 463.696 371.21 446.341 370.746 429.935C370.524 422.104 369.882 414.348 369.039 406.562C368.221 399.01 366.884 391.493 365.64 383.999C365.034 380.35 364.397 376.706 363.749 373.064C363.555 371.977 363.474 368.753 362.778 368.011C362.078 367.263 358.505 366.959 357.383 366.411C355.125 365.306 353 363.738 351.12 362.081C347.515 358.904 344.379 354.753 341.904 350.661C336.178 341.192 333.888 329.637 334.004 318.672C334.026 316.543 337.482 293.617 336.094 293.301C336.178 293.204 336.257 293.104 336.332 293C337.382 294.743 338.414 296.498 339.439 298.256Z" fill="white"/>
<path opacity="0.497396" fill-rule="evenodd" clip-rule="evenodd" d="M435.402 353.485C435.539 353.289 436.429 351.926 435.981 352.013C436.894 351.836 434.726 353.516 437 352.485C435.92 353.498 436.543 354.814 436.558 356.178C436.581 358.391 436.208 360.587 435.789 362.753C435.125 366.176 434.137 369.505 432.703 372.69C429.577 379.63 424.27 386.311 417.969 390.65C414.858 392.792 411.809 393.521 408.261 394.508C406.02 395.131 405.843 396.282 404.653 398.442C402.177 402.941 399.744 407.423 397.56 412.074C394.953 417.627 392.421 423.186 390.033 428.837C381.988 447.871 375.441 467.592 372.002 488C371.918 475.973 374.719 463.587 378.252 452.124C380.826 443.772 384.176 435.721 387.75 427.751C388.616 425.82 389.928 423.337 390.296 421.205C390.554 419.712 389.766 418.275 389.406 416.702C388.001 410.575 388.101 403.712 389.335 397.552C390.696 390.76 394.63 387.608 401.287 386.646C403.721 386.294 406.815 386.423 409.047 385.392C411.479 384.269 412.482 380.579 413.865 378.21C417.579 371.847 421.992 365.745 427.06 360.383C428.463 358.899 429.972 357.529 431.572 356.26C432.582 355.459 434.714 354.472 435.402 353.485Z" fill="white"/>
<path fill-rule="evenodd" clip-rule="evenodd" d="M359.782 480.28C359.37 477.498 361.525 475 364.337 475H381.663C384.475 475 386.63 477.498 386.218 480.28L385.485 485.229C384.568 491.417 379.256 496 373 496C366.744 496 361.432 491.417 360.515 485.229L359.782 480.28Z" fill="white"/>
</g>
</g>
<g opacity="0.250581" clip-path="url(#clip0_14_759)">
<path opacity="0.504999" fill-rule="evenodd" clip-rule="evenodd" d="M1026 103C1039.13 103 1049.77 94.8708 1049.77 84.8425C1049.77 74.8141 1039.13 66.6846 1026 66.6846C1012.87 66.6846 1002.23 74.8141 1002.23 84.8425C1002.23 94.8708 1012.87 103 1026 103Z" fill="white"/>
<path fill-rule="evenodd" clip-rule="evenodd" d="M1063 89.3509C1063 67.0657 1046.43 49 1026 49C1005.57 49 989 67.0657 989 89.3509" fill="white"/>
<rect x="1024" width="5" height="72" fill="white"/>
</g>
<g opacity="0.501907">
<mask id="mask1_14_759" style="mask-type:luminance" maskUnits="userSpaceOnUse" x="615" y="408" width="244" height="244">
<path d="M737 652C804.379 652 859 597.379 859 530C859 462.621 804.379 408 737 408C669.621 408 615 462.621 615 530C615 597.379 669.621 652 737 652Z" fill="white"/>
</mask>
<g mask="url(#mask1_14_759)">
<path fill-rule="evenodd" clip-rule="evenodd" d="M779.525 402.443C779.525 403.548 778.63 404.443 777.525 404.443C776.421 404.443 775.525 403.548 775.525 402.443C775.525 401.339 776.421 400.443 777.525 400.443C778.63 400.443 779.525 401.339 779.525 402.443ZM777.525 420.443C778.63 420.443 779.525 419.548 779.525 418.443C779.525 417.339 778.63 416.443 777.525 416.443C776.421 416.443 775.525 417.339 775.525 418.443C775.525 419.548 776.421 420.443 777.525 420.443ZM793.525 420.443C794.63 420.443 795.525 419.548 795.525 418.443C795.525 417.339 794.63 416.443 793.525 416.443C792.421 416.443 791.525 417.339 791.525 418.443C791.525 419.548 792.421 420.443 793.525 420.443ZM811.525 418.443C811.525 419.548 810.63 420.443 809.525 420.443C808.421 420.443 807.525 419.548 807.525 418.443C807.525 417.339 808.421 416.443 809.525 416.443C810.63 416.443 811.525 417.339 811.525 418.443ZM825.525 420.443C826.63 420.443 827.525 419.548 827.525 418.443C827.525 417.339 826.63 416.443 825.525 416.443C824.421 416.443 823.525 417.339 823.525 418.443C823.525 419.548 824.421 420.443 825.525 420.443ZM843.525 418.443C843.525 419.548 842.63 420.443 841.525 420.443C840.421 420.443 839.525 419.548 839.525 418.443C839.525 417.339 840.421 416.443 841.525 416.443C842.63 416.443 843.525 417.339 843.525 418.443ZM857.525 420.443C858.63 420.443 859.525 419.548 859.525 418.443C859.525 417.339 858.63 416.443 857.525 416.443C856.421 416.443 855.525 417.339 855.525 418.443C855.525 419.548 856.421 420.443 857.525 420.443ZM793.525 404.443C794.63 404.443 795.525 403.548 795.525 402.443C795.525 401.339 794.63 400.443 793.525 400.443C792.421 400.443 791.525 401.339 791.525 402.443C791.525 403.548 792.421 404.443 793.525 404.443ZM811.525 402.443C811.525 403.548 810.63 404.443 809.525 404.443C808.421 404.443 807.525 403.548 807.525 402.443C807.525 401.339 808.421 400.443 809.525 400.443C810.63 400.443 811.525 401.339 811.525 402.443ZM825.525 404.443C826.63 404.443 827.525 403.548 827.525 402.443C827.525 401.339 826.63 400.443 825.525 400.443C824.421 400.443 823.525 401.339 823.525 402.443C823.525 403.548 824.421 404.443 825.525 404.443ZM843.525 402.443C843.525 403.548 842.63 404.443 841.525 404.443C840.421 404.443 839.525 403.548 839.525 402.443C839.525 401.339 840.421 400.443 841.525 400.443C842.63 400.443 843.525 401.339 843.525 402.443ZM857.525 404.443C858.63 404.443 859.525 403.548 859.525 402.443C859.525 401.339 858.63 400.443 857.525 400.443C856.421 400.443 855.525 401.339 855.525 402.443C855.525 403.548 856.421 404.443 857.525 404.443ZM673.525 420.443C674.63 420.443 675.525 419.548 675.525 418.443C675.525 417.339 674.63 416.443 673.525 416.443C672.421 416.443 671.525 417.339 671.525 418.443C671.525 419.548 672.421 420.443 673.525 420.443ZM689.525 420.443C690.63 420.443 691.525 419.548 691.525 418.443C691.525 417.339 690.63 416.443 689.525 416.443C688.421 416.443 687.525 417.339 687.525 418.443C687.525 419.548 688.421 420.443 689.525 420.443ZM707.525 418.443C707.525 419.548 706.63 420.443 705.525 420.443C704.421 420.443 703.525 419.548 703.525 418.443C703.525 417.339 704.421 416.443 705.525 416.443C706.63 416.443 707.525 417.339 707.525 418.443ZM721.525 420.443C722.63 420.443 723.525 419.548 723.525 418.443C723.525 417.339 722.63 416.443 721.525 416.443C720.421 416.443 719.525 417.339 719.525 418.443C719.525 419.548 720.421 420.443 721.525 420.443ZM739.525 418.443C739.525 419.548 738.63 420.443 737.525 420.443C736.421 420.443 735.525 419.548 735.525 418.443C735.525 417.339 736.421 416.443 737.525 416.443C738.63 416.443 739.525 417.339 739.525 418.443ZM753.525 420.443C754.63 420.443 755.525 419.548 755.525 418.443C755.525 417.339 754.63 416.443 753.525 416.443C752.421 416.443 751.525 417.339 751.525 418.443C751.525 419.548 752.421 420.443 753.525 420.443ZM673.525 404.443C674.63 404.443 675.525 403.548 675.525 402.443C675.525 401.339 674.63 400.443 673.525 400.443C672.421 400.443 671.525 401.339 671.525 402.443C671.525 403.548 672.421 404.443 673.525 404.443ZM683.525 434.443C683.525 435.548 682.63 436.443 681.525 436.443C680.421 436.443 679.525 435.548 679.525 434.443C679.525 433.339 680.421 432.443 681.525 432.443C682.63 432.443 683.525 433.339 683.525 434.443ZM681.525 452.443C682.63 452.443 683.525 451.548 683.525 450.443C683.525 449.339 682.63 448.443 681.525 448.443C680.421 448.443 679.525 449.339 679.525 450.443C679.525 451.548 680.421 452.443 681.525 452.443ZM697.525 452.443C698.63 452.443 699.525 451.548 699.525 450.443C699.525 449.339 698.63 448.443 697.525 448.443C696.421 448.443 695.525 449.339 695.525 450.443C695.525 451.548 696.421 452.443 697.525 452.443ZM715.525 450.443C715.525 451.548 714.63 452.443 713.525 452.443C712.421 452.443 711.525 451.548 711.525 450.443C711.525 449.339 712.421 448.443 713.525 448.443C714.63 448.443 715.525 449.339 715.525 450.443ZM729.525 452.443C730.63 452.443 731.525 451.548 731.525 450.443C731.525 449.339 730.63 448.443 729.525 448.443C728.421 448.443 727.525 449.339 727.525 450.443C727.525 451.548 728.421 452.443 729.525 452.443ZM747.525 450.443C747.525 451.548 746.63 452.443 745.525 452.443C744.421 452.443 743.525 451.548 743.525 450.443C743.525 449.339 744.421 448.443 745.525 448.443C746.63 448.443 747.525 449.339 747.525 450.443ZM761.525 452.443C762.63 452.443 763.525 451.548 763.525 450.443C763.525 449.339 762.63 448.443 761.525 448.443C760.421 448.443 759.525 449.339 759.525 450.443C759.525 451.548 760.421 452.443 761.525 452.443ZM697.525 436.443C698.63 436.443 699.525 435.548 699.525 434.443C699.525 433.339 698.63 432.443 697.525 432.443C696.421 432.443 695.525 433.339 695.525 434.443C695.525 435.548 696.421 436.443 697.525 436.443ZM715.525 434.443C715.525 435.548 714.63 436.443 713.525 436.443C712.421 436.443 711.525 435.548 711.525 434.443C711.525 433.339 712.421 432.443 713.525 432.443C714.63 432.443 715.525 433.339 715.525 434.443ZM729.525 436.443C730.63 436.443 731.525 435.548 731.525 434.443C731.525 433.339 730.63 432.443 729.525 432.443C728.421 432.443 727.525 433.339 727.525 434.443C727.525 435.548 728.421 436.443 729.525 436.443ZM747.525 434.443C747.525 435.548 746.63 436.443 745.525 436.443C744.421 436.443 743.525 435.548 743.525 434.443C743.525 433.339 744.421 432.443 745.525 432.443C746.63 432.443 747.525 433.339 747.525 434.443ZM761.525 436.443C762.63 436.443 763.525 435.548 763.525 434.443C763.525 433.339 762.63 432.443 761.525 432.443C760.421 432.443 759.525 433.339 759.525 434.443C759.525 435.548 760.421 436.443 761.525 436.443ZM689.525 404.443C690.63 404.443 691.525 403.548 691.525 402.443C691.525 401.339 690.63 400.443 689.525 400.443C688.421 400.443 687.525 401.339 687.525 402.443C687.525 403.548 688.421 404.443 689.525 404.443ZM779.525 434.443C779.525 435.548 778.63 436.443 777.525 436.443C776.421 436.443 775.525 435.548 775.525 434.443C775.525 433.339 776.421 432.443 777.525 432.443C778.63 432.443 779.525 433.339 779.525 434.443ZM777.525 452.443C778.63 452.443 779.525 451.548 779.525 450.443C779.525 449.339 778.63 448.443 777.525 448.443C776.421 448.443 775.525 449.339 775.525 450.443C775.525 451.548 776.421 452.443 777.525 452.443ZM793.525 452.443C794.63 452.443 795.525 451.548 795.525 450.443C795.525 449.339 794.63 448.443 793.525 448.443C792.421 448.443 791.525 449.339 791.525 450.443C791.525 451.548 792.421 452.443 793.525 452.443ZM811.525 450.443C811.525 451.548 810.63 452.443 809.525 452.443C808.421 452.443 807.525 451.548 807.525 450.443C807.525 449.339 808.421 448.443 809.525 448.443C810.63 448.443 811.525 449.339 811.525 450.443ZM825.525 452.443C826.63 452.443 827.525 451.548 827.525 450.443C827.525 449.339 826.63 448.443 825.525 448.443C824.421 448.443 823.525 449.339 823.525 450.443C823.525 451.548 824.421 452.443 825.525 452.443ZM843.525 450.443C843.525 451.548 842.63 452.443 841.525 452.443C840.421 452.443 839.525 451.548 839.525 450.443C839.525 449.339 840.421 448.443 841.525 448.443C842.63 448.443 843.525 449.339 843.525 450.443ZM857.525 452.443C858.63 452.443 859.525 451.548 859.525 450.443C859.525 449.339 858.63 448.443 857.525 448.443C856.421 448.443 855.525 449.339 855.525 450.443C855.525 451.548 856.421 452.443 857.525 452.443ZM793.525 436.443C794.63 436.443 795.525 435.548 795.525 434.443C795.525 433.339 794.63 432.443 793.525 432.443C792.421 432.443 791.525 433.339 791.525 434.443C791.525 435.548 792.421 436.443 793.525 436.443ZM811.525 434.443C811.525 435.548 810.63 436.443 809.525 436.443C808.421 436.443 807.525 435.548 807.525 434.443C807.525 433.339 808.421 432.443 809.525 432.443C810.63 432.443 811.525 433.339 811.525 434.443ZM825.525 436.443C826.63 436.443 827.525 435.548 827.525 434.443C827.525 433.339 826.63 432.443 825.525 432.443C824.421 432.443 823.525 433.339 823.525 434.443C823.525 435.548 824.421 436.443 825.525 436.443ZM843.525 434.443C843.525 435.548 842.63 436.443 841.525 436.443C840.421 436.443 839.525 435.548 839.525 434.443C839.525 433.339 840.421 432.443 841.525 432.443C842.63 432.443 843.525 433.339 843.525 434.443ZM857.525 436.443C858.63 436.443 859.525 435.548 859.525 434.443C859.525 433.339 858.63 432.443 857.525 432.443C856.421 432.443 855.525 433.339 855.525 434.443C855.525 435.548 856.421 436.443 857.525 436.443ZM705.525 404.443C706.63 404.443 707.525 403.548 707.525 402.443C707.525 401.339 706.63 400.443 705.525 400.443C704.421 400.443 703.525 401.339 703.525 402.443C703.525 403.548 704.421 404.443 705.525 404.443ZM723.525 402.443C723.525 403.548 722.63 404.443 721.525 404.443C720.421 404.443 719.525 403.548 719.525 402.443C719.525 401.339 720.421 400.443 721.525 400.443C722.63 400.443 723.525 401.339 723.525 402.443ZM737.525 404.443C738.63 404.443 739.525 403.548 739.525 402.443C739.525 401.339 738.63 400.443 737.525 400.443C736.421 400.443 735.525 401.339 735.525 402.443C735.525 403.548 736.421 404.443 737.525 404.443ZM755.525 402.443C755.525 403.548 754.63 404.443 753.525 404.443C752.421 404.443 751.525 403.548 751.525 402.443C751.525 401.339 752.421 400.443 753.525 400.443C754.63 400.443 755.525 401.339 755.525 402.443Z" fill="white"/>
<path fill-rule="evenodd" clip-rule="evenodd" d="M779.525 466.443C779.525 467.548 778.63 468.443 777.525 468.443C776.421 468.443 775.525 467.548 775.525 466.443C775.525 465.339 776.421 464.443 777.525 464.443C778.63 464.443 779.525 465.339 779.525 466.443ZM777.525 484.443C778.63 484.443 779.525 483.548 779.525 482.443C779.525 481.339 778.63 480.443 777.525 480.443C776.421 480.443 775.525 481.339 775.525 482.443C775.525 483.548 776.421 484.443 777.525 484.443ZM793.525 484.443C794.63 484.443 795.525 483.548 795.525 482.443C795.525 481.339 794.63 480.443 793.525 480.443C792.421 480.443 791.525 481.339 791.525 482.443C791.525 483.548 792.421 484.443 793.525 484.443ZM811.525 482.443C811.525 483.548 810.63 484.443 809.525 484.443C808.421 484.443 807.525 483.548 807.525 482.443C807.525 481.339 808.421 480.443 809.525 480.443C810.63 480.443 811.525 481.339 811.525 482.443ZM825.525 484.443C826.63 484.443 827.525 483.548 827.525 482.443C827.525 481.339 826.63 480.443 825.525 480.443C824.421 480.443 823.525 481.339 823.525 482.443C823.525 483.548 824.421 484.443 825.525 484.443ZM843.525 482.443C843.525 483.548 842.63 484.443 841.525 484.443C840.421 484.443 839.525 483.548 839.525 482.443C839.525 481.339 840.421 480.443 841.525 480.443C842.63 480.443 843.525 481.339 843.525 482.443ZM857.525 484.443C858.63 484.443 859.525 483.548 859.525 482.443C859.525 481.339 858.63 480.443 857.525 480.443C856.421 480.443 855.525 481.339 855.525 482.443C855.525 483.548 856.421 484.443 857.525 484.443ZM793.525 468.443C794.63 468.443 795.525 467.548 795.525 466.443C795.525 465.339 794.63 464.443 793.525 464.443C792.421 464.443 791.525 465.339 791.525 466.443C791.525 467.548 792.421 468.443 793.525 468.443ZM811.525 466.443C811.525 467.548 810.63 468.443 809.525 468.443C808.421 468.443 807.525 467.548 807.525 466.443C807.525 465.339 808.421 464.443 809.525 464.443C810.63 464.443 811.525 465.339 811.525 466.443ZM825.525 468.443C826.63 468.443 827.525 467.548 827.525 466.443C827.525 465.339 826.63 464.443 825.525 464.443C824.421 464.443 823.525 465.339 823.525 466.443C823.525 467.548 824.421 468.443 825.525 468.443ZM843.525 466.443C843.525 467.548 842.63 468.443 841.525 468.443C840.421 468.443 839.525 467.548 839.525 466.443C839.525 465.339 840.421 464.443 841.525 464.443C842.63 464.443 843.525 465.339 843.525 466.443ZM857.525 468.443C858.63 468.443 859.525 467.548 859.525 466.443C859.525 465.339 858.63 464.443 857.525 464.443C856.421 464.443 855.525 465.339 855.525 466.443C855.525 467.548 856.421 468.443 857.525 468.443ZM673.525 484.443C674.63 484.443 675.525 483.548 675.525 482.443C675.525 481.339 674.63 480.443 673.525 480.443C672.421 480.443 671.525 481.339 671.525 482.443C671.525 483.548 672.421 484.443 673.525 484.443ZM689.525 484.443C690.63 484.443 691.525 483.548 691.525 482.443C691.525 481.339 690.63 480.443 689.525 480.443C688.421 480.443 687.525 481.339 687.525 482.443C687.525 483.548 688.421 484.443 689.525 484.443ZM707.525 482.443C707.525 483.548 706.63 484.443 705.525 484.443C704.421 484.443 703.525 483.548 703.525 482.443C703.525 481.339 704.421 480.443 705.525 480.443C706.63 480.443 707.525 481.339 707.525 482.443ZM721.525 484.443C722.63 484.443 723.525 483.548 723.525 482.443C723.525 481.339 722.63 480.443 721.525 480.443C720.421 480.443 719.525 481.339 719.525 482.443C719.525 483.548 720.421 484.443 721.525 484.443ZM739.525 482.443C739.525 483.548 738.63 484.443 737.525 484.443C736.421 484.443 735.525 483.548 735.525 482.443C735.525 481.339 736.421 480.443 737.525 480.443C738.63 480.443 739.525 481.339 739.525 482.443ZM753.525 484.443C754.63 484.443 755.525 483.548 755.525 482.443C755.525 481.339 754.63 480.443 753.525 480.443C752.421 480.443 751.525 481.339 751.525 482.443C751.525 483.548 752.421 484.443 753.525 484.443ZM673.525 468.443C674.63 468.443 675.525 467.548 675.525 466.443C675.525 465.339 674.63 464.443 673.525 464.443C672.421 464.443 671.525 465.339 671.525 466.443C671.525 467.548 672.421 468.443 673.525 468.443ZM683.525 498.443C683.525 499.548 682.63 500.443 681.525 500.443C680.421 500.443 679.525 499.548 679.525 498.443C679.525 497.339 680.421 496.443 681.525 496.443C682.63 496.443 683.525 497.339 683.525 498.443ZM681.525 516.443C682.63 516.443 683.525 515.548 683.525 514.443C683.525 513.339 682.63 512.443 681.525 512.443C680.421 512.443 679.525 513.339 679.525 514.443C679.525 515.548 680.421 516.443 681.525 516.443ZM697.525 516.443C698.63 516.443 699.525 515.548 699.525 514.443C699.525 513.339 698.63 512.443 697.525 512.443C696.421 512.443 695.525 513.339 695.525 514.443C695.525 515.548 696.421 516.443 697.525 516.443ZM715.525 514.443C715.525 515.548 714.63 516.443 713.525 516.443C712.421 516.443 711.525 515.548 711.525 514.443C711.525 513.339 712.421 512.443 713.525 512.443C714.63 512.443 715.525 513.339 715.525 514.443ZM729.525 516.443C730.63 516.443 731.525 515.548 731.525 514.443C731.525 513.339 730.63 512.443 729.525 512.443C728.421 512.443 727.525 513.339 727.525 514.443C727.525 515.548 728.421 516.443 729.525 516.443ZM747.525 514.443C747.525 515.548 746.63 516.443 745.525 516.443C744.421 516.443 743.525 515.548 743.525 514.443C743.525 513.339 744.421 512.443 745.525 512.443C746.63 512.443 747.525 513.339 747.525 514.443ZM761.525 516.443C762.63 516.443 763.525 515.548 763.525 514.443C763.525 513.339 762.63 512.443 761.525 512.443C760.421 512.443 759.525 513.339 759.525 514.443C759.525 515.548 760.421 516.443 761.525 516.443ZM697.525 500.443C698.63 500.443 699.525 499.548 699.525 498.443C699.525 497.339 698.63 496.443 697.525 496.443C696.421 496.443 695.525 497.339 695.525 498.443C695.525 499.548 696.421 500.443 697.525 500.443ZM715.525 498.443C715.525 499.548 714.63 500.443 713.525 500.443C712.421 500.443 711.525 499.548 711.525 498.443C711.525 497.339 712.421 496.443 713.525 496.443C714.63 496.443 715.525 497.339 715.525 498.443ZM729.525 500.443C730.63 500.443 731.525 499.548 731.525 498.443C731.525 497.339 730.63 496.443 729.525 496.443C728.421 496.443 727.525 497.339 727.525 498.443C727.525 499.548 728.421 500.443 729.525 500.443ZM747.525 498.443C747.525 499.548 746.63 500.443 745.525 500.443C744.421 500.443 743.525 499.548 743.525 498.443C743.525 497.339 744.421 496.443 745.525 496.443C746.63 496.443 747.525 497.339 747.525 498.443ZM761.525 500.443C762.63 500.443 763.525 499.548 763.525 498.443C763.525 497.339 762.63 496.443 761.525 496.443C760.421 496.443 759.525 497.339 759.525 498.443C759.525 499.548 760.421 500.443 761.525 500.443ZM689.525 468.443C690.63 468.443 691.525 467.548 691.525 466.443C691.525 465.339 690.63 464.443 689.525 464.443C688.421 464.443 687.525 465.339 687.525 466.443C687.525 467.548 688.421 468.443 689.525 468.443ZM779.525 498.443C779.525 499.548 778.63 500.443 777.525 500.443C776.421 500.443 775.525 499.548 775.525 498.443C775.525 497.339 776.421 496.443 777.525 496.443C778.63 496.443 779.525 497.339 779.525 498.443ZM777.525 516.443C778.63 516.443 779.525 515.548 779.525 514.443C779.525 513.339 778.63 512.443 777.525 512.443C776.421 512.443 775.525 513.339 775.525 514.443C775.525 515.548 776.421 516.443 777.525 516.443ZM793.525 516.443C794.63 516.443 795.525 515.548 795.525 514.443C795.525 513.339 794.63 512.443 793.525 512.443C792.421 512.443 791.525 513.339 791.525 514.443C791.525 515.548 792.421 516.443 793.525 516.443ZM811.525 514.443C811.525 515.548 810.63 516.443 809.525 516.443C808.421 516.443 807.525 515.548 807.525 514.443C807.525 513.339 808.421 512.443 809.525 512.443C810.63 512.443 811.525 513.339 811.525 514.443ZM825.525 516.443C826.63 516.443 827.525 515.548 827.525 514.443C827.525 513.339 826.63 512.443 825.525 512.443C824.421 512.443 823.525 513.339 823.525 514.443C823.525 515.548 824.421 516.443 825.525 516.443ZM843.525 514.443C843.525 515.548 842.63 516.443 841.525 516.443C840.421 516.443 839.525 515.548 839.525 514.443C839.525 513.339 840.421 512.443 841.525 512.443C842.63 512.443 843.525 513.339 843.525 514.443ZM857.525 516.443C858.63 516.443 859.525 515.548 859.525 514.443C859.525 513.339 858.63 512.443 857.525 512.443C856.421 512.443 855.525 513.339 855.525 514.443C855.525 515.548 856.421 516.443 857.525 516.443ZM793.525 500.443C794.63 500.443 795.525 499.548 795.525 498.443C795.525 497.339 794.63 496.443 793.525 496.443C792.421 496.443 791.525 497.339 791.525 498.443C791.525 499.548 792.421 500.443 793.525 500.443ZM811.525 498.443C811.525 499.548 810.63 500.443 809.525 500.443C808.421 500.443 807.525 499.548 807.525 498.443C807.525 497.339 808.421 496.443 809.525 496.443C810.63 496.443 811.525 497.339 811.525 498.443ZM825.525 500.443C826.63 500.443 827.525 499.548 827.525 498.443C827.525 497.339 826.63 496.443 825.525 496.443C824.421 496.443 823.525 497.339 823.525 498.443C823.525 499.548 824.421 500.443 825.525 500.443ZM843.525 498.443C843.525 499.548 842.63 500.443 841.525 500.443C840.421 500.443 839.525 499.548 839.525 498.443C839.525 497.339 840.421 496.443 841.525 496.443C842.63 496.443 843.525 497.339 843.525 498.443ZM857.525 500.443C858.63 500.443 859.525 499.548 859.525 498.443C859.525 497.339 858.63 496.443 857.525 496.443C856.421 496.443 855.525 497.339 855.525 498.443C855.525 499.548 856.421 500.443 857.525 500.443ZM705.525 468.443C706.63 468.443 707.525 467.548 707.525 466.443C707.525 465.339 706.63 464.443 705.525 464.443C704.421 464.443 703.525 465.339 703.525 466.443C703.525 467.548 704.421 468.443 705.525 468.443ZM723.525 466.443C723.525 467.548 722.63 468.443 721.525 468.443C720.421 468.443 719.525 467.548 719.525 466.443C719.525 465.339 720.421 464.443 721.525 464.443C722.63 464.443 723.525 465.339 723.525 466.443ZM737.525 468.443C738.63 468.443 739.525 467.548 739.525 466.443C739.525 465.339 738.63 464.443 737.525 464.443C736.421 464.443 735.525 465.339 735.525 466.443C735.525 467.548 736.421 468.443 737.525 468.443ZM755.525 466.443C755.525 467.548 754.63 468.443 753.525 468.443C752.421 468.443 751.525 467.548 751.525 466.443C751.525 465.339 752.421 464.443 753.525 464.443C754.63 464.443 755.525 465.339 755.525 466.443Z" fill="white"/>
</g>
</g>
<path d="M285 202.5C285 211.06 278.06 218 269.5 218C260.94 218 254 211.06 254 202.5C254 193.94 260.94 187 269.5 187C278.06 187 285 193.94 285 202.5Z" stroke="#F07867" stroke-width="4"/>
<path d="M1016 351C1020.97 351 1025 346.971 1025 342C1025 337.029 1020.97 333 1016 333C1011.03 333 1007 337.029 1007 342C1007 346.971 1011.03 351 1016 351Z" fill="#FACE55"/>
<path d="M1197 98.4019C1196.07 97.866 1194.93 97.866 1194 98.4019L1176.25 108.652C1175.32 109.188 1174.75 110.178 1174.75 111.25V131.75C1174.75 132.822 1175.32 133.812 1176.25 134.348L1194 144.598C1194.93 145.134 1196.07 145.134 1197 144.598L1214.75 134.348C1215.68 133.812 1216.25 132.822 1216.25 131.75V111.25C1216.25 110.178 1215.68 109.188 1214.75 108.652L1197 98.4019Z" stroke="#79E6F8" stroke-width="6" stroke-linejoin="round"/>
<defs>
<clipPath id="clip0_14_759">
<rect width="74" height="103" fill="white" transform="translate(989)"/>
</clipPath>
</defs>
</svg>
