<svg width="1440" height="613" viewBox="0 0 1440 613" fill="none" xmlns="http://www.w3.org/2000/svg">
<path d="M927.292 568.08C927.292 570.237 925.54 571.988 923.384 571.988C921.228 571.988 919.477 570.237 919.477 568.08C919.477 565.924 921.228 564.173 923.384 564.173C925.54 564.173 927.292 565.92 927.292 568.08Z" stroke="#4D2C5E" stroke-opacity="0.1" stroke-width="1.55655" stroke-miterlimit="10" stroke-linecap="round" stroke-linejoin="round"/>
<path d="M965.202 601.97C967.36 601.97 969.11 600.22 969.11 598.062C969.11 595.904 967.36 594.155 965.202 594.155C963.044 594.155 961.295 595.904 961.295 598.062C961.295 600.22 963.044 601.97 965.202 601.97Z" stroke="#4D2C5E" stroke-opacity="0.1" stroke-width="1.55655" stroke-miterlimit="10" stroke-linecap="round" stroke-linejoin="round"/>
<path d="M950.492 590.029C955.094 590.029 958.825 586.298 958.825 581.695C958.825 577.093 955.094 573.362 950.492 573.362C945.889 573.362 942.158 577.093 942.158 581.695C942.158 586.298 945.889 590.029 950.492 590.029Z" stroke="#4D2C5E" stroke-opacity="0.1" stroke-width="1.55655" stroke-miterlimit="10" stroke-linecap="round" stroke-linejoin="round"/>
<path d="M965.011 581.695L962.232 586.553L960.758 591.962L955.354 593.431L950.491 596.215L945.628 593.431L940.22 591.962L938.75 586.553L935.966 581.695L938.75 576.832L940.22 571.424L945.628 569.954L950.491 567.17L955.354 569.954L960.758 571.424L962.232 576.832L965.011 581.695Z" stroke="#4D2C5E" stroke-opacity="0.1" stroke-width="1.55655" stroke-miterlimit="10" stroke-linecap="round" stroke-linejoin="round"/>
<path d="M961.294 598.062C961.294 595.906 963.046 594.155 965.202 594.155C966.366 594.155 967.413 594.669 968.127 595.479C971.102 591.676 972.881 586.895 972.881 581.691C972.881 569.322 962.855 559.296 950.486 559.296C938.118 559.296 928.092 569.322 928.092 581.691C928.092 594.059 938.118 604.085 950.486 604.085C954.835 604.085 958.888 602.843 962.322 600.701C961.69 600.005 961.294 599.081 961.294 598.062Z" stroke="#4D2C5E" stroke-opacity="0.1" stroke-width="1.55655" stroke-miterlimit="10" stroke-linecap="round" stroke-linejoin="round"/>
<path d="M950.492 551.39C940.043 551.39 930.827 556.681 925.382 564.728C926.523 565.41 927.292 566.656 927.292 568.085C927.292 570.241 925.541 571.992 923.385 571.992C922.852 571.992 922.347 571.883 921.888 571.692C920.792 574.826 920.191 578.188 920.191 581.695C920.191 598.431 933.761 612 950.496 612C967.232 612 980.801 598.431 980.801 581.695C980.801 564.96 967.227 551.39 950.492 551.39Z" stroke="#4D2C5E" stroke-opacity="0.1" stroke-width="1.55655" stroke-miterlimit="10" stroke-linecap="round" stroke-linejoin="round"/>
<path d="M1041.16 65.1081L1022.36 58.7223C1020.38 58.0493 1019.31 55.8902 1019.99 53.9034C1020.66 51.9166 1022.82 50.8559 1024.8 51.529L1043.6 57.9147C1045.59 58.5877 1046.65 60.7468 1045.98 62.7282C1045.3 64.7204 1043.15 65.7865 1041.16 65.1081Z" stroke="#4D2C5E" stroke-opacity="0.1" stroke-width="2.33483" stroke-miterlimit="10"/>
<path d="M1038.69 72.3874L1019.89 66.0016C1017.9 65.3286 1016.84 63.1695 1017.52 61.1881C1018.19 59.2013 1020.35 58.1406 1022.34 58.8136L1041.14 65.194C1043.12 65.867 1044.19 68.0261 1043.51 70.0129C1042.83 71.9997 1040.68 73.0604 1038.69 72.3874Z" stroke="#4D2C5E" stroke-opacity="0.1" stroke-width="2.33483" stroke-miterlimit="10"/>
<path d="M1021.98 31.8922C1022 31.9568 1022.02 32.016 1022.04 32.0807C1022.46 33.4213 1024.94 41.9177 1023.9 51.3456L1044.07 58.0005C1048.85 49.8111 1055.9 44.4645 1057.04 43.6353C1057.09 43.5976 1057.15 43.5599 1057.19 43.5222C1057.74 43.1292 1058.28 42.7092 1058.79 42.2623C1061.83 39.6402 1064.22 36.1888 1065.57 32.1076C1069.53 20.0899 1063.01 7.12994 1050.99 3.16173C1038.97 -0.806472 1026.01 5.71927 1022.04 17.737C1020.69 21.8236 1020.56 26.018 1021.44 29.9323C1021.59 30.5892 1021.77 31.2461 1021.98 31.8922Z" stroke="#4D2C5E" stroke-opacity="0.1" stroke-width="2.33483" stroke-miterlimit="10"/>
<path d="M1020.92 66.4434C1020.69 70.4277 1023.15 74.2236 1027.12 75.5374C1031.04 76.8296 1035.21 75.2951 1037.43 72.0484L1020.92 66.4434Z" stroke="#4D2C5E" stroke-opacity="0.1" stroke-width="2.33483" stroke-miterlimit="10"/>
<path d="M1030.22 53.3216L1036.21 35.1605C1036.8 33.3729 1035.83 31.4453 1034.04 30.8531C1032.25 30.2608 1030.33 31.2354 1029.73 33.0229C1029.14 34.8105 1030.12 36.7381 1031.9 37.3304L1039.1 39.7048" stroke="#4D2C5E" stroke-opacity="0.1" stroke-width="2.33483" stroke-miterlimit="10"/>
<path d="M1038.12 55.933L1044.12 37.7719C1044.71 35.9843 1046.64 35.0151 1048.42 35.602C1050.21 36.1943 1051.18 38.1218 1050.59 39.9094C1050 41.697 1048.07 42.6662 1046.29 42.0793L1039.09 39.7048" stroke="#4D2C5E" stroke-opacity="0.1" stroke-width="2.33483" stroke-miterlimit="10"/>
<path d="M1069.83 38.3643L1075.9 40.3726" stroke="#4D2C5E" stroke-opacity="0.1" stroke-width="2.33483" stroke-miterlimit="10" stroke-linecap="round"/>
<path d="M1072.61 30.7132L1078.94 29.7603" stroke="#4D2C5E" stroke-opacity="0.1" stroke-width="2.33483" stroke-miterlimit="10" stroke-linecap="round"/>
<path d="M1065.58 44.9277L1070.09 49.4613" stroke="#4D2C5E" stroke-opacity="0.1" stroke-width="2.33483" stroke-miterlimit="10" stroke-linecap="round"/>
<path d="M1013.42 19.7456L1007.34 17.7427" stroke="#4D2C5E" stroke-opacity="0.1" stroke-width="2.33483" stroke-miterlimit="10" stroke-linecap="round"/>
<path d="M1015.73 11.9383L1011.22 7.40479" stroke="#4D2C5E" stroke-opacity="0.1" stroke-width="2.33483" stroke-miterlimit="10" stroke-linecap="round"/>
<path d="M1012.92 27.5474L1006.6 28.5004" stroke="#4D2C5E" stroke-opacity="0.1" stroke-width="2.33483" stroke-miterlimit="10" stroke-linecap="round"/>
<path d="M1393.61 69.4723C1411.12 69.4723 1425.3 62.7473 1425.3 54.4515C1425.3 46.1557 1411.12 39.4307 1393.61 39.4307C1376.11 39.4307 1361.93 46.1557 1361.93 54.4515C1361.93 62.7473 1376.11 69.4723 1393.61 69.4723Z" stroke="#4D2C5E" stroke-opacity="0.1" stroke-width="2.33483" stroke-miterlimit="10" stroke-linecap="round" stroke-linejoin="round"/>
<path d="M1406.43 62.2809C1415.53 47.3331 1417.16 31.7185 1410.08 27.4047C1402.99 23.0909 1389.87 31.7115 1380.77 46.6593C1371.67 61.6071 1370.04 77.2216 1377.12 81.5354C1384.21 85.8492 1397.33 77.2287 1406.43 62.2809Z" stroke="#4D2C5E" stroke-opacity="0.1" stroke-width="2.33483" stroke-miterlimit="10" stroke-linecap="round" stroke-linejoin="round"/>
<path d="M1410.07 81.5289C1417.16 77.2151 1415.52 61.6005 1406.42 46.6527C1397.32 31.7049 1384.2 23.0844 1377.12 27.3982C1370.03 31.712 1371.66 47.3266 1380.77 62.2743C1389.87 77.2221 1402.99 85.8427 1410.07 81.5289Z" stroke="#4D2C5E" stroke-opacity="0.1" stroke-width="2.33483" stroke-miterlimit="10" stroke-linecap="round" stroke-linejoin="round"/>
<path d="M1393.61 58.4276C1395.81 58.4276 1397.59 56.6474 1397.59 54.4513C1397.59 52.2553 1395.81 50.4751 1393.61 50.4751C1391.42 50.4751 1389.64 52.2553 1389.64 54.4513C1389.64 56.6474 1391.42 58.4276 1393.61 58.4276Z" stroke="#4D2C5E" stroke-opacity="0.1" stroke-width="2.33483" stroke-miterlimit="10" stroke-linecap="round" stroke-linejoin="round"/>
<path d="M1404.76 528.513L1378.6 534.553L1377.42 529.453C1377.15 528.271 1377.88 527.094 1379.06 526.818L1400.95 521.763C1402.13 521.493 1403.31 522.225 1403.59 523.407L1404.76 528.513Z" stroke="#4D2C5E" stroke-opacity="0.1" stroke-width="2.33483" stroke-miterlimit="10" stroke-linecap="round"/>
<path d="M1396.16 501.085C1407.69 491.785 1409.51 474.897 1400.21 463.364C1390.91 451.83 1374.02 450.019 1362.48 459.318C1350.95 468.618 1349.14 485.506 1358.44 497.039C1367.74 508.573 1384.63 510.384 1396.16 501.085Z" stroke="#4D2C5E" stroke-opacity="0.1" stroke-width="2.33483" stroke-miterlimit="10"/>
<path d="M1391.81 503.934L1366.79 456.476L1363.67 450.717C1347.36 459.314 1341.11 479.501 1349.7 495.81C1358.3 512.119 1378.49 518.368 1394.8 509.771L1391.74 503.973" stroke="#4D2C5E" stroke-opacity="0.1" stroke-width="2.33483" stroke-miterlimit="10" stroke-linecap="round" stroke-linejoin="round"/>
<path d="M1372.3 466.875C1380.49 462.557 1385.9 456.722 1384.38 453.842C1382.87 450.963 1375 452.129 1366.8 456.447C1358.61 460.766 1353.21 466.601 1354.72 469.481C1356.24 472.36 1364.11 471.194 1372.3 466.875Z" stroke="#4D2C5E" stroke-opacity="0.1" stroke-width="2.33483" stroke-miterlimit="10"/>
<path d="M1374.23 506.54C1380.01 507.655 1386.2 506.895 1391.81 503.934C1397.42 500.973 1401.55 496.3 1403.89 490.901C1398.11 489.787 1391.93 490.547 1386.31 493.508C1380.69 496.469 1376.57 501.142 1374.23 506.54Z" stroke="#4D2C5E" stroke-opacity="0.1" stroke-width="2.33483" stroke-miterlimit="10"/>
<path d="M1391.83 503.905C1398.38 500.451 1398.09 487.027 1391.18 473.921C1384.27 460.816 1373.36 452.992 1366.81 456.446C1360.25 459.901 1360.54 473.325 1367.45 486.43C1374.36 499.535 1385.28 507.359 1391.83 503.905Z" stroke="#4D2C5E" stroke-opacity="0.1" stroke-width="2.33483" stroke-miterlimit="10"/>
<path d="M1355.57 492.714L1403.03 467.696" stroke="#4D2C5E" stroke-opacity="0.1" stroke-width="2.33483" stroke-miterlimit="10"/>
<path d="M1387.09 512.693L1389.86 524.245" stroke="#4D2C5E" stroke-opacity="0.1" stroke-width="2.33483" stroke-miterlimit="10"/>
<path d="M1375.45 535.628L1408.81 527.629" stroke="#4D2C5E" stroke-opacity="0.1" stroke-width="2.33483" stroke-miterlimit="10" stroke-linecap="round"/>
<path d="M1422.66 361.018L1436.62 347.058L1397.94 308.374L1383.98 322.335L1422.66 361.018Z" stroke="#4D2C5E" stroke-opacity="0.1" stroke-width="2.33483" stroke-miterlimit="10" stroke-linecap="round" stroke-linejoin="round"/>
<path d="M1440.4 364.795L1436.62 347.055L1422.66 361.016L1440.4 364.795Z" stroke="#4D2C5E" stroke-opacity="0.1" stroke-width="2.33483" stroke-miterlimit="10" stroke-linecap="round" stroke-linejoin="round"/>
<path d="M1438.63 356.518L1432.12 363.032" stroke="#4D2C5E" stroke-opacity="0.1" stroke-width="2.33483" stroke-miterlimit="10" stroke-linecap="round" stroke-linejoin="round"/>
<path d="M1379.87 311.692L1387.29 304.269C1389.1 302.462 1392.02 302.462 1393.83 304.269L1397.93 308.374L1383.97 322.335L1379.87 318.23C1378.06 316.423 1378.06 313.492 1379.87 311.692Z" stroke="#4D2C5E" stroke-opacity="0.1" stroke-width="2.33483" stroke-miterlimit="10" stroke-linecap="round" stroke-linejoin="round"/>
<path d="M1401.71 312.14L1387.74 326.107" stroke="#4D2C5E" stroke-opacity="0.1" stroke-width="2.33483" stroke-miterlimit="10" stroke-linecap="round" stroke-linejoin="round"/>
<path d="M1429.64 354.035L1394.72 319.127" stroke="#4D2C5E" stroke-opacity="0.1" stroke-width="2.33483" stroke-miterlimit="10" stroke-linecap="round" stroke-linejoin="round"/>
<path d="M331.385 529.774L328.816 535.631" stroke="#4D2C5E" stroke-opacity="0.1" stroke-width="3.1131" stroke-miterlimit="10" stroke-linecap="round" stroke-linejoin="round"/>
<path d="M350.034 537.956L347.464 543.812" stroke="#4D2C5E" stroke-opacity="0.1" stroke-width="3.1131" stroke-miterlimit="10" stroke-linecap="round" stroke-linejoin="round"/>
<path d="M368.69 546.133L366.12 551.99" stroke="#4D2C5E" stroke-opacity="0.1" stroke-width="3.1131" stroke-miterlimit="10" stroke-linecap="round" stroke-linejoin="round"/>
<path d="M318.902 524.3L317.617 527.233" stroke="#4D2C5E" stroke-opacity="0.1" stroke-width="3.1131" stroke-miterlimit="10" stroke-linecap="round" stroke-linejoin="round"/>
<path d="M325.143 527.042L323.859 529.966" stroke="#4D2C5E" stroke-opacity="0.1" stroke-width="3.1131" stroke-miterlimit="10" stroke-linecap="round" stroke-linejoin="round"/>
<path d="M337.59 532.494L336.305 535.427" stroke="#4D2C5E" stroke-opacity="0.1" stroke-width="3.1131" stroke-miterlimit="10" stroke-linecap="round" stroke-linejoin="round"/>
<path d="M343.825 535.231L342.545 538.159" stroke="#4D2C5E" stroke-opacity="0.1" stroke-width="3.1131" stroke-miterlimit="10" stroke-linecap="round" stroke-linejoin="round"/>
<path d="M356.275 540.688L354.99 543.621" stroke="#4D2C5E" stroke-opacity="0.1" stroke-width="3.1131" stroke-miterlimit="10" stroke-linecap="round" stroke-linejoin="round"/>
<path d="M375.233 549.002L373.953 551.931" stroke="#4D2C5E" stroke-opacity="0.1" stroke-width="3.1131" stroke-miterlimit="10" stroke-linecap="round" stroke-linejoin="round"/>
<path d="M362.512 543.424L361.232 546.353" stroke="#4D2C5E" stroke-opacity="0.1" stroke-width="3.1131" stroke-miterlimit="10" stroke-linecap="round" stroke-linejoin="round"/>
<path d="M364.655 595.833L303.071 517.362L383.584 552.662L364.655 595.833Z" stroke="#4D2C5E" stroke-opacity="0.1" stroke-width="3.1131" stroke-miterlimit="10" stroke-linecap="round" stroke-linejoin="round"/>
<path d="M361.518 571.067L344.67 549.599L366.693 559.252L361.518 571.067Z" stroke="#4D2C5E" stroke-opacity="0.1" stroke-width="3.1131" stroke-miterlimit="10" stroke-linecap="round" stroke-linejoin="round"/>
<path d="M31.2563 504.301L6.06186 516.136C4.71461 516.774 3.10923 516.193 2.47191 514.845L0.858429 511.409C0.221104 510.062 0.801937 508.456 2.14919 507.819L27.3437 495.984C28.6909 495.347 30.2964 495.927 30.9337 497.275L32.5472 500.711C33.1845 502.067 32.6036 503.672 31.2563 504.301Z" stroke="#4D2C5E" stroke-opacity="0.1" stroke-width="3.1131" stroke-miterlimit="10" stroke-linecap="round"/>
<path d="M41.0421 531.182L28.7152 505.512L8.77252 515.088L21.0995 540.758L28.8765 583.709C31.4339 589.042 37.8313 591.284 43.1558 588.727L64.6877 578.385C70.0203 575.827 72.263 569.43 69.7056 564.105L41.0421 531.182Z" stroke="#4D2C5E" stroke-opacity="0.1" stroke-width="3.1131" stroke-miterlimit="10" stroke-linecap="round"/>
<path d="M24.6007 560.128C24.6007 560.128 28.7151 553.464 39.6545 553.843C50.5939 554.223 52.4332 544.259 52.4332 544.259" stroke="#4D2C5E" stroke-opacity="0.1" stroke-width="3.1131" stroke-miterlimit="10" stroke-linecap="round"/>
<path d="M66.3328 89.096C75.9032 89.096 83.6615 81.3377 83.6615 71.7672C83.6615 62.1968 75.9032 54.4385 66.3328 54.4385C56.7624 54.4385 49.004 62.1968 49.004 71.7672C49.004 81.3377 56.7624 89.096 66.3328 89.096Z" stroke="#4D2C5E" stroke-opacity="0.1" stroke-width="3.1131" stroke-miterlimit="10" stroke-linecap="round" stroke-linejoin="round"/>
<path d="M90.6233 106.215C94.4506 106.215 97.5531 103.112 97.5531 99.2849C97.5531 95.4576 94.4506 92.355 90.6233 92.355C86.796 92.355 83.6934 95.4576 83.6934 99.2849C83.6934 103.112 86.796 106.215 90.6233 106.215Z" stroke="#4D2C5E" stroke-opacity="0.1" stroke-width="3.1131" stroke-miterlimit="10" stroke-linecap="round" stroke-linejoin="round"/>
</svg>
