<svg width="521" height="522" viewBox="0 0 521 522" fill="none" xmlns="http://www.w3.org/2000/svg">
<path d="M276.77 521.751C392.07 521.751 485.54 516.065 485.54 509.052C485.54 502.039 392.07 496.354 276.77 496.354C161.469 496.354 67.9998 502.039 67.9998 509.052C67.9998 516.065 161.469 521.751 276.77 521.751Z" fill="#CED3E6"/>
<path d="M263.758 155.424L284.846 232.538L277.321 223.875C280.103 225.359 283.332 226.498 286.892 227.291C290.452 228.098 294.344 228.559 298.409 228.761C302.474 228.977 306.711 228.934 311.05 228.761C315.388 228.574 319.814 228.257 324.311 227.867H324.339C330.97 227.305 336.807 232.221 337.37 238.851C337.903 245.179 333.42 250.771 327.265 251.78C322.624 252.515 317.911 253.221 313.082 253.784C308.239 254.346 303.281 254.764 298.149 254.879C293.018 254.994 287.699 254.793 282.193 254C276.702 253.207 271.008 251.766 265.444 249.373C261.884 247.831 259.347 244.919 258.194 241.503L257.92 240.696L232.624 164.865C229.785 156.346 234.383 147.121 242.916 144.282C251.434 141.442 260.659 146.04 263.499 154.573C263.585 154.833 263.686 155.15 263.758 155.424Z" fill="#EA9B7A"/>
<path d="M271.88 434.964C271.563 434.964 271.246 434.907 270.929 434.791L160.461 394.966C159.02 394.447 158.27 392.847 158.789 391.406C159.308 389.964 160.908 389.2 162.349 389.734L272.817 429.559C274.259 430.078 275.023 431.678 274.489 433.119C274.1 434.258 273.019 434.964 271.88 434.964Z" fill="#C77E2E"/>
<path d="M156.809 434.965C155.67 434.965 154.604 434.259 154.186 433.12C153.667 431.679 154.416 430.079 155.858 429.546L267.637 389.057C269.079 388.538 270.678 389.288 271.212 390.729C271.731 392.17 270.981 393.77 269.54 394.304L157.76 434.792C157.443 434.908 157.126 434.965 156.809 434.965Z" fill="#C77E2E"/>
<path d="M281.713 506.142C279.364 506.142 277.317 504.398 276.986 502.005L257.037 353.009H173.538L153.891 502.005C153.546 504.614 151.153 506.459 148.544 506.113C145.935 505.767 144.09 503.374 144.436 500.766L164.63 347.647C164.947 345.269 166.965 343.496 169.358 343.496H261.217C263.61 343.496 265.628 345.269 265.945 347.633L286.456 500.751C286.802 503.36 284.971 505.767 282.362 506.113C282.131 506.128 281.93 506.142 281.713 506.142Z" fill="#FAAF3A"/>
<path d="M234.598 348.251H174.939C156.043 348.251 135.806 337.902 132.894 319.236C129.017 294.257 128.051 270.085 129.132 247.888C130.357 222.793 142.35 199.443 162.068 183.876C162.068 183.876 173.988 235.809 158.997 307.489C164.734 334.702 234.598 348.251 234.598 348.251Z" fill="#FAAF3A"/>
<path d="M222.159 43.6724C222.159 43.6724 215.068 26.5776 196.286 29.8063C183.17 32.0548 177.577 48.4001 178.341 73.6532C179.466 110.394 167.041 132.534 167.041 132.534L183.53 136.281C183.545 136.267 225.532 73.2784 222.159 43.6724Z" fill="#39393B"/>
<path d="M372.597 442.301H345.946C345.946 442.301 339.776 412.724 337.715 396.148C335.64 379.557 334.573 340.251 334.573 340.251C334.573 340.251 313.341 347.155 268.889 344.546C170.399 338.795 207.746 266.438 207.746 266.438C211.075 271.036 231.456 267.85 245.395 270.041C288.16 274.149 325.233 290.927 347.488 300.526C352.85 302.832 357.606 305.283 361.786 307.863C367.148 311.164 370.507 321.21 372.539 334.399C378.607 374.051 372.597 442.301 372.597 442.301Z" fill="#39393B"/>
<path d="M349.272 428.046C348.825 428.046 348.436 427.729 348.335 427.282C344.486 408.256 343.203 384.574 342.166 365.548C341.301 349.765 340.494 334.861 338.461 333.073C336.818 331.618 330 332.756 321.381 334.183C304.214 337.037 278.269 341.333 249.672 334.688C234.091 331.055 222.632 323.488 215.626 312.188C203.533 292.7 209.054 268.528 209.111 268.283C209.227 267.764 209.746 267.447 210.264 267.577C210.783 267.692 211.1 268.211 210.971 268.73C210.913 268.961 205.594 292.383 217.27 311.193C224.001 322.047 235.056 329.326 250.119 332.828C278.355 339.401 304.07 335.135 321.093 332.309C331.283 330.623 337.438 329.6 339.758 331.646C342.266 333.866 342.973 344.763 344.097 365.447C345.135 384.416 346.418 408.011 350.237 426.908C350.338 427.426 350.007 427.931 349.488 428.032C349.387 428.046 349.329 428.046 349.272 428.046Z" fill="#585859"/>
<path d="M373.102 428.552H373.088L343.453 427.917C342.919 427.903 342.501 427.471 342.516 426.937C342.53 426.404 342.963 425.986 343.496 426L373.131 426.635C373.664 426.649 374.082 427.081 374.068 427.615C374.053 428.134 373.621 428.552 373.102 428.552Z" fill="#585859"/>
<path d="M371.874 476.433H353.064L349.446 454.38L347.457 442.301H370.822L371.196 454.38L371.874 476.433Z" fill="#EA9B7A"/>
<path d="M371.879 476.433H353.069L350.373 460.016L349.451 454.38H371.201L371.389 460.217L371.879 476.433Z" fill="#FAAF3A"/>
<path d="M371.389 460.217L350.373 460.016L349.451 454.38H371.201L371.389 460.217Z" fill="#C77E2E"/>
<path d="M418.276 506.141H347.144C346.61 505.176 346.322 503.821 346.207 502.192C345.76 496.167 347.677 486.567 348.614 480.514C348.729 479.807 348.83 479.144 348.902 478.553C349.032 477.544 349.118 476.694 349.118 476.074C349.118 471.13 353.486 471.981 353.486 471.981C360.678 479.043 368.837 468.449 373.593 471.923C373.593 471.923 373.781 472.067 374.227 472.399C374.631 472.716 375.236 473.206 376.072 473.912C377.283 474.921 378.984 476.391 381.29 478.467C386.94 483.555 396.54 486.899 404.713 490.315C405.75 490.747 406.716 491.194 407.624 491.627C408.302 491.958 408.95 492.29 409.556 492.607C416.244 496.21 418.363 499.67 418.853 502.178C419.328 504.599 418.276 506.141 418.276 506.141Z" fill="#0875F7"/>
<path d="M409.565 492.619C407.734 494.075 403.655 497.001 400.383 497.001C400.239 497.001 400.095 497.001 399.951 496.987C397.644 496.799 389.169 492.634 382.265 488.843C378.315 486.666 374.697 484.533 372.103 482.818C367.851 480.007 367.101 478.941 366.943 478.191C366.323 475.38 370.964 473.435 374.222 472.411C374.625 472.728 375.231 473.218 376.067 473.925C372.031 475.02 368.701 476.75 368.86 477.744C369.263 478.58 373.472 481.78 383.533 487.301C391.216 491.51 398.495 494.897 400.109 495.041C402.3 495.214 405.514 493.225 407.619 491.654C408.311 491.971 408.959 492.302 409.565 492.619Z" fill="#084FC7"/>
<path d="M418.28 506.142H347.148C346.614 505.176 346.326 503.821 346.211 502.192H418.871C419.332 504.599 418.28 506.142 418.28 506.142Z" fill="#084FC7"/>
<path d="M354.396 506.141H352.277C354.381 503.734 356.356 500.029 356.097 494.754C355.751 487.72 351.542 482.992 348.601 480.513C348.717 479.807 348.818 479.144 348.89 478.553C352.046 480.96 357.365 486.25 357.783 494.667C358.057 499.712 356.399 503.474 354.396 506.141Z" fill="#084FC7"/>
<path d="M380.11 482.674C379.591 482.674 379.101 482.314 378.971 481.78C378.812 481.146 379.201 480.512 379.821 480.353L384.261 479.243C384.895 479.085 385.529 479.474 385.688 480.094C385.846 480.728 385.457 481.362 384.837 481.521L380.398 482.631C380.297 482.66 380.196 482.674 380.11 482.674Z" fill="white"/>
<path d="M375.688 478.984C375.169 478.984 374.679 478.624 374.549 478.091C374.39 477.457 374.779 476.822 375.399 476.664L379.839 475.554C380.473 475.395 381.107 475.785 381.266 476.404C381.424 477.039 381.035 477.673 380.415 477.817L375.976 478.927C375.875 478.97 375.774 478.984 375.688 478.984Z" fill="white"/>
<path d="M384.557 485.254C384.038 485.254 383.548 484.894 383.418 484.361C383.26 483.726 383.649 483.092 384.269 482.948L388.708 481.838C389.342 481.68 389.976 482.069 390.135 482.689C390.294 483.323 389.904 483.957 389.285 484.116L384.845 485.225C384.744 485.254 384.658 485.254 384.557 485.254Z" fill="white"/>
<path d="M388.973 487.749C388.44 487.749 387.964 487.389 387.834 486.856C387.676 486.221 388.065 485.587 388.685 485.429L393.124 484.319C393.758 484.16 394.392 484.549 394.551 485.169C394.71 485.803 394.32 486.437 393.701 486.582L389.261 487.691C389.175 487.735 389.074 487.749 388.973 487.749Z" fill="white"/>
<path d="M393.834 490.039C393.315 490.039 392.825 489.679 392.695 489.146C392.537 488.512 392.926 487.877 393.546 487.733L397.985 486.623C398.619 486.465 399.254 486.854 399.412 487.474C399.571 488.108 399.182 488.742 398.562 488.901L394.122 490.011C394.021 490.025 393.921 490.039 393.834 490.039Z" fill="white"/>
<path d="M399.096 492C398.577 492 398.087 491.64 397.957 491.106C397.799 490.472 398.188 489.838 398.808 489.679L403.247 488.57C403.881 488.411 404.516 488.8 404.674 489.42C404.833 490.054 404.443 490.688 403.824 490.833L399.384 491.942C399.283 491.986 399.197 492 399.096 492Z" fill="white"/>
<path d="M158.435 243.491C158.435 243.491 157.599 249.242 165.296 250.857L245.552 253.538C245.552 253.538 250.971 250.814 249.991 244.097C249.991 244.082 216.104 225.042 158.435 243.491Z" fill="#084FC7"/>
<path d="M246.646 270.027C204.99 292.945 159.5 274.495 159.5 274.495C161.719 268.427 163.377 261.58 164.573 255.354C165.957 248.103 166.736 241.704 167.096 238.345C184.81 237.38 228.254 235.52 245.277 239.556L245.406 246.374L246.646 270.027Z" fill="#EA9B7A"/>
<path d="M215.873 259.043C215.57 261.19 214.59 262.833 213.711 262.704C212.817 262.574 212.356 260.729 212.659 258.581C212.962 256.434 213.942 254.791 214.821 254.92C215.715 255.05 216.176 256.895 215.873 259.043Z" fill="#D96C63"/>
<path d="M245.397 246.373C227.654 245.292 192.758 244.917 164.564 255.338C165.948 248.088 166.726 241.688 167.087 238.33C184.801 237.364 228.245 235.505 245.267 239.54L245.397 246.373Z" fill="#D96C63"/>
<path d="M265.187 213.411C265.014 213.93 264.813 214.405 264.582 214.852C264.495 215.025 264.409 215.198 264.323 215.357C262.088 219.493 258.643 223.082 255.746 225.634C255.141 226.167 254.564 226.643 254.031 227.075C252.964 227.94 252.056 228.617 251.437 229.064C250.86 229.468 250.528 229.684 250.528 229.684C250.528 229.727 250.528 229.756 250.514 229.814C250.485 230.116 250.456 230.448 250.428 230.794C250.327 232.105 250.24 233.662 250.183 235.449C250.125 236.876 250.082 238.448 250.053 240.148C250.038 241.402 250.01 242.714 249.995 244.069C226.457 233.547 177.969 240.192 158.438 243.478C158.799 241.792 159.116 240.134 159.419 238.52C160.802 231.068 161.581 224.365 161.883 218.355C162.345 209.418 161.566 195.984 159.664 182.104C159.548 181.196 159.419 180.302 159.289 179.408C159.202 178.817 159.116 178.241 159.015 177.65C158.352 173.297 157.574 168.93 156.694 164.692C152.846 146.213 155.541 126.827 174.279 124.535C175.634 124.362 176.975 124.218 178.286 124.074C187.108 123.137 194.372 122.805 196.39 122.733C196.765 122.719 196.952 122.719 196.952 122.719L233.16 133.241L236.605 134.235C238.579 134.87 240.41 135.489 242.111 136.095C242.831 136.354 243.538 136.614 244.201 136.859C245.959 137.522 247.545 138.156 249.001 138.805C251.898 140.087 254.19 141.341 256.006 142.624C263.948 148.26 262.723 154.631 262.521 167.214C262.521 167.272 262.521 167.33 262.521 167.387C262.521 167.546 262.521 167.704 262.521 167.877C262.521 167.949 262.521 168.021 262.521 168.094C262.521 168.612 262.521 169.117 262.521 169.636C262.535 171.265 262.593 172.879 262.694 174.493C262.823 176.872 263.04 179.235 263.299 181.542C263.4 182.464 263.501 183.387 263.616 184.309C263.717 185.174 263.832 186.024 263.948 186.875C265.36 197.887 267.162 207.544 265.187 213.411Z" fill="#0875F7"/>
<path d="M262.507 167.386C262.507 167.545 262.507 167.704 262.507 167.877C262.507 167.949 262.507 168.021 262.507 168.093C262.507 168.612 262.507 169.116 262.507 169.635L254.896 174.406C254.665 174.55 254.406 174.593 254.147 174.55C253.858 174.507 253.599 174.334 253.426 174.074C253.109 173.57 253.267 172.921 253.757 172.604L261.829 167.545C262.031 167.415 262.276 167.372 262.507 167.386Z" fill="#084FC7"/>
<path d="M212.347 208.148C212.059 208.148 211.77 208.033 211.554 207.802C211.165 207.37 211.194 206.692 211.626 206.303L218.703 199.932C219.136 199.543 219.813 199.572 220.203 200.004C220.592 200.437 220.563 201.114 220.13 201.504L213.053 207.874C212.851 208.047 212.592 208.148 212.347 208.148Z" fill="#084FC7"/>
<path d="M263.918 186.874L259.075 191.241C258.873 191.428 258.614 191.515 258.368 191.515C258.08 191.515 257.792 191.399 257.576 191.169C257.187 190.736 257.215 190.059 257.648 189.67L263.586 184.322C263.687 185.173 263.803 186.023 263.918 186.874Z" fill="#084FC7"/>
<path d="M197.993 182.521C197.834 182.276 197.762 181.973 197.834 181.671C197.964 181.094 198.541 180.748 199.117 180.878L208.385 183.069C208.962 183.198 209.308 183.775 209.178 184.352C209.048 184.928 208.472 185.274 207.895 185.144L198.627 182.953C198.353 182.896 198.137 182.737 197.993 182.521Z" fill="#084FC7"/>
<path d="M164.908 200.712C164.619 200.712 164.331 200.596 164.115 200.366C163.726 199.933 163.754 199.256 164.187 198.867L171.264 192.496C171.696 192.107 172.374 192.136 172.763 192.568C173.152 193 173.123 193.678 172.691 194.067L165.614 200.438C165.412 200.625 165.167 200.712 164.908 200.712Z" fill="#084FC7"/>
<path d="M247.301 199.198C247.387 198.925 247.603 198.68 247.877 198.564C248.411 198.334 249.045 198.579 249.275 199.112L253.081 207.847C253.311 208.38 253.066 209.014 252.533 209.245C252 209.476 251.365 209.231 251.135 208.697L247.329 199.962C247.229 199.703 247.229 199.429 247.301 199.198Z" fill="#084FC7"/>
<path d="M265.188 213.41C265.015 213.928 264.813 214.404 264.583 214.851C264.496 215.024 264.41 215.197 264.323 215.355L259.149 213.727C258.889 213.64 258.687 213.467 258.558 213.251C258.414 213.006 258.356 212.689 258.457 212.401C258.63 211.838 259.235 211.536 259.783 211.709L265.188 213.41Z" fill="#084FC7"/>
<path d="M235.952 214.173C236.24 214.145 236.543 214.231 236.773 214.447C237.206 214.836 237.235 215.514 236.845 215.946L230.446 222.995C230.056 223.427 229.379 223.456 228.947 223.067C228.514 222.678 228.485 222 228.875 221.568L235.274 214.519C235.462 214.318 235.707 214.202 235.952 214.173Z" fill="#084FC7"/>
<path d="M232.189 197.915C231.901 197.871 231.642 197.698 231.469 197.439C231.152 196.949 231.31 196.286 231.8 195.969L239.872 190.909C240.362 190.592 241.025 190.751 241.342 191.241C241.659 191.731 241.501 192.394 241.011 192.711L232.939 197.77C232.708 197.915 232.435 197.958 232.189 197.915Z" fill="#084FC7"/>
<path d="M237.336 167.242C237.524 167.458 237.639 167.747 237.596 168.064C237.538 168.64 237.005 169.073 236.428 169.001L226.958 167.963C226.382 167.905 225.949 167.372 226.021 166.795C226.079 166.219 226.612 165.786 227.189 165.858L236.659 166.896C236.918 166.925 237.163 167.055 237.336 167.242Z" fill="#084FC7"/>
<path d="M223.571 146.702C223.643 146.414 223.83 146.169 224.104 146.025C224.623 145.751 225.272 145.939 225.546 146.457L230.057 154.846C230.331 155.365 230.144 156.014 229.625 156.288C229.106 156.562 228.457 156.374 228.183 155.855L223.672 147.466C223.528 147.221 223.499 146.947 223.571 146.702Z" fill="#084FC7"/>
<path d="M255.759 225.647C255.153 226.181 254.577 226.656 254.044 227.089L252.804 223.918C252.703 223.658 252.703 223.399 252.804 223.154C252.905 222.88 253.121 222.649 253.409 222.534C253.957 222.318 254.577 222.592 254.793 223.139L255.759 225.647Z" fill="#084FC7"/>
<path d="M168.701 209.504C168.557 209.245 168.528 208.942 168.643 208.639C168.845 208.091 169.45 207.803 169.998 208.005L178.963 211.234C179.511 211.435 179.799 212.041 179.598 212.589C179.396 213.136 178.791 213.425 178.243 213.223L169.277 209.994C169.018 209.922 168.816 209.735 168.701 209.504Z" fill="#084FC7"/>
<path d="M173.083 221.626C173.371 221.626 173.659 221.756 173.876 221.986C174.265 222.419 174.222 223.096 173.789 223.485L166.654 229.799C166.222 230.188 165.544 230.145 165.155 229.712C164.766 229.28 164.809 228.602 165.242 228.213L172.377 221.9C172.578 221.712 172.838 221.626 173.083 221.626Z" fill="#084FC7"/>
<path d="M186.009 231.643C186.182 231.873 186.283 232.176 186.225 232.479C186.125 233.055 185.577 233.444 185 233.344L175.617 231.744C175.04 231.643 174.651 231.095 174.752 230.518C174.853 229.942 175.401 229.553 175.977 229.654L185.361 231.254C185.62 231.297 185.851 231.441 186.009 231.643Z" fill="#084FC7"/>
<path d="M193.867 142.48C193.795 142.206 193.823 141.889 193.996 141.629C194.313 141.139 194.977 140.995 195.467 141.312L203.466 146.472C203.956 146.789 204.101 147.452 203.783 147.942C203.466 148.433 202.803 148.577 202.313 148.26L194.313 143.099C194.083 142.941 193.924 142.725 193.867 142.48Z" fill="#084FC7"/>
<path d="M248.467 148.562C248.726 148.418 249.029 148.389 249.332 148.49C249.879 148.692 250.168 149.298 249.98 149.845L246.795 158.825C246.593 159.373 245.988 159.661 245.44 159.474C244.892 159.272 244.604 158.667 244.791 158.119L247.977 149.139C248.063 148.894 248.251 148.692 248.467 148.562Z" fill="#084FC7"/>
<path d="M244.187 136.873L239.272 143.186C238.911 143.647 238.248 143.734 237.787 143.373C237.326 143.013 237.239 142.35 237.6 141.889L242.097 136.123C242.818 136.354 243.524 136.613 244.187 136.873Z" fill="#084FC7"/>
<path d="M196.082 223.975C196.183 224.278 196.442 224.494 196.731 224.552C196.875 224.581 197.033 224.581 197.178 224.523C197.336 224.466 212.744 219.478 228.946 226.195C237.176 229.611 244.498 230.909 250.422 230.793C250.451 230.447 250.48 230.13 250.509 229.813C250.509 229.77 250.523 229.727 250.523 229.698C250.523 229.698 250.855 229.482 251.431 229.078C245.608 229.366 238.156 228.127 229.609 224.595C212.788 217.619 197.278 222.664 196.63 222.88C196.183 223.039 195.938 223.529 196.082 223.975Z" fill="#084FC7"/>
<path d="M233.136 133.24C231.104 136.382 226.924 139.943 218.448 139.337C206.759 138.487 199.062 127.33 196.381 122.747C196.741 122.732 196.943 122.732 196.943 122.732L233.136 133.24Z" fill="#084FC7"/>
<path d="M220.726 153.938C221.072 154.01 221.418 154.053 221.764 154.082C224.992 154.342 227.616 153.405 229.547 151.3C235.169 145.16 232.862 131.15 232.762 130.559C232.675 130.083 232.228 129.766 231.767 129.852C231.291 129.939 230.974 130.386 231.061 130.847C231.09 130.991 233.324 144.612 228.279 150.133C226.708 151.848 224.618 152.583 221.922 152.367C210.593 151.459 197.894 122.674 197.765 122.386C197.577 121.954 197.058 121.752 196.626 121.939C196.194 122.127 195.992 122.645 196.179 123.078C196.669 124.274 208.719 151.502 220.726 153.938Z" fill="white"/>
<path d="M256.005 142.623C255.255 150.925 257.302 164.633 262.664 174.492C262.534 172.373 262.476 170.226 262.505 168.092C262.505 168.02 262.505 167.948 262.505 167.876C262.505 167.66 262.52 167.444 262.52 167.227C262.707 154.644 263.932 148.259 256.005 142.623Z" fill="#EA9B7A"/>
<path d="M189.391 157.239C185.24 173.267 170.047 186.124 159.669 182.117C159.54 181.223 159.424 180.315 159.295 179.422C159.208 178.831 159.122 178.254 159.021 177.663C158.358 173.31 157.579 168.943 156.7 164.705C152.852 146.227 155.561 126.84 174.285 124.548C175.64 124.375 176.98 124.231 178.292 124.087C187.647 128.08 194.176 138.789 189.391 157.239Z" fill="#EA9B7A"/>
<path d="M191.532 145.017L215.863 234.008L207.186 224.004C210.4 225.705 214.119 227.031 218.241 227.954C222.349 228.876 226.846 229.41 231.531 229.655C236.23 229.9 241.116 229.857 246.118 229.655C251.119 229.453 256.236 229.078 261.425 228.631H261.454C269.108 227.983 275.839 233.647 276.488 241.301C277.107 248.594 271.933 255.066 264.812 256.219C259.465 257.07 254.016 257.877 248.438 258.526C242.86 259.174 237.138 259.65 231.199 259.794C225.275 259.924 219.135 259.708 212.793 258.785C206.465 257.863 199.892 256.219 193.464 253.438C189.356 251.665 186.43 248.292 185.104 244.357L184.801 243.434L155.599 155.913C152.312 146.083 157.631 135.446 167.461 132.159C177.292 128.873 187.929 134.192 191.215 144.022C191.345 144.339 191.446 144.714 191.532 145.017Z" fill="#EA9B7A"/>
<path d="M202.428 231.167C202.183 231.167 201.938 231.038 201.808 230.807C201.607 230.461 201.736 230.029 202.082 229.827C202.313 229.697 207.632 226.699 213.195 226.267C213.599 226.238 213.945 226.526 213.974 226.93C214.002 227.333 213.714 227.679 213.311 227.708C208.078 228.112 202.846 231.052 202.803 231.081C202.673 231.139 202.543 231.167 202.428 231.167Z" fill="#D96C63"/>
<path d="M211.279 227.954C211.15 227.954 211.02 227.925 210.905 227.853C207.546 225.82 203.481 225.503 203.438 225.503C203.035 225.474 202.746 225.128 202.775 224.739C202.804 224.336 203.136 224.047 203.539 224.076C203.712 224.091 207.993 224.408 211.64 226.627C211.986 226.829 212.087 227.276 211.885 227.622C211.755 227.824 211.51 227.954 211.279 227.954Z" fill="#D96C63"/>
<path d="M232.971 181.052C243.739 183.228 248.452 172.101 248.495 171.985C248.682 171.539 248.466 171.034 248.019 170.861C247.573 170.674 247.068 170.89 246.895 171.337C246.722 171.755 242.657 181.253 233.317 179.365C223.501 177.376 205.196 158.076 205.023 157.874C204.691 157.528 204.144 157.514 203.798 157.845C203.452 158.177 203.437 158.725 203.769 159.071C204.518 159.863 222.637 178.947 232.971 181.052Z" fill="#084FC7"/>
<path d="M216.047 110.955C216.047 110.955 198.765 107.697 193.893 90.2567C189.252 73.652 192.827 65.0325 197.655 56.0671C201.287 49.307 212.819 40.183 228.976 43.455C245.293 46.7558 257.501 55.1446 259.303 68.5639C262.662 93.6728 242.41 124.302 216.047 110.955Z" fill="#39393B"/>
<path d="M194.702 92.9523C194.385 92.9523 194.082 92.7937 193.924 92.491C193.607 91.9433 186.342 78.87 192.382 61.6598C196.158 50.9071 203.581 46.1073 209.159 43.9596C215.184 41.639 220.244 41.8696 220.46 41.8696C220.95 41.8984 221.339 42.3164 221.31 42.8209C221.281 43.311 220.878 43.7002 220.373 43.6714C220.33 43.6714 215.415 43.4695 209.736 45.6604C202.183 48.5865 196.922 54.1646 194.082 62.2508C188.331 78.6538 195.423 91.4677 195.495 91.5974C195.74 92.0298 195.596 92.5775 195.164 92.8226C195.005 92.909 194.861 92.9523 194.702 92.9523Z" fill="#FAAF3A"/>
<path d="M249.557 93.2267C249.557 93.2267 255.178 88.7872 256.663 94.668C258.147 100.549 253.967 110.999 247.424 107.828L249.557 93.2267Z" fill="#D96C63"/>
<path d="M244.073 104.038C241.277 104.96 238.812 107.439 238.178 110.51C237.255 115.093 240.224 119.561 244.793 120.498C249.377 121.421 253.845 118.452 254.782 113.882C255.474 110.452 253.99 107.079 251.265 105.22C250.357 104.585 249.305 104.139 248.152 103.908C248.123 103.908 248.094 103.894 248.065 103.894C247.907 104.47 247.965 104.931 248.296 105.292C249.219 105.537 250.055 105.955 250.79 106.502C252.909 108.117 254.047 110.841 253.485 113.623C252.707 117.486 248.916 119.994 245.053 119.215C241.19 118.437 238.682 114.646 239.46 110.783C240.037 107.973 242.113 105.984 244.721 105.349L244.073 104.038Z" fill="#FAAF3A"/>
<path d="M232.528 118.436L230.178 133.167C230.178 133.167 219.152 144.424 199.015 124.23C204.421 120.209 206.482 110.869 205.848 104.844C205.848 104.844 207.433 105.795 209.883 108.015C210.359 108.447 210.979 108.779 211.57 109.197C216.889 112.8 225.047 117.514 232.528 118.436Z" fill="#EA9B7A"/>
<path d="M232.519 118.437L231.409 125.413C225.37 122.718 214.689 116.966 209.875 108.001C210.394 108.376 210.97 108.765 211.561 109.183C216.88 112.801 225.038 117.514 232.519 118.437Z" fill="#39393B"/>
<path d="M255.006 89.6816C254.689 91.2383 254.401 92.7229 254.098 94.1354C253.781 95.6633 253.478 97.1047 253.176 98.4596C250.942 108.65 249.111 114.113 246.142 116.16C231.108 126.495 206.648 105.566 205.855 104.888C205.841 104.874 205.841 104.874 205.841 104.874C205.826 103.677 205.826 102.481 205.841 101.314C206.028 91.3968 207.714 82.489 210.395 74.2587C211.736 65.2645 218.712 58.0576 227.692 56.7027C237.003 55.3045 244.009 60.6953 248.39 63.0736C255.006 66.6771 257.601 76.6947 255.006 89.6816Z" fill="#EA9B7A"/>
<path d="M210.916 65.0045C210.916 65.0045 221.438 44.7675 242.425 50.4177C263.411 56.0679 264.521 65.8117 264.896 70.6836C265.271 75.5555 254.028 66.9216 254.028 66.9216C254.028 66.9216 253.639 76.6653 249.891 73.6673C245.293 69.9773 240.162 62.0353 240.162 62.0353C240.162 62.0353 227.665 74.3159 215.788 71.0007C209.028 69.1269 210.916 65.0045 210.916 65.0045Z" fill="#39393B"/>
<path d="M236.69 109.529C233.965 109.529 232.092 107.641 232.005 107.54C231.717 107.237 231.717 106.762 232.02 106.473C232.322 106.185 232.784 106.185 233.072 106.488C233.173 106.589 235.335 108.736 238.189 107.756C238.578 107.626 239.01 107.828 239.14 108.217C239.27 108.606 239.068 109.039 238.679 109.169C237.987 109.428 237.324 109.529 236.69 109.529Z" fill="#D96C63"/>
<path d="M230.419 97.2773C230.419 97.2773 240.537 100.275 245.784 100.275C245.784 100.275 243.161 107.771 235.665 105.147C229.828 103.101 230.419 97.2773 230.419 97.2773Z" fill="white"/>
<path d="M249.203 76.2039C249.203 76.2039 246.58 75.93 246.998 78.4813C247.43 81.0325 253.124 79.4758 255.949 84.5783C255.949 84.5783 258.673 79.2308 249.203 76.2039Z" fill="#39393B"/>
<path d="M237.519 73.841C237.519 73.841 240.041 74.6194 238.658 76.7959C237.274 78.9723 232.633 75.3256 228.049 78.9291C228.049 78.9291 227.631 72.9474 237.519 73.841Z" fill="#39393B"/>
<path d="M232.965 92.1032C232.72 93.2996 230.053 93.7752 226.983 93.1554C223.927 92.5356 221.65 91.0654 221.895 89.8547C222.14 88.6583 224.806 88.1827 227.877 88.8024C230.932 89.4222 233.21 90.9069 232.965 92.1032Z" fill="#D96C63"/>
<path d="M262.813 92.8962L254.64 91.498C254.597 91.844 254.51 92.1899 254.438 92.5214C254.424 92.5791 254.409 92.6367 254.381 92.6944L262.611 94.0925C262.942 94.1502 263.26 93.9196 263.317 93.5881C263.375 93.2709 263.159 92.9538 262.813 92.8962Z" fill="white"/>
<path d="M241.039 85.9183C241.039 85.5003 241.025 85.0823 240.967 84.6787C240.693 82.459 239.713 80.4122 238.214 78.8267C236.83 77.3709 235.028 76.3042 232.938 75.843C232.91 75.8286 232.866 75.8286 232.838 75.8142C228.052 74.834 223.339 77.342 221.393 81.6085C221.22 81.9833 221.076 82.358 220.946 82.7472C220.831 83.0932 220.744 83.4535 220.658 83.8139C220.11 86.4948 220.643 89.147 221.984 91.309C222.445 92.0442 222.993 92.7216 223.613 93.3126C224.968 94.6242 226.683 95.5756 228.658 95.9791C231.987 96.671 235.259 95.662 237.609 93.5576C239.194 92.145 240.362 90.2136 240.823 87.9795C240.823 87.965 240.823 87.965 240.823 87.9506C240.967 87.2732 241.039 86.5957 241.039 85.9183ZM228.917 94.7828C228.859 94.7684 228.816 94.7684 228.773 94.754C226.193 94.1774 224.103 92.5342 222.878 90.3866C221.825 88.5272 221.407 86.3074 221.869 84.0589C221.97 83.5976 222.099 83.1508 222.258 82.7184C222.272 82.6896 222.287 82.6608 222.287 82.6319C223.569 79.3023 226.697 77.0394 230.214 76.8376C230.993 76.7943 231.785 76.8375 232.593 77.0105C234.322 77.3709 235.821 78.1925 237.018 79.3311C239.209 81.4212 240.304 84.5634 239.655 87.7344C238.618 92.6351 233.818 95.8062 228.917 94.7828Z" fill="white"/>
<path d="M259.31 81.7087C259.036 81.5645 258.748 81.4348 258.445 81.3051C258.099 81.1609 257.739 81.0456 257.378 80.9303C257.119 80.8583 256.874 80.7862 256.6 80.7429C256.11 80.642 255.634 80.5844 255.159 80.5556C254.582 80.5123 254.006 80.5267 253.443 80.5988C251.872 80.7718 250.388 81.2907 249.076 82.1123C247.635 83.0059 246.409 84.2599 245.573 85.7734C245.343 86.1626 245.155 86.5661 244.982 86.9697C244.968 86.9986 244.968 87.013 244.954 87.0418C244.737 87.5895 244.564 88.1661 244.435 88.7571C243.613 92.7353 245.213 96.6558 248.226 98.9909C249.206 99.7548 250.33 100.346 251.57 100.706C251.757 100.764 251.944 100.821 252.146 100.85C252.247 100.879 252.334 100.893 252.434 100.922C253.429 101.124 254.424 101.182 255.389 101.095C255.548 101.081 255.706 101.066 255.85 101.052C256.268 100.994 256.687 100.922 257.105 100.807C257.868 100.605 258.618 100.317 259.31 99.9566C261.948 98.5729 263.965 96.0649 264.614 92.9227C265.551 88.3102 263.259 83.7843 259.31 81.7087ZM263.403 92.6632C263.36 92.865 263.317 93.0524 263.259 93.2398C263.187 93.5136 263.101 93.7731 263 94.0469C262.279 95.964 260.953 97.5207 259.281 98.544C258.676 98.9188 258.013 99.2215 257.321 99.4521C256.888 99.5963 256.456 99.6972 255.995 99.7692C255.865 99.7981 255.735 99.8125 255.605 99.8269C254.654 99.9422 253.66 99.9134 252.665 99.7116C252.579 99.6972 252.478 99.6683 252.391 99.6539C252.334 99.6395 252.276 99.6251 252.233 99.6107C250.777 99.2359 249.48 98.5152 248.427 97.5495C248.269 97.4053 248.125 97.2612 247.981 97.1171C245.977 95.0415 244.997 92.029 245.617 88.9877C245.761 88.3102 245.977 87.6472 246.251 87.0418C247.159 85.0527 248.744 83.5104 250.662 82.6023C251.843 82.0402 253.155 81.7375 254.51 81.7375C254.726 81.7375 254.942 81.7519 255.173 81.7663C255.562 81.7952 255.951 81.8528 256.341 81.9249C256.629 81.9825 256.903 82.0546 257.177 82.1411C257.551 82.2564 257.912 82.4005 258.272 82.5591C258.546 82.6888 258.82 82.833 259.094 82.9771C262.366 84.8941 264.211 88.7426 263.403 92.6632Z" fill="white"/>
<path d="M208.341 83.4681C208.269 83.4536 208.197 83.4248 208.139 83.3816C207.851 83.1942 207.779 82.8194 207.952 82.5456C212.046 76.1458 221.89 81.897 221.977 81.9546C222.265 82.1276 222.366 82.5023 222.193 82.7906C222.02 83.0789 221.645 83.1798 221.357 83.0068C221.27 82.9492 212.435 77.8034 208.975 83.2086C208.846 83.4104 208.586 83.5113 208.341 83.4681Z" fill="white"/>
<path d="M245.449 87.3182C245.291 87.2894 245.161 87.1885 245.06 87.0587C243.748 85.0408 240.952 85.9489 240.923 85.9489C240.606 86.0498 240.26 85.8768 240.159 85.5597C240.058 85.2426 240.231 84.8967 240.549 84.7958C241.831 84.3634 244.642 84.1472 246.098 86.3957C246.285 86.684 246.199 87.0587 245.91 87.2317C245.766 87.3182 245.608 87.347 245.449 87.3182Z" fill="white"/>
<g opacity="0.8">
<g opacity="0.8">
<g opacity="0.8">
<g opacity="0.8">
<g opacity="0.8">
<g opacity="0.8">
<g opacity="0.8">
<path opacity="0.8" d="M254.108 94.1341C253.791 95.662 253.489 97.1034 253.186 98.4583C250.404 97.7808 248.4 96.4115 248.631 95.2728C248.876 94.1485 251.269 93.6585 254.108 94.1341Z" fill="#D96C63"/>
</g>
</g>
</g>
</g>
</g>
</g>
</g>
<path d="M235.092 86.063C234.76 87.7206 233.737 88.9025 232.814 88.7152C231.892 88.5278 231.416 87.0431 231.748 85.3855C232.079 83.7279 233.103 82.546 234.025 82.7334C234.948 82.9208 235.423 84.4054 235.092 86.063Z" fill="#39393B"/>
<path d="M251.438 89.3784C251.106 91.036 250.083 92.2179 249.16 92.0306C248.238 91.8432 247.762 90.3586 248.094 88.701C248.425 87.0434 249.448 85.8614 250.371 86.0488C251.293 86.2362 251.769 87.7208 251.438 89.3784Z" fill="#39393B"/>
<path d="M242.995 93.8181C243.788 93.9766 244.35 93.9478 244.393 93.9478C244.581 93.9334 244.768 93.8469 244.898 93.7027C245.028 93.5586 245.071 93.3568 245.056 93.1694L244.004 85.458C243.947 85.0833 243.601 84.8094 243.226 84.8671C242.851 84.9247 242.577 85.2707 242.635 85.6454L243.572 92.5208C242.88 92.4199 241.842 92.1316 240.905 91.3533C240.617 91.1082 240.17 91.1515 239.925 91.4398C239.68 91.7281 239.723 92.1749 240.012 92.4199C241.035 93.2559 242.145 93.6451 242.995 93.8181Z" fill="#39393B"/>
<path d="M212.6 99.2656C212.485 99.4386 209.285 104.037 205.869 104.873C205.854 104.858 205.854 104.858 205.854 104.858C205.825 103.662 205.84 102.466 205.854 101.298C205.97 101.312 209.227 101.399 212.6 99.2656Z" fill="#39393B"/>
<path d="M211.9 87.1873C211.9 87.1873 207.086 76.9823 200.844 82.964C195.699 87.908 200.196 104.397 209.132 100.866L211.9 87.1873Z" fill="#EA9B7A"/>
<path d="M200.063 95.9928C197.267 96.9152 194.802 99.3944 194.168 102.465C193.245 107.048 196.215 111.516 200.784 112.453C205.367 113.376 209.836 110.407 210.773 105.837C211.464 102.407 209.98 99.0341 207.256 97.1747C206.347 96.5405 205.295 96.0937 204.142 95.863C204.113 95.863 204.085 95.8486 204.056 95.8486C203.897 96.4252 203.969 96.8864 204.286 97.2468C205.209 97.4918 206.045 97.9098 206.78 98.4575C208.899 100.072 210.037 102.796 209.475 105.578C208.697 109.441 204.906 111.949 201.043 111.171C197.18 110.392 194.672 106.601 195.451 102.738C196.013 99.9277 198.103 97.9386 200.712 97.3044L200.063 95.9928Z" fill="#FAAF3A"/>
<path d="M208.763 98.0265C208.792 98.0265 208.807 98.0409 208.835 98.0409C209.21 98.0697 209.556 97.7958 209.585 97.4067C210.291 89.6953 204.468 85.7891 204.223 85.6305C203.906 85.4143 203.473 85.5153 203.257 85.8324C203.041 86.1495 203.142 86.5819 203.459 86.7981C203.675 86.9422 208.835 90.4304 208.201 97.2914C208.187 97.6373 208.432 97.9544 208.763 98.0265Z" fill="#39393B"/>
<path d="M203.252 92.6206C203.396 92.6495 203.569 92.6351 203.713 92.5486C204.405 92.1882 206.437 91.381 207.547 91.9144C207.893 92.0873 208.311 91.9432 208.47 91.5973C208.643 91.2513 208.499 90.8333 208.153 90.6748C206.221 89.7379 203.396 91.1649 203.079 91.3234C202.733 91.4964 202.603 91.9144 202.791 92.2603C202.877 92.4477 203.065 92.5774 203.252 92.6206Z" fill="#39393B"/>
<path d="M218.089 69.8762C218.089 69.8762 211.618 87.4466 211.272 90.9925C210.796 95.8211 204.411 79.274 210.825 65.1484L218.089 69.8762Z" fill="#39393B"/>
<path d="M326.237 442.387H299.586C299.586 442.387 293.417 412.81 291.356 396.234C289.28 379.643 288.214 340.337 288.214 340.337C288.214 340.337 266.982 347.241 222.53 344.632C124.04 338.881 161.386 266.523 161.386 266.523C164.716 271.121 189.681 277.449 203.604 279.654C246.37 283.762 278.873 291.027 301.128 300.627C306.49 302.933 311.247 305.383 315.427 307.963C320.789 311.264 324.147 321.31 326.18 334.499C332.248 374.152 326.237 442.387 326.237 442.387Z" fill="#39393B"/>
<path d="M302.865 428.147C302.419 428.147 302.029 427.83 301.928 427.383C298.08 408.357 296.797 384.675 295.759 365.648C294.894 349.865 294.087 334.961 292.055 333.174C290.412 331.718 283.594 332.857 274.975 334.284C257.808 337.138 231.863 341.433 203.266 334.788C187.684 331.156 176.225 323.589 169.22 312.288C157.127 292.801 162.647 268.629 162.705 268.384C162.82 267.865 163.339 267.548 163.858 267.677C164.377 267.793 164.694 268.312 164.564 268.831C164.507 269.061 159.188 292.484 170.863 311.294C177.595 322.147 188.65 329.426 203.712 332.929C231.949 339.502 257.664 335.235 274.686 332.41C284.877 330.724 291.032 329.7 293.352 331.747C295.86 333.967 296.566 344.864 297.691 365.547C298.729 384.516 300.011 408.112 303.831 427.008C303.932 427.527 303.6 428.031 303.082 428.132C302.995 428.132 302.937 428.147 302.865 428.147Z" fill="#585859"/>
<path d="M326.737 428.636H326.722L297.087 428.001C296.554 427.987 296.136 427.555 296.151 427.021C296.165 426.488 296.597 426.07 297.131 426.084L326.766 426.719C327.299 426.733 327.717 427.165 327.702 427.699C327.674 428.232 327.256 428.636 326.737 428.636Z" fill="#585859"/>
<path d="M325.489 476.534H306.679L303.061 454.467L301.072 442.388H324.437L324.812 454.467L325.489 476.534Z" fill="#EA9B7A"/>
<path d="M325.496 476.534H306.686L303.991 460.103L303.068 454.467H324.819L324.992 460.304L325.496 476.534Z" fill="#FAAF3A"/>
<path d="M324.992 460.304L303.991 460.103L303.068 454.467H324.819L324.992 460.304Z" fill="#C77E2E"/>
<path d="M371.91 506.24H300.763C300.23 505.274 299.941 503.92 299.826 502.291C299.379 496.266 301.296 486.666 302.233 480.612C302.348 479.906 302.449 479.243 302.521 478.652C302.651 477.643 302.738 476.793 302.738 476.173C302.738 471.229 307.105 472.079 307.105 472.079C314.298 479.142 322.456 468.562 327.212 472.022C327.212 472.022 327.4 472.166 327.847 472.497C328.25 472.815 328.856 473.305 329.692 474.011C330.902 475.02 332.603 476.49 334.909 478.566C340.56 483.654 350.159 486.998 358.332 490.414C359.37 490.846 360.335 491.279 361.243 491.726C361.921 492.057 362.57 492.389 363.175 492.706C369.863 496.309 371.982 499.768 372.472 502.276C372.947 504.684 371.91 506.24 371.91 506.24Z" fill="#0875F7"/>
<path d="M363.186 492.721C361.355 494.177 357.276 497.103 354.004 497.103C353.86 497.103 353.716 497.103 353.571 497.088C351.265 496.901 342.79 492.735 335.886 488.944C331.936 486.768 328.318 484.635 325.724 482.919C321.472 480.109 320.722 479.042 320.564 478.293C319.944 475.482 324.585 473.536 327.843 472.513C328.246 472.83 328.852 473.32 329.688 474.026C325.652 475.122 322.322 476.851 322.481 477.831C322.884 478.667 327.093 481.867 337.154 487.388C344.837 491.597 352.116 494.984 353.73 495.128C355.921 495.301 359.135 493.312 361.24 491.741C361.946 492.058 362.58 492.389 363.186 492.721Z" fill="#084FC7"/>
<path d="M371.921 506.242H300.775C300.241 505.277 299.953 503.922 299.838 502.293H372.498C372.959 504.686 371.921 506.242 371.921 506.242Z" fill="#084FC7"/>
<path d="M308.036 506.241H305.917C308.022 503.834 309.997 500.13 309.737 494.854C309.391 487.821 305.182 483.093 302.242 480.614C302.357 479.907 302.458 479.244 302.53 478.653C305.687 481.06 311.006 486.35 311.424 494.768C311.683 499.813 310.025 503.575 308.036 506.241Z" fill="#084FC7"/>
<path d="M333.736 482.776C333.217 482.776 332.727 482.415 332.598 481.882C332.439 481.248 332.828 480.613 333.448 480.455L337.888 479.345C338.522 479.186 339.156 479.576 339.315 480.195C339.473 480.83 339.084 481.464 338.464 481.622L334.025 482.732C333.924 482.761 333.823 482.776 333.736 482.776Z" fill="white"/>
<path d="M329.309 479.072C328.775 479.072 328.3 478.712 328.17 478.179C328.011 477.544 328.401 476.91 329.02 476.752L333.46 475.642C334.094 475.483 334.728 475.873 334.887 476.492C335.045 477.127 334.656 477.761 334.036 477.919L329.597 479.029C329.496 479.058 329.41 479.072 329.309 479.072Z" fill="white"/>
<path d="M338.158 485.355C337.639 485.355 337.149 484.995 337.02 484.461C336.861 483.827 337.25 483.193 337.87 483.049L342.309 481.939C342.944 481.78 343.578 482.169 343.736 482.789C343.895 483.423 343.506 484.058 342.886 484.216L338.447 485.326C338.346 485.34 338.245 485.355 338.158 485.355Z" fill="white"/>
<path d="M342.609 487.834C342.091 487.834 341.6 487.474 341.471 486.941C341.312 486.306 341.701 485.672 342.321 485.528L346.761 484.418C347.395 484.26 348.029 484.649 348.188 485.269C348.346 485.903 347.957 486.537 347.337 486.696L342.898 487.806C342.797 487.82 342.71 487.834 342.609 487.834Z" fill="white"/>
<path d="M347.443 490.126C346.925 490.126 346.434 489.766 346.305 489.233C346.146 488.598 346.535 487.964 347.155 487.82L351.595 486.71C352.229 486.552 352.863 486.941 353.022 487.561C353.18 488.195 352.791 488.829 352.171 488.988L347.732 490.098C347.631 490.126 347.544 490.126 347.443 490.126Z" fill="white"/>
<path d="M352.715 492.086C352.182 492.086 351.706 491.726 351.576 491.192C351.418 490.558 351.807 489.924 352.427 489.765L356.866 488.656C357.5 488.497 358.135 488.886 358.293 489.506C358.452 490.14 358.062 490.774 357.443 490.933L353.003 492.043C352.902 492.072 352.801 492.086 352.715 492.086Z" fill="white"/>
<path d="M424.387 265.458V271.368C424.387 274.77 422.34 277.523 419.804 277.523H100.58C98.0433 277.523 95.9966 274.77 95.9966 271.368V265.458C95.9966 262.057 98.0433 259.304 100.58 259.304H419.789C422.326 259.304 424.387 262.057 424.387 265.458Z" fill="#09A7FF"/>
<path d="M424.387 267.332H95.9968V270.042H424.387V267.332Z" fill="#217C58"/>
<path d="M414.79 292.7H114.736C113.396 292.7 112.301 291.604 112.301 290.264V277.436H417.225V290.264C417.225 291.604 416.13 292.7 414.79 292.7Z" fill="#217C58"/>
<path d="M401.315 367.997H132.972V378.462H401.315V367.997Z" fill="#217C58"/>
<path d="M113.639 508.1L165.587 292.699H147.339L95.3911 508.1H113.639Z" fill="#09A7FF"/>
<path d="M420.303 508.101L368.342 292.7H386.589L438.537 508.101H420.303Z" fill="#09A7FF"/>
<path d="M125.116 209.799L119.488 210.661L125.993 253.135L131.621 252.273L125.116 209.799Z" fill="#FAAF3A"/>
<path d="M125.129 209.777L119.508 210.642L120.747 206.346L121.381 204.112L122.664 206.044L125.129 209.777Z" fill="#EA9B7A"/>
<path d="M131.149 249.181L125.521 250.043L125.995 253.135L131.623 252.273L131.149 249.181Z" fill="#39393B"/>
<path d="M131.649 254.763L126.763 255.512C126.561 255.541 126.359 255.397 126.331 255.195L126.013 253.105L131.649 252.24L131.966 254.33C131.995 254.546 131.851 254.734 131.649 254.763Z" fill="#DF615C"/>
<path d="M122.665 206.044L120.748 206.346L121.382 204.112L122.665 206.044Z" fill="#39393B"/>
<path d="M130.835 246.962L125.207 247.824L125.545 250.033L131.173 249.171L130.835 246.962Z" fill="#C77E2E"/>
<path d="M121.229 212.516L126.043 243.967C126.087 244.212 126.303 244.371 126.533 244.328C126.764 244.284 126.937 244.068 126.894 243.838L122.079 212.387C122.036 212.156 121.82 211.983 121.589 212.026C121.359 212.055 121.186 212.286 121.229 212.516Z" fill="#C77E2E"/>
<path d="M123.426 212.183L128.241 243.634C128.284 243.865 128.5 244.038 128.731 243.995C128.976 243.951 129.134 243.735 129.091 243.505L124.277 212.054C124.234 211.823 124.017 211.65 123.787 211.693C123.556 211.722 123.383 211.938 123.426 212.183Z" fill="#C77E2E"/>
<path d="M135.32 209.971L129.626 209.989L129.768 252.957L135.461 252.938L135.32 209.971Z" fill="#09A7FF"/>
<path d="M135.32 209.979L129.626 209.993L131.486 205.928L132.452 203.81L133.432 205.914L135.32 209.979Z" fill="#EA9B7A"/>
<path d="M135.453 249.824L129.76 249.843L129.77 252.971L135.463 252.952L135.453 249.824Z" fill="#39393B"/>
<path d="M135.096 255.425L130.152 255.44C129.936 255.44 129.777 255.267 129.777 255.065V252.961L135.471 252.946V255.051C135.471 255.252 135.312 255.425 135.096 255.425Z" fill="#DF615C"/>
<path d="M133.438 205.914L131.492 205.928L132.458 203.81L133.438 205.914Z" fill="#39393B"/>
<path d="M135.439 247.577L129.746 247.596L129.753 249.83L135.447 249.811L135.439 247.577Z" fill="#217C58"/>
<path d="M131.043 212.112L131.144 243.923C131.144 244.168 131.345 244.356 131.576 244.356C131.821 244.356 132.008 244.154 132.008 243.923L131.908 212.112C131.908 211.867 131.706 211.679 131.475 211.679C131.245 211.665 131.043 211.867 131.043 212.112Z" fill="#217C58"/>
<path d="M133.285 212.097L133.386 243.908C133.386 244.153 133.588 244.34 133.818 244.34C134.063 244.34 134.251 244.138 134.251 243.908L134.15 212.097C134.15 211.851 133.948 211.664 133.717 211.664C133.487 211.664 133.285 211.851 133.285 212.097Z" fill="#217C58"/>
<path d="M139.527 209.758L133.486 252.3L139.123 253.1L145.164 210.558L139.527 209.758Z" fill="#0875F7"/>
<path d="M145.151 210.583L139.515 209.776L141.937 206.014L143.205 204.068L143.868 206.288L145.151 210.583Z" fill="#EA9B7A"/>
<path d="M139.572 250.043L133.935 249.242L133.495 252.339L139.132 253.14L139.572 250.043Z" fill="#39393B"/>
<path d="M138.392 255.526L133.506 254.834C133.304 254.805 133.16 254.618 133.189 254.402L133.492 252.312L139.127 253.119L138.825 255.209C138.782 255.41 138.594 255.555 138.392 255.526Z" fill="#DF615C"/>
<path d="M143.873 206.288L141.941 206.014L143.21 204.068L143.873 206.288Z" fill="#39393B"/>
<path d="M134.238 247.006L133.924 249.218L139.561 250.019L139.875 247.807L134.238 247.006Z" fill="#084FC7"/>
<path d="M140.614 212.068L136.146 243.563C136.117 243.808 136.275 244.024 136.52 244.053C136.766 244.081 136.982 243.923 137.011 243.678L141.479 212.184C141.508 211.939 141.349 211.722 141.104 211.694C140.873 211.665 140.657 211.838 140.614 212.068Z" fill="#084FC7"/>
<path d="M142.839 212.385L138.37 243.879C138.341 244.124 138.5 244.34 138.745 244.369C138.99 244.398 139.206 244.24 139.235 243.995L143.703 212.5C143.732 212.255 143.574 212.039 143.329 212.01C143.084 211.981 142.867 212.14 142.839 212.385Z" fill="#084FC7"/>
<path d="M147.01 226.973L146.707 229.279L146.434 231.369L146.03 234.54L145.756 236.616L145.353 239.815L145.079 241.862L144.661 245.091L144.401 247.109L143.983 250.366L143.724 252.355L143.306 255.642L143.046 257.602L142.83 259.303H120.431L120.215 257.602L119.955 255.642L119.537 252.355L119.278 250.366L118.86 247.109L118.6 245.091L118.182 241.862L117.923 239.815L117.505 236.616L117.246 234.54L116.828 231.369L116.554 229.279L116.265 226.973H147.01Z" fill="#DF615C"/>
<path d="M146.716 229.279L146.442 231.369H116.836L116.562 229.279H146.716Z" fill="#B11722"/>
<path d="M146.026 234.54L145.753 236.616H117.501L117.242 234.54H146.026Z" fill="#B11722"/>
<path d="M145.355 239.815L145.081 241.862H118.185L117.926 239.815H145.355Z" fill="#B11722"/>
<path d="M144.671 245.09L144.412 247.108H118.871L118.611 245.09H144.671Z" fill="#B11722"/>
<path d="M143.98 250.366L143.721 252.355H119.535L119.275 250.366H143.98Z" fill="#B11722"/>
<path d="M143.309 255.642L143.05 257.602H120.218L119.959 255.642H143.309Z" fill="#B11722"/>
<path d="M422.523 145.073L403.424 225.849L402.92 227.967L401.637 233.401C401.075 235.765 398.985 237.423 396.563 237.423H267.891C264.518 237.423 262.039 234.281 262.817 231.009L283.703 142.666C284.265 140.317 286.355 138.659 288.777 138.659H417.435C420.808 138.659 423.287 141.801 422.523 145.073Z" fill="#39393B"/>
<path d="M403.41 225.833L402.92 227.966H269.318V225.833H403.41Z" fill="#585859"/>
<path d="M319.739 158.635C318.673 164.357 313.166 168.999 307.444 168.999C301.722 168.999 297.945 164.357 299.012 158.635C300.079 152.913 305.585 148.271 311.307 148.271C317.044 148.271 320.806 152.913 319.739 158.635Z" fill="#FAAF3A"/>
<path d="M308.029 156.661C307.813 157.799 307.236 158.736 306.746 158.736C306.242 158.736 306.011 157.814 306.227 156.661C306.444 155.522 307.02 154.585 307.51 154.585C308.015 154.585 308.245 155.507 308.029 156.661Z" fill="#39393B"/>
<path d="M313.437 156.661C313.221 157.799 312.644 158.736 312.154 158.736C311.664 158.736 311.419 157.814 311.635 156.661C311.852 155.522 312.428 154.585 312.918 154.585C313.423 154.585 313.653 155.507 313.437 156.661Z" fill="#39393B"/>
<path d="M308.532 163.695C304.078 163.695 303.891 159.241 303.891 159.198C303.877 158.952 304.078 158.707 304.338 158.664C304.597 158.607 304.799 158.765 304.814 159.01C304.814 159.169 304.987 162.801 308.72 162.801C312.439 162.801 313.966 159.169 314.038 159.01C314.139 158.765 314.413 158.621 314.644 158.664C314.874 158.722 314.99 158.952 314.889 159.198C314.846 159.226 312.986 163.695 308.532 163.695Z" fill="#39393B"/>
<path d="M379.23 207.039C379.345 212.401 388.426 219.118 388.426 219.118C388.426 219.118 398.977 212.401 400.26 207.039C401.644 201.23 395.013 199.443 390.098 203.824C386.134 199.443 379.1 201.23 379.23 207.039Z" fill="#DF615C"/>
<path d="M359.991 191.485C359.371 197.048 354.37 201.546 348.82 201.546C343.271 201.546 339.25 197.034 339.869 191.485C340.489 185.921 345.491 181.424 351.04 181.424C356.604 181.424 360.611 185.935 359.991 191.485Z" fill="#585859"/>
<path d="M293.873 138.657L271.633 237.421H267.885C264.512 237.421 262.033 234.278 262.812 231.007L283.697 142.664C284.259 140.315 286.349 138.643 288.771 138.643H293.873V138.657Z" fill="#585859"/>
<path d="M331.144 237.422L327.238 259.374H340.138L344.045 237.422H331.144Z" fill="white"/>
<path d="M307.953 255.598L310.59 251.893C311.527 250.567 313.055 249.789 314.684 249.789H350.027C351.901 249.789 353.616 250.827 354.481 252.484L356.253 255.886C357.09 257.472 355.936 259.389 354.135 259.389H309.899C307.953 259.374 306.828 257.169 307.953 255.598Z" fill="white"/>
<path d="M234.31 259.361H340.483L341.636 255.354C342.357 252.831 340.468 250.323 337.845 250.323H239.874C238.116 250.323 236.573 251.491 236.083 253.177L234.31 259.361Z" fill="white"/>
<path d="M373.521 112.283L326.56 112.254C324.744 112.254 323.26 110.769 323.26 108.953L323.274 80.0967C323.274 78.2805 324.759 76.7959 326.575 76.7959L373.535 76.8247C375.351 76.8247 376.836 78.3093 376.836 80.1255L376.821 108.982C376.821 110.813 375.351 112.283 373.521 112.283Z" fill="#DF615C"/>
<path d="M370.722 106.964L366.441 123.136L358.961 107.93L370.722 106.964Z" fill="#DF615C"/>
<path d="M361.915 91.9303C360.964 97.9841 349.649 105.566 349.649 105.566C349.649 105.566 338.766 97.9697 338.147 91.9015C337.469 85.3287 345.253 83.3252 350.139 88.2836C355.285 83.3396 362.953 85.3576 361.915 91.9303Z" fill="white"/>
<path d="M406.794 489.831C450.959 489.831 486.762 486.294 486.762 481.932C486.762 477.57 450.959 474.033 406.794 474.033C362.629 474.033 326.826 477.57 326.826 481.932C326.826 486.294 362.629 489.831 406.794 489.831Z" fill="#CED3E6"/>
<path d="M455.757 424.81H354.802C352.885 424.81 351.328 423.253 351.328 421.336V419.736C351.328 417.819 352.885 416.263 354.802 416.263H455.757C457.674 416.263 459.23 417.819 459.23 419.736V421.336C459.23 423.253 457.674 424.81 455.757 424.81Z" fill="#39393B"/>
<path d="M356.073 321.577H454.707C456.35 321.577 457.676 322.903 457.676 324.546V336.668C457.676 338.312 456.35 339.638 454.707 339.638H356.073C354.43 339.638 353.104 338.312 353.104 336.668V324.546C353.104 322.903 354.43 321.577 356.073 321.577Z" fill="#585859"/>
<path d="M379.37 244.752C379.37 244.752 337.786 236.536 326.183 207.521C314.58 178.506 357.015 156.741 379.37 172.322C403.297 188.985 379.37 244.752 379.37 244.752Z" fill="#21B573"/>
<path d="M404.102 320.986C403.741 320.986 403.41 320.712 403.352 320.338C399.374 293.384 383.303 254.611 370.546 226.835C356.695 196.71 343.636 172.668 343.506 172.423C343.304 172.062 343.448 171.601 343.809 171.399C344.169 171.198 344.63 171.342 344.832 171.702C344.962 171.947 358.05 196.033 371.93 226.201C384.744 254.077 400.859 292.995 404.866 320.121C404.923 320.539 404.65 320.914 404.232 320.972C404.174 320.972 404.131 320.986 404.102 320.986Z" fill="#39393B"/>
<path d="M377.811 241.941C377.537 241.941 377.278 241.797 377.148 241.552C359.059 207.867 329.683 183.421 329.395 183.176C329.078 182.916 329.035 182.441 329.294 182.124C329.554 181.806 330.029 181.763 330.346 182.023C330.649 182.268 360.241 206.887 378.474 240.846C378.676 241.206 378.532 241.667 378.172 241.869C378.042 241.912 377.927 241.941 377.811 241.941Z" fill="#39393B"/>
<path d="M378.63 244.363C378.414 244.363 378.212 244.276 378.054 244.103C364.865 228.58 351.345 218.922 342.336 213.56C332.563 207.752 325.832 205.575 325.775 205.561C325.385 205.431 325.155 205.013 325.284 204.609C325.414 204.22 325.832 203.99 326.236 204.119C326.51 204.206 333.169 206.339 343.071 212.234C352.195 217.654 365.874 227.426 379.207 243.123C379.481 243.44 379.437 243.916 379.12 244.19C378.976 244.305 378.789 244.363 378.63 244.363Z" fill="#39393B"/>
<path d="M374.973 235.528C374.656 235.528 374.367 235.326 374.266 235.023C364.119 205.258 367.852 169.094 367.895 168.734C367.939 168.316 368.313 168.027 368.717 168.071C369.135 168.114 369.423 168.489 369.38 168.892C369.337 169.253 365.647 205.1 375.679 234.533C375.809 234.922 375.607 235.355 375.203 235.484C375.131 235.513 375.045 235.528 374.973 235.528Z" fill="#39393B"/>
<path d="M377.522 241.422C377.161 241.422 376.844 241.163 376.787 240.788C373.688 221.949 376.066 206.584 378.617 197.013C381.385 186.621 384.844 180.769 384.988 180.524C385.204 180.163 385.666 180.048 386.026 180.264C386.386 180.48 386.502 180.942 386.285 181.302C386.256 181.36 382.768 187.255 380.059 197.474C377.565 206.887 375.23 222.021 378.271 240.557C378.343 240.961 378.055 241.35 377.651 241.422C377.594 241.408 377.55 241.422 377.522 241.422Z" fill="#39393B"/>
<path d="M423.229 252.333C423.229 252.333 465.231 246.582 478.535 218.317C491.839 190.037 450.76 165.807 427.525 180.033C402.646 195.254 423.229 252.333 423.229 252.333Z" fill="#21B573"/>
<path d="M407.297 318.522C406.879 318.522 406.533 318.176 406.548 317.758C406.706 303.877 409.733 288.065 415.542 270.768C420.183 256.946 426.583 242.143 434.597 226.777C448.218 200.616 461.94 181.604 462.084 181.417C462.329 181.086 462.805 180.999 463.136 181.244C463.468 181.489 463.554 181.965 463.309 182.296C463.18 182.484 449.515 201.423 435.937 227.484C423.426 251.512 408.436 286.667 408.075 317.772C408.047 318.19 407.715 318.522 407.297 318.522Z" fill="#39393B"/>
<path d="M425.001 249.624C424.872 249.624 424.728 249.595 424.612 249.508C424.252 249.292 424.151 248.831 424.367 248.47C444.575 215.65 475.579 192.819 475.897 192.588C476.228 192.343 476.704 192.415 476.949 192.746C477.194 193.078 477.122 193.554 476.79 193.799C476.488 194.029 445.714 216.688 425.664 249.249C425.506 249.494 425.261 249.624 425.001 249.624Z" fill="#39393B"/>
<path d="M424.033 251.987C423.845 251.987 423.658 251.915 423.514 251.785C423.211 251.497 423.197 251.021 423.485 250.718C437.74 235.829 451.967 226.892 461.393 222.02C471.627 216.73 478.387 214.986 478.676 214.914C479.079 214.813 479.483 215.058 479.584 215.462C479.685 215.866 479.44 216.269 479.036 216.37C478.964 216.385 472.117 218.157 462.028 223.375C452.716 228.189 438.663 237.04 424.566 251.756C424.436 251.9 424.235 251.987 424.033 251.987Z" fill="#39393B"/>
<path d="M428.212 243.382C428.111 243.382 428.025 243.368 427.924 243.325C427.535 243.166 427.362 242.734 427.506 242.345C439.267 213.546 437.696 177.554 437.682 177.194C437.668 176.776 437.985 176.43 438.403 176.401C438.806 176.372 439.167 176.704 439.195 177.122C439.21 177.482 440.795 213.805 428.918 242.921C428.789 243.209 428.515 243.382 428.212 243.382Z" fill="#39393B"/>
<path d="M425.313 249.119C425.255 249.119 425.198 249.119 425.14 249.104C424.737 249.018 424.477 248.614 424.578 248.211C428.729 229.876 427.288 214.641 425.356 205.099C423.252 194.75 420.139 188.653 420.11 188.58C419.922 188.206 420.066 187.759 420.427 187.572C420.802 187.384 421.248 187.528 421.436 187.889C421.565 188.134 424.664 194.187 426.812 204.738C428.787 214.453 430.257 229.934 426.048 248.542C425.976 248.874 425.659 249.119 425.313 249.119Z" fill="#39393B"/>
<path d="M407.051 197.618C407.051 197.618 371.463 174.585 371.42 143.336C371.377 112.086 418.856 107.589 433.861 130.334C449.932 154.679 407.051 197.618 407.051 197.618Z" fill="#21B573"/>
<path d="M402.081 277.63C402.023 277.63 401.966 277.63 401.908 277.615C401.504 277.514 401.259 277.111 401.346 276.707C407.63 250.2 407.068 208.227 405.497 177.699C403.796 144.59 400.553 117.405 400.524 117.146C400.481 116.728 400.769 116.353 401.187 116.31C401.591 116.267 401.98 116.555 402.023 116.973C402.052 117.247 405.295 144.475 407.01 177.626C408.596 208.256 409.144 250.373 402.83 277.053C402.729 277.399 402.427 277.63 402.081 277.63Z" fill="#39393B"/>
<path d="M406.924 194.491C406.549 194.491 406.217 194.202 406.174 193.828C401.85 155.833 383.616 122.248 383.429 121.917C383.227 121.557 383.357 121.095 383.732 120.894C384.092 120.692 384.553 120.821 384.755 121.196C384.943 121.528 403.32 155.371 407.673 193.669C407.716 194.087 407.428 194.462 407.01 194.505C406.981 194.491 406.952 194.491 406.924 194.491Z" fill="#39393B"/>
<path d="M406.793 197.027C406.476 197.027 406.187 196.826 406.086 196.509C399.586 177.194 390.606 163.227 384.221 154.91C377.302 145.887 371.854 141.39 371.796 141.347C371.479 141.087 371.421 140.612 371.695 140.295C371.954 139.977 372.43 139.92 372.747 140.194C372.978 140.381 378.354 144.821 385.374 153.959C391.846 162.377 400.926 176.502 407.499 196.033C407.629 196.422 407.427 196.854 407.023 196.984C406.951 197.013 406.879 197.027 406.793 197.027Z" fill="#39393B"/>
<path d="M406.666 187.472C406.651 187.472 406.637 187.472 406.622 187.472C406.204 187.457 405.887 187.097 405.916 186.679C407.516 155.285 424.38 123.071 424.539 122.739C424.741 122.364 425.187 122.235 425.562 122.422C425.937 122.609 426.067 123.071 425.879 123.445C425.706 123.762 409.001 155.689 407.43 186.751C407.401 187.154 407.069 187.472 406.666 187.472Z" fill="#39393B"/>
<path d="M406.85 193.885C406.792 193.885 406.749 193.885 406.691 193.87C406.288 193.784 406.028 193.38 406.115 192.977C410.208 174.325 418.136 160.834 424.074 152.791C430.517 144.056 435.908 139.804 436.139 139.631C436.47 139.372 436.946 139.429 437.191 139.761C437.45 140.092 437.393 140.568 437.061 140.813C437.003 140.856 431.57 145.152 425.242 153.728C419.404 161.641 411.606 174.931 407.585 193.294C407.513 193.654 407.196 193.885 406.85 193.885Z" fill="#39393B"/>
<path d="M450.54 273.595L449.301 276.881L448.522 278.971L446.274 284.939L445.481 287.029L443.175 293.169L442.396 295.245L432.48 321.564H378.313L368.396 295.245L367.617 293.169L365.311 287.029L364.518 284.939L362.27 278.971L361.492 276.881L360.252 273.595C359.402 271.332 361.074 268.925 363.481 268.925H447.326C449.719 268.925 451.391 271.332 450.54 273.595Z" fill="#0875F7"/>
<path d="M449.3 276.88L448.522 278.97H362.27L361.477 276.88H449.3Z" fill="#084FC7"/>
<path d="M446.259 284.937L445.48 287.027H365.296L364.518 284.937H446.259Z" fill="#084FC7"/>
<path d="M443.166 293.168L442.388 295.244H368.402L367.623 293.168H443.166Z" fill="#084FC7"/>
<path d="M390.88 339.624L387.882 349.31L346.067 484.08H337.895L364.402 352.063L366.91 339.624H390.88Z" fill="#39393B"/>
<path d="M473.124 484.08H464.951L421.912 345.318L420.139 339.624H444.109L444.714 342.651L473.124 484.08Z" fill="#39393B"/>
<path d="M455.757 406.23H354.802C352.885 406.23 351.328 404.673 351.328 402.756V401.156C351.328 399.239 352.885 397.683 354.802 397.683H455.742C457.659 397.683 459.216 399.239 459.216 401.156V402.756C459.23 404.673 457.674 406.23 455.757 406.23Z" fill="#585859"/>
<path d="M328.596 82.2162C350.185 82.2162 367.687 64.9342 367.687 43.6159C367.687 22.2976 350.185 5.01562 328.596 5.01562C307.007 5.01562 289.506 22.2976 289.506 43.6159C289.506 64.9342 307.007 82.2162 328.596 82.2162Z" fill="#CED3E6"/>
<path d="M328.596 77.2006C350.185 77.2006 367.687 59.9186 367.687 38.6003C367.687 17.2819 350.185 0 328.596 0C307.007 0 289.506 17.2819 289.506 38.6003C289.506 59.9186 307.007 77.2006 328.596 77.2006Z" fill="#0875F7"/>
<path d="M328.592 69.9786C346.138 69.9786 360.361 55.9298 360.361 38.5996C360.361 21.2695 346.138 7.2207 328.592 7.2207C311.047 7.2207 296.824 21.2695 296.824 38.5996C296.824 55.9298 311.047 69.9786 328.592 69.9786Z" fill="white"/>
<path d="M360.368 38.5997C360.368 39.4357 360.339 40.2572 360.267 41.0788C358.984 24.9353 345.262 12.1791 328.585 12.1791C311.909 12.1791 298.201 24.9353 296.904 41.0788C296.846 40.2572 296.803 39.4357 296.803 38.5997C296.803 21.2886 311.058 7.2207 328.571 7.2207C346.113 7.2207 360.368 21.2886 360.368 38.5997Z" fill="#CED3E6"/>
<path d="M328.594 41.8581C328.349 41.8581 328.104 41.7428 327.96 41.541L312.379 20.8139C312.119 20.4679 312.191 19.9779 312.537 19.7184C312.883 19.459 313.388 19.531 313.647 19.877L328.854 40.0996L346.136 32.6044C346.54 32.4314 347.001 32.6044 347.188 33.008C347.361 33.4116 347.188 33.8728 346.785 34.0458L328.926 41.786C328.81 41.8437 328.695 41.8581 328.594 41.8581Z" fill="#39393B"/>
<path d="M443.765 372.016C443.765 374.021 442.137 375.649 440.133 375.649C438.128 375.649 436.5 374.021 436.5 372.016C436.5 370.012 438.128 368.384 440.133 368.384C442.137 368.384 443.765 370.008 443.765 372.016Z" stroke="#4D2C5E" stroke-opacity="0.1" stroke-width="1.5" stroke-miterlimit="10" stroke-linecap="round" stroke-linejoin="round"/>
<path d="M479.01 403.522C481.016 403.522 482.642 401.896 482.642 399.89C482.642 397.883 481.016 396.257 479.01 396.257C477.003 396.257 475.377 397.883 475.377 399.89C475.377 401.896 477.003 403.522 479.01 403.522Z" stroke="#4D2C5E" stroke-opacity="0.1" stroke-width="1.5" stroke-miterlimit="10" stroke-linecap="round" stroke-linejoin="round"/>
<path d="M465.333 392.421C469.612 392.421 473.081 388.952 473.081 384.673C473.081 380.394 469.612 376.926 465.333 376.926C461.055 376.926 457.586 380.394 457.586 384.673C457.586 388.952 461.055 392.421 465.333 392.421Z" stroke="#4D2C5E" stroke-opacity="0.1" stroke-width="1.5" stroke-miterlimit="10" stroke-linecap="round" stroke-linejoin="round"/>
<path d="M478.832 384.673L476.248 389.19L474.878 394.218L469.854 395.584L465.333 398.172L460.812 395.584L455.784 394.218L454.418 389.19L451.83 384.673L454.418 380.152L455.784 375.124L460.812 373.758L465.333 371.17L469.854 373.758L474.878 375.124L476.248 380.152L478.832 384.673Z" stroke="#4D2C5E" stroke-opacity="0.1" stroke-width="1.5" stroke-miterlimit="10" stroke-linecap="round" stroke-linejoin="round"/>
<path d="M475.377 399.889C475.377 397.885 477.006 396.256 479.01 396.256C480.093 396.256 481.065 396.734 481.729 397.487C484.495 393.952 486.149 389.507 486.149 384.669C486.149 373.17 476.828 363.85 465.329 363.85C453.831 363.85 444.51 373.17 444.51 384.669C444.51 396.168 453.831 405.488 465.329 405.488C469.372 405.488 473.14 404.334 476.333 402.342C475.745 401.695 475.377 400.836 475.377 399.889Z" stroke="#4D2C5E" stroke-opacity="0.1" stroke-width="1.5" stroke-miterlimit="10" stroke-linecap="round" stroke-linejoin="round"/>
<path d="M465.331 356.5C455.617 356.5 447.05 361.418 441.987 368.899C443.049 369.534 443.764 370.693 443.764 372.02C443.764 374.025 442.135 375.653 440.131 375.653C439.636 375.653 439.167 375.552 438.74 375.374C437.72 378.288 437.162 381.413 437.162 384.674C437.162 400.232 449.777 412.847 465.336 412.847C480.894 412.847 493.509 400.232 493.509 384.674C493.509 369.115 480.89 356.5 465.331 356.5Z" stroke="#4D2C5E" stroke-opacity="0.1" stroke-width="1.5" stroke-miterlimit="10" stroke-linecap="round" stroke-linejoin="round"/>
<path d="M143.881 60.4196L126.401 54.4829C124.554 53.8572 123.568 51.85 124.194 50.0029C124.82 48.1559 126.827 47.1698 128.669 47.7955L146.148 53.7321C147.995 54.3578 148.982 56.365 148.356 58.2071C147.73 60.0592 145.728 61.0503 143.881 60.4196Z" stroke="#4D2C5E" stroke-opacity="0.1" stroke-width="2.25" stroke-miterlimit="10"/>
<path d="M141.582 67.187L124.103 61.2504C122.256 60.6247 121.269 58.6175 121.895 56.7754C122.521 54.9284 124.528 53.9423 126.375 54.568L143.855 60.4996C145.702 61.1253 146.688 63.1325 146.062 64.9796C145.431 66.8266 143.429 67.8127 141.582 67.187Z" stroke="#4D2C5E" stroke-opacity="0.1" stroke-width="2.25" stroke-miterlimit="10"/>
<path d="M126.046 29.5398C126.066 29.5999 126.081 29.6549 126.101 29.715C126.492 30.9614 128.794 38.8602 127.833 47.625L146.584 53.8119C151.029 46.1984 157.581 41.2278 158.638 40.457C158.688 40.4219 158.738 40.3869 158.783 40.3519C159.293 39.9865 159.789 39.596 160.269 39.1805C163.093 36.7428 165.315 33.5343 166.566 29.74C170.255 18.5676 164.189 6.51914 153.016 2.83003C141.844 -0.859086 129.795 5.20768 126.106 16.3801C124.85 20.1794 124.725 24.0787 125.546 27.7178C125.686 28.3285 125.851 28.9391 126.046 29.5398Z" stroke="#4D2C5E" stroke-opacity="0.1" stroke-width="2.25" stroke-miterlimit="10"/>
<path d="M125.058 61.6611C124.848 65.3653 127.131 68.8942 130.825 70.1155C134.469 71.3169 138.348 69.8903 140.41 66.8719L125.058 61.6611Z" stroke="#4D2C5E" stroke-opacity="0.1" stroke-width="2.25" stroke-miterlimit="10"/>
<path d="M133.703 49.4616L139.275 32.5778C139.825 30.9159 138.919 29.1239 137.257 28.5733C135.596 28.0227 133.804 28.9287 133.253 30.5906C132.702 32.2524 133.608 34.0444 135.27 34.595L141.958 36.8025" stroke="#4D2C5E" stroke-opacity="0.1" stroke-width="2.25" stroke-miterlimit="10"/>
<path d="M141.051 51.8895L146.622 35.0056C147.173 33.3438 148.965 32.4428 150.626 32.9884C152.288 33.539 153.189 35.331 152.644 36.9928C152.093 38.6547 150.301 39.5557 148.639 39.0101L141.952 36.8026" stroke="#4D2C5E" stroke-opacity="0.1" stroke-width="2.25" stroke-miterlimit="10"/>
<path d="M170.525 35.5566L176.171 37.4237" stroke="#4D2C5E" stroke-opacity="0.1" stroke-width="2.25" stroke-miterlimit="10" stroke-linecap="round"/>
<path d="M173.113 28.4436L178.995 27.5576" stroke="#4D2C5E" stroke-opacity="0.1" stroke-width="2.25" stroke-miterlimit="10" stroke-linecap="round"/>
<path d="M166.576 41.6582L170.771 45.8729" stroke="#4D2C5E" stroke-opacity="0.1" stroke-width="2.25" stroke-miterlimit="10" stroke-linecap="round"/>
<path d="M118.082 18.2468L112.436 16.3848" stroke="#4D2C5E" stroke-opacity="0.1" stroke-width="2.25" stroke-miterlimit="10" stroke-linecap="round"/>
<path d="M120.24 10.9891L116.045 6.77441" stroke="#4D2C5E" stroke-opacity="0.1" stroke-width="2.25" stroke-miterlimit="10" stroke-linecap="round"/>
<path d="M117.627 25.5L111.75 26.386" stroke="#4D2C5E" stroke-opacity="0.1" stroke-width="2.25" stroke-miterlimit="10" stroke-linecap="round"/>
<path d="M59.2447 194.934L7.34131 179.429C3.56636 178.303 1.42369 174.33 2.55002 170.555L12.9157 135.841C14.0421 132.066 18.015 129.924 21.7899 131.05L73.6933 146.555C77.4683 147.681 79.6109 151.654 78.4846 155.429L68.1189 190.143C66.9882 193.913 63.0152 196.06 59.2447 194.934Z" stroke="#4D2C5E" stroke-opacity="0.1" stroke-width="3" stroke-miterlimit="10" stroke-linecap="round"/>
<path d="M3.77441 166.45L69.3433 186.038" stroke="#4D2C5E" stroke-opacity="0.1" stroke-width="3" stroke-miterlimit="10" stroke-linecap="round"/>
<path d="M36.7186 181.933C36.437 182.875 35.4427 183.411 34.5011 183.13C33.5596 182.848 33.0228 181.854 33.3044 180.912C33.586 179.971 34.5803 179.434 35.5219 179.716C36.4634 179.997 37.0001 180.991 36.7186 181.933Z" fill="#4D2C5E"/>
<path d="M40.6487 189.384L25.9482 184.993L23.9675 191.625L38.668 196.015L40.6487 189.384Z" stroke="#4D2C5E" stroke-opacity="0.1" stroke-width="3" stroke-miterlimit="10" stroke-linecap="round"/>
<path d="M18.5156 190.376L43.8932 197.957" stroke="#4D2C5E" stroke-opacity="0.1" stroke-width="3" stroke-miterlimit="10" stroke-linecap="round"/>
<path d="M460.71 61.627C476.98 61.627 490.17 55.3749 490.17 47.6626C490.17 39.9503 476.98 33.6982 460.71 33.6982C444.44 33.6982 431.25 39.9503 431.25 47.6626C431.25 55.3749 444.44 61.627 460.71 61.627Z" stroke="#4D2C5E" stroke-opacity="0.1" stroke-width="2.25" stroke-miterlimit="10" stroke-linecap="round" stroke-linejoin="round"/>
<path d="M472.624 54.9413C481.085 41.0448 482.604 26.5284 476.017 22.518C469.429 18.5076 457.231 26.5218 448.77 40.4183C440.31 54.3148 438.791 68.8312 445.378 72.8416C451.965 76.852 464.164 68.8377 472.624 54.9413Z" stroke="#4D2C5E" stroke-opacity="0.1" stroke-width="2.25" stroke-miterlimit="10" stroke-linecap="round" stroke-linejoin="round"/>
<path d="M476.011 72.8355C482.598 68.8251 481.079 54.3087 472.618 40.4123C464.158 26.5158 451.959 18.5016 445.372 22.512C438.785 26.5224 440.304 41.0388 448.765 54.9352C457.225 68.8317 469.424 76.8459 476.011 72.8355Z" stroke="#4D2C5E" stroke-opacity="0.1" stroke-width="2.25" stroke-miterlimit="10" stroke-linecap="round" stroke-linejoin="round"/>
<path d="M460.71 51.359C462.752 51.359 464.407 49.704 464.407 47.6624C464.407 45.6208 462.752 43.9658 460.71 43.9658C458.669 43.9658 457.014 45.6208 457.014 47.6624C457.014 49.704 458.669 51.359 460.71 51.359Z" stroke="#4D2C5E" stroke-opacity="0.1" stroke-width="2.25" stroke-miterlimit="10" stroke-linecap="round" stroke-linejoin="round"/>
<path d="M69.9668 385.482L45.6408 391.097L44.547 386.356C44.2958 385.256 44.9762 384.163 46.0753 383.906L66.4236 379.206C67.5227 378.955 68.6164 379.636 68.8729 380.735L69.9668 385.482Z" stroke="#4D2C5E" stroke-opacity="0.1" stroke-width="2.25" stroke-miterlimit="10" stroke-linecap="round"/>
<path d="M61.9718 359.983C72.6941 351.337 74.3778 335.637 65.7325 324.915C57.0872 314.192 41.3866 312.509 30.6644 321.154C19.9421 329.799 18.2584 345.5 26.9037 356.222C35.549 366.944 51.2495 368.628 61.9718 359.983Z" stroke="#4D2C5E" stroke-opacity="0.1" stroke-width="2.25" stroke-miterlimit="10"/>
<path d="M57.9245 362.632L34.6662 318.512L31.7616 313.158C16.5998 321.15 10.7905 339.918 18.7822 355.08C26.774 370.241 45.5417 376.051 60.7035 368.059L57.8617 362.668" stroke="#4D2C5E" stroke-opacity="0.1" stroke-width="2.25" stroke-miterlimit="10" stroke-linecap="round" stroke-linejoin="round"/>
<path d="M39.7931 328.179C47.4075 324.165 52.436 318.74 51.0245 316.063C49.6131 313.386 42.2961 314.47 34.6817 318.485C27.0673 322.499 22.0388 327.924 23.4502 330.601C24.8617 333.278 32.1786 332.194 39.7931 328.179Z" stroke="#4D2C5E" stroke-opacity="0.1" stroke-width="2.25" stroke-miterlimit="10"/>
<path d="M41.5801 365.055C46.955 366.091 52.7068 365.385 57.9247 362.632C63.1427 359.879 66.9789 355.535 69.1613 350.516C63.7864 349.48 58.0346 350.186 52.8167 352.939C47.5936 355.692 43.7625 360.036 41.5801 365.055Z" stroke="#4D2C5E" stroke-opacity="0.1" stroke-width="2.25" stroke-miterlimit="10"/>
<path d="M57.9445 362.604C64.035 359.393 63.7649 346.913 57.3412 334.729C50.9175 322.546 40.7727 315.272 34.6821 318.483C28.5916 321.695 28.8618 334.175 35.2855 346.358C41.7092 358.542 51.854 365.815 57.9445 362.604Z" stroke="#4D2C5E" stroke-opacity="0.1" stroke-width="2.25" stroke-miterlimit="10"/>
<path d="M24.2354 352.201L68.3548 328.942" stroke="#4D2C5E" stroke-opacity="0.1" stroke-width="2.25" stroke-miterlimit="10"/>
<path d="M53.5391 370.775L56.114 381.515" stroke="#4D2C5E" stroke-opacity="0.1" stroke-width="2.25" stroke-miterlimit="10"/>
<path d="M42.7207 392.097L73.7299 384.66" stroke="#4D2C5E" stroke-opacity="0.1" stroke-width="2.25" stroke-miterlimit="10" stroke-linecap="round"/>
<path d="M503.043 303.268L516.021 290.289L480.059 254.326L467.08 267.305L503.043 303.268Z" stroke="#4D2C5E" stroke-opacity="0.1" stroke-width="2.25" stroke-miterlimit="10" stroke-linecap="round" stroke-linejoin="round"/>
<path d="M519.535 306.778L516.022 290.286L503.043 303.265L519.535 306.778Z" stroke="#4D2C5E" stroke-opacity="0.1" stroke-width="2.25" stroke-miterlimit="10" stroke-linecap="round" stroke-linejoin="round"/>
<path d="M517.895 299.084L511.834 305.139" stroke="#4D2C5E" stroke-opacity="0.1" stroke-width="2.25" stroke-miterlimit="10" stroke-linecap="round" stroke-linejoin="round"/>
<path d="M463.26 257.41L470.16 250.51C471.84 248.83 474.559 248.83 476.239 250.51L480.055 254.326L467.076 267.305L463.26 263.489C461.58 261.809 461.58 259.084 463.26 257.41Z" stroke="#4D2C5E" stroke-opacity="0.1" stroke-width="2.25" stroke-miterlimit="10" stroke-linecap="round" stroke-linejoin="round"/>
<path d="M483.561 257.827L470.582 270.812" stroke="#4D2C5E" stroke-opacity="0.1" stroke-width="2.25" stroke-miterlimit="10" stroke-linecap="round" stroke-linejoin="round"/>
<path d="M509.531 296.776L477.072 264.322" stroke="#4D2C5E" stroke-opacity="0.1" stroke-width="2.25" stroke-miterlimit="10" stroke-linecap="round" stroke-linejoin="round"/>
</svg>
