<svg width="305" height="83" viewBox="0 0 305 83" fill="none" xmlns="http://www.w3.org/2000/svg">
<path opacity="0.887" fill-rule="evenodd" clip-rule="evenodd" d="M187.743 7.78577C188.371 7.7125 188.68 8.00153 188.672 8.65284C188.912 10.9713 189.202 13.2835 189.539 15.5894C189.775 17.9029 189.775 20.2151 189.539 22.526C189.147 22.885 188.818 22.8437 188.548 22.4021C188.291 18.3922 187.817 14.4078 187.123 10.4489C187.212 9.52976 187.418 8.64205 187.743 7.78577Z" fill="#092434"/>
<path opacity="0.879" fill-rule="evenodd" clip-rule="evenodd" d="M193.813 8.77625C194.574 8.91963 195.256 9.24995 195.856 9.76718C195.939 9.97363 195.939 10.1801 195.856 10.3865C195.604 10.8304 195.335 11.264 195.051 11.6871C194.845 11.7697 194.639 11.7697 194.432 11.6871C193.958 11.3775 193.482 11.0678 193.008 10.7581C192.925 10.5517 192.925 10.3452 193.008 10.1388C193.304 9.69861 193.572 9.24443 193.813 8.77625Z" fill="#092434"/>
<path opacity="0.923" fill-rule="evenodd" clip-rule="evenodd" d="M171.393 10.8827C171.604 10.8628 171.81 10.8835 172.012 10.9446C172.084 11.0552 172.125 11.179 172.136 11.3162C171.89 11.9312 171.518 12.468 171.021 12.9265C169.422 13.602 167.853 14.3453 166.314 15.1561C165.787 15.4401 165.333 15.8117 164.952 16.2709C166.567 16.7527 168.218 16.9385 169.907 16.8283C173.505 16.7136 177.097 16.4865 180.683 16.147C181.591 16.0644 182.5 16.0644 183.408 16.147C186.238 16.9354 186.775 18.5043 185.018 20.854C177.332 21.9674 169.612 22.69 161.855 23.0216C160.147 22.9862 158.454 22.8211 156.777 22.5262C156.431 24.8452 155.233 26.5999 153.185 27.7905C151.501 27.9311 149.952 27.5388 148.54 26.6138C148.457 26.4073 148.457 26.2009 148.54 25.9944C149.499 25.9747 150.469 25.9542 151.45 25.9325C153.458 25.4313 154.821 24.2132 155.538 22.2784C155.432 21.6946 155.164 21.1992 154.733 20.792C154.593 20.0104 154.737 19.2878 155.166 18.6244C155.373 18.5418 155.579 18.5418 155.786 18.6244C156.305 19.4628 157.048 19.9995 158.015 20.2346C159.348 20.4691 160.69 20.6137 162.041 20.6682C169.21 20.525 176.333 19.8644 183.408 18.6863C182.506 18.2714 181.556 18.1062 180.559 18.1908C176.558 18.532 172.554 18.821 168.544 19.0579C167.298 19.0447 166.059 18.9415 164.828 18.7482C163.674 18.5874 163.199 17.9474 163.404 16.8283C163.893 15.7601 164.574 14.8311 165.447 14.0413C167.276 12.6936 169.258 11.6407 171.393 10.8827Z" fill="#092434"/>
<path opacity="0.889" fill-rule="evenodd" clip-rule="evenodd" d="M149.468 11.8736C149.638 11.8542 149.803 11.8749 149.964 11.9356C150.429 12.278 150.925 12.567 151.45 12.8026C151.583 13.0164 151.604 13.2435 151.512 13.4839C151.29 13.9838 151.022 14.4586 150.707 14.9084C150.226 14.9273 149.793 14.7828 149.406 14.4748C149.144 14.7966 148.855 15.0856 148.539 15.3419C147.9 15.0637 147.322 14.6921 146.805 14.2271C146.812 13.4881 147.081 12.8481 147.61 12.3072C147.775 12.2246 147.94 12.2246 148.106 12.3072C148.337 12.4764 148.585 12.6209 148.849 12.7407C149.102 12.4868 149.309 12.1978 149.468 11.8736Z" fill="#092434"/>
<path opacity="0.914" fill-rule="evenodd" clip-rule="evenodd" d="M195.054 13.1121C195.298 13.0824 195.524 13.1237 195.735 13.2359C196.162 15.5214 196.782 17.751 197.593 19.9248C198.538 20.7772 199.446 20.736 200.318 19.8009C200.759 18.7318 201.4 17.8028 202.238 17.0139C203.021 16.6966 203.661 16.8824 204.158 17.5713C204.891 18.8626 204.891 20.1425 204.158 21.4112C203.629 21.6584 203.072 21.7203 202.486 21.597C201.989 21.4591 201.515 21.2733 201.061 21.0396C200.213 22.9407 198.871 23.4155 197.036 22.464C196.549 22.0072 196.239 21.4498 196.107 20.7918C195.143 21.8645 193.925 22.4014 192.453 22.4021C191.327 22.4944 190.79 21.9782 190.842 20.8538C190.871 20.3745 190.933 19.8997 191.028 19.4293C191.21 19.2033 191.437 19.1413 191.709 19.2435C191.816 19.5 191.982 19.7065 192.205 19.8628C193.467 20.0407 194.541 19.6897 195.425 18.81C195.02 17.1374 194.835 15.4445 194.868 13.7314C194.911 13.515 194.973 13.3085 195.054 13.1121ZM202.486 18.81C202.752 18.8616 202.834 18.9854 202.734 19.1816C202.44 19.1331 202.357 19.0092 202.486 18.81Z" fill="#092434"/>
<path opacity="0.914" fill-rule="evenodd" clip-rule="evenodd" d="M149.221 16.5802C151.891 17.5993 152.614 19.416 151.388 22.0304C150.584 23.083 149.531 23.4751 148.23 23.2071C147.771 22.9966 147.502 22.6456 147.425 22.1542C147.454 20.1131 148.053 18.2551 149.221 16.5802ZM149.221 19.3053C149.69 19.6296 150.144 19.9805 150.583 20.3581C150.002 20.7973 149.382 20.8799 148.725 20.6059C148.873 20.166 149.038 19.7325 149.221 19.3053Z" fill="#092434"/>
<path opacity="0.971" fill-rule="evenodd" clip-rule="evenodd" d="M102.4 28.8431C104.217 28.8431 106.033 28.8431 107.85 28.8431C107.829 34.1283 107.85 39.4133 107.912 44.6981C110.436 41.6931 112.975 38.6997 115.53 35.7178C117.676 35.6558 119.823 35.6351 121.971 35.6558C121.99 35.8259 121.969 35.9911 121.909 36.1513C118.874 39.5164 115.839 42.8814 112.804 46.2465C116 49.7315 119.242 53.1791 122.528 56.5894C122.589 56.7495 122.61 56.9148 122.59 57.0848C120.36 57.1055 118.131 57.0848 115.901 57.0229C113.238 54.0294 110.575 51.036 107.912 48.0425C107.85 51.0563 107.829 54.0704 107.85 57.0848C106.033 57.0848 104.217 57.0848 102.4 57.0848C102.4 47.6709 102.4 38.257 102.4 28.8431Z" fill="#092434"/>
<path opacity="0.981" fill-rule="evenodd" clip-rule="evenodd" d="M204.589 41.106C204.589 46.4323 204.589 51.7585 204.589 57.0848C202.814 57.0848 201.038 57.0848 199.263 57.0848C199.316 52.4575 199.254 47.8332 199.077 43.2117C198.579 41.1462 197.258 40.0727 195.114 39.9912C193.019 40.0244 191.614 41.0153 190.902 42.964C190.719 47.665 190.657 52.3719 190.716 57.0848C188.899 57.0848 187.083 57.0848 185.266 57.0848C185.266 47.6709 185.266 38.257 185.266 28.8431C187.083 28.8431 188.899 28.8431 190.716 28.8431C190.695 31.9401 190.716 35.0367 190.778 38.1332C191.568 36.9728 192.621 36.1263 193.937 35.5939C196.486 34.7878 198.963 34.9943 201.369 36.2132C203.118 37.4035 204.191 39.0344 204.589 41.106Z" fill="#092434"/>
<path opacity="0.971" fill-rule="evenodd" clip-rule="evenodd" d="M0.0844727 29.834C2.27283 29.834 4.46107 29.834 6.64943 29.834C9.19044 35.4529 11.8333 41.0269 14.5769 46.5561C17.2723 41.0422 19.9354 35.5095 22.5663 29.9579C24.6832 29.835 26.81 29.7937 28.9455 29.834C28.9455 38.9175 28.9455 48.0012 28.9455 57.0848C27.0875 57.0848 25.2295 57.0848 23.3715 57.0848C23.3925 51.3041 23.3715 45.5236 23.3095 39.7434C20.468 45.4674 17.66 51.2065 14.8866 56.9609C14.6624 57.117 14.4345 57.117 14.2053 56.9609C11.3434 51.1956 8.51499 45.4151 5.72042 39.6195C5.65849 45.4411 5.6378 51.2629 5.65849 57.0848C3.80048 57.0848 1.94248 57.0848 0.0844727 57.0848C0.0844727 48.0012 0.0844727 38.9175 0.0844727 29.834Z" fill="#092434"/>
<path opacity="0.973" fill-rule="evenodd" clip-rule="evenodd" d="M43.9346 35.0366C50.1713 35.266 53.8663 38.4453 55.0207 44.5744C55.4803 47.9395 54.7371 50.9949 52.7911 53.7405C49.635 57.1182 45.774 58.3363 41.2095 57.3946C36.5645 56.222 33.8184 53.2699 32.9724 48.5381C32.2242 43.8002 33.6896 39.9397 37.3696 36.9566C39.3974 35.7173 41.5861 35.0774 43.9346 35.0366ZM42.9437 40.1152C46.5494 39.9024 48.7592 41.554 49.5706 45.0699C49.9793 47.6323 49.2559 49.8 47.4029 51.5729C45.9858 52.5662 44.4164 52.8965 42.6959 52.5638C40.3722 51.8506 38.9477 50.3022 38.4225 47.9188C37.8961 45.2552 38.6182 43.0049 40.5902 41.168C41.3272 40.6753 42.1113 40.3243 42.9437 40.1152Z" fill="#092434"/>
<path opacity="0.97" fill-rule="evenodd" clip-rule="evenodd" d="M88.6493 35.0366C90.2943 35.063 91.9045 35.3314 93.4801 35.8418C95.8646 36.8647 97.289 38.6607 97.7535 41.23C97.8774 41.9683 97.9592 42.7115 98.0013 43.4596C98.0632 48.0012 98.0843 52.543 98.0632 57.085C96.2461 57.085 94.4302 57.085 92.6131 57.085C92.6341 56.2169 92.6131 55.3498 92.5511 54.4837C90.8083 56.6223 88.5378 57.6959 85.7384 57.7043C83.0728 57.7548 80.9671 56.7225 79.4212 54.6076C78.159 52.1133 78.1999 49.636 79.5451 47.1756C80.8915 45.3765 82.6876 44.3237 84.9333 44.017C87.5531 43.62 90.1134 43.847 92.6131 44.6983C92.701 41.3179 91.0486 39.749 87.6584 39.9913C85.0869 39.9887 82.6913 40.6287 80.4741 41.9112C80.3143 41.9719 80.1483 41.9926 79.9786 41.9732C79.939 40.2912 79.9799 38.619 80.1025 36.9566C82.8263 35.6896 85.6753 35.0496 88.6493 35.0366ZM87.1629 47.6711C89.0333 47.5669 90.8504 47.8146 92.6131 48.4143C92.2662 51.0526 90.7798 52.6422 88.1538 53.1831C87.4106 53.2658 86.6674 53.2658 85.9242 53.1831C83.7479 52.4724 83.1905 51.0892 84.252 49.0336C85.0708 48.2318 86.0419 47.7777 87.1629 47.6711Z" fill="#092434"/>
<path opacity="0.971" fill-rule="evenodd" clip-rule="evenodd" d="M133.738 35.0368C136.152 34.9795 138.382 35.5783 140.427 36.8329C142.101 38.4237 142.989 40.3849 143.09 42.7166C143.152 47.5059 143.173 52.2955 143.152 57.0852C141.335 57.0852 139.519 57.0852 137.702 57.0852C137.723 56.2171 137.702 55.35 137.64 54.484C136.518 56.0272 135.01 56.9976 133.119 57.3948C130.611 57.9742 128.257 57.6026 126.059 56.28C123.675 54.0326 123.035 51.3695 124.139 48.2906C125.074 46.1808 126.663 44.8389 128.907 44.2649C131.842 43.5786 134.732 43.7231 137.578 44.6985C137.971 42.4469 137.104 40.9398 134.977 40.1773C132.886 39.8563 130.822 39.9801 128.784 40.5489C127.525 40.993 126.286 41.4679 125.068 41.9734C125.027 40.3198 125.068 38.6683 125.191 37.0187C127.909 35.7241 130.758 35.0635 133.738 35.0368ZM132.252 47.6713C134.104 47.5931 135.921 47.7996 137.702 48.2906C137.566 50.5954 136.409 52.1437 134.234 52.9356C132.708 53.4197 131.221 53.3371 129.775 52.6879C128.958 51.9316 128.689 51.0026 128.969 49.9009C129.178 49.3212 129.528 48.8464 130.022 48.4764C130.741 48.0928 131.484 47.8244 132.252 47.6713Z" fill="#092434"/>
<path opacity="0.97" fill-rule="evenodd" clip-rule="evenodd" d="M171.517 35.0366C173.162 35.063 174.772 35.3314 176.348 35.8418C178.787 36.879 180.211 38.7163 180.621 41.3538C180.75 42.1745 180.833 43.0003 180.869 43.8312C180.931 48.2489 180.952 52.6669 180.931 57.085C179.114 57.085 177.298 57.085 175.481 57.085C175.502 56.2169 175.481 55.3498 175.419 54.4838C174.288 56.0301 172.782 57.0004 170.897 57.3946C168.205 58.0429 165.727 57.5887 163.465 56.0321C162.034 54.6734 161.331 53.0012 161.36 51.0155C161.653 47.0673 163.759 44.7345 167.677 44.017C170.336 43.6166 172.938 43.8438 175.481 44.6983C175.565 41.3141 173.912 39.7452 170.526 39.9913C167.954 39.9887 165.559 40.6287 163.342 41.9112C163.182 41.9719 163.016 41.9926 162.846 41.9732C162.806 40.2912 162.847 38.619 162.97 36.9566C165.694 35.6896 168.543 35.0496 171.517 35.0366ZM169.907 47.6711C171.818 47.5575 173.676 47.8052 175.481 48.4143C175.134 51.0526 173.647 52.6422 171.021 53.1831C170.278 53.2658 169.535 53.2658 168.792 53.1831C166.823 52.6121 166.183 51.3528 166.872 49.4052C167.64 48.392 168.651 47.8139 169.907 47.6711Z" fill="#092434"/>
<path opacity="0.969" fill-rule="evenodd" clip-rule="evenodd" d="M157.644 35.1603C158.567 35.0746 159.434 35.2397 160.246 35.6557C160.369 37.1812 160.41 38.7089 160.369 40.2388C157.907 39.6218 155.821 40.2412 154.114 42.0968C153.473 43.0735 153.101 44.147 152.999 45.3174C152.937 49.2396 152.916 53.1621 152.937 57.0847C151.12 57.0847 149.304 57.0847 147.487 57.0847C147.487 49.9417 147.487 42.7988 147.487 35.6557C149.304 35.6557 151.12 35.6557 152.937 35.6557C152.916 36.6063 152.937 37.556 152.999 38.5047C153.983 36.5909 155.531 35.4761 157.644 35.1603Z" fill="#092434"/>
<path opacity="0.969" fill-rule="evenodd" clip-rule="evenodd" d="M57.9309 35.656C63.8765 35.656 69.8221 35.656 75.7677 35.656C75.8235 36.9901 75.7615 38.3113 75.5819 39.6198C72.0542 43.9275 68.4831 48.2009 64.8674 52.44C68.5834 52.5019 72.2994 52.5226 76.0155 52.5019C76.0155 54.0296 76.0155 55.5574 76.0155 57.085C69.9051 57.085 63.7935 57.085 57.6831 57.085C57.6274 55.751 57.6893 54.4297 57.8689 53.1213C61.3991 48.8479 64.9294 44.5744 68.4596 40.301C64.9504 40.2391 61.4413 40.2184 57.9309 40.2391C57.9309 38.7114 57.9309 37.1837 57.9309 35.656Z" fill="#092434"/>
<path opacity="0.658" fill-rule="evenodd" clip-rule="evenodd" d="M12.2249 67.4895C14.1709 67.1313 15.6362 67.7918 16.6222 69.4714C17.3691 71.5646 16.8117 73.1955 14.95 74.3641C13.0734 75.0867 11.4842 74.6945 10.1811 73.1874C8.96748 70.5713 9.64875 68.6719 12.2249 67.4895ZM12.8443 68.6043C15.3674 68.9007 16.1305 70.2219 15.1358 72.568C13.8389 73.8475 12.5594 73.8062 11.2959 72.4442C10.5076 70.6353 11.0238 69.3554 12.8443 68.6043Z" fill="#092434"/>
<path opacity="0.659" fill-rule="evenodd" clip-rule="evenodd" d="M101.285 67.4894C104.02 67.1412 105.589 68.318 105.992 71.0196C105.836 73.3436 104.597 74.5618 102.276 74.6737C99.9568 74.56 98.7181 73.342 98.5596 71.0196C98.6847 69.215 99.5926 68.0383 101.285 67.4894ZM101.904 68.6042C104.105 68.7625 104.952 69.9187 104.443 72.0725C103.786 73.2382 102.814 73.6718 101.532 73.3731C99.8688 72.4288 99.5183 71.1282 100.48 69.4713C100.883 69.0424 101.359 68.7534 101.904 68.6042Z" fill="#092434"/>
<path opacity="0.659" fill-rule="evenodd" clip-rule="evenodd" d="M136.214 67.4895C137.71 67.1894 138.948 67.6024 139.931 68.7282C139.685 69.0359 139.416 69.3249 139.125 69.5953C138.102 68.6236 136.966 68.4791 135.719 69.1617C134.691 70.2505 134.587 71.4273 135.409 72.6919C136.658 73.7074 137.876 73.6661 139.063 72.5681C139.268 72.8344 139.494 73.0821 139.745 73.3113C139.72 73.5894 139.576 73.8164 139.311 73.9925C138.196 74.6892 136.999 74.8543 135.719 74.488C133.934 73.6224 133.212 72.198 133.551 70.2146C133.966 68.8295 134.854 67.9211 136.214 67.4895Z" fill="#092434"/>
<path opacity="0.659" fill-rule="evenodd" clip-rule="evenodd" d="M191.956 67.4895C193.451 67.1894 194.69 67.6024 195.672 68.7282C195.427 69.0359 195.158 69.3249 194.867 69.5953C193.844 68.6236 192.708 68.4791 191.461 69.1617C190.405 70.1845 190.262 71.3199 191.027 72.5681C192.266 73.7241 193.504 73.7241 194.743 72.5681C195.106 72.8439 195.354 73.1743 195.486 73.559C194.505 74.5326 193.329 74.8836 191.956 74.6119C189.786 73.8856 188.898 72.3785 189.293 70.0907C189.693 68.7073 190.58 67.8402 191.956 67.4895Z" fill="#092434"/>
<path opacity="0.642" fill-rule="evenodd" clip-rule="evenodd" d="M0.0844727 67.7378C0.55653 67.596 1.052 67.5753 1.57088 67.6758C2.15404 68.6565 2.75269 69.6268 3.36695 70.5867C3.98121 69.6268 4.57986 68.6565 5.16302 67.6758C5.62269 67.5737 6.07691 67.5942 6.52556 67.7378C5.75151 69.0796 4.94638 70.4009 4.11015 71.7015C4.04822 72.6916 4.02766 73.6825 4.04822 74.6743C3.594 74.6743 3.1399 74.6743 2.68568 74.6743C2.70624 73.7238 2.68568 72.7741 2.62375 71.8254C1.83632 70.4133 0.989817 69.0508 0.0844727 67.7378Z" fill="#092434"/>
<path opacity="0.675" fill-rule="evenodd" clip-rule="evenodd" d="M20.8959 67.6136C21.3084 67.6136 21.7221 67.6136 22.1346 67.6136C22.0912 69.1879 22.1532 70.7568 22.3204 72.3206C22.8344 73.3722 23.6396 73.6819 24.7358 73.2496C25.2077 72.9423 25.4765 72.5087 25.5409 71.949C25.6029 70.5045 25.6239 69.0593 25.6029 67.6136C26.0153 67.6136 26.4291 67.6136 26.8415 67.6136C26.8948 69.3963 26.8329 71.1719 26.6557 72.9399C25.915 74.3733 24.7383 74.9307 23.1255 74.6121C22.1383 74.3686 21.457 73.77 21.0817 72.8161C20.9046 71.0892 20.8426 69.3551 20.8959 67.6136Z" fill="#092434"/>
<path opacity="0.671" fill-rule="evenodd" clip-rule="evenodd" d="M31.2993 67.6135C32.7102 67.566 34.1136 67.6279 35.5108 67.7993C36.4609 68.1691 36.9142 68.8711 36.8733 69.905C36.8907 70.9451 36.4361 71.6883 35.5108 72.1346C36.0645 72.957 36.6429 73.7621 37.2449 74.55C36.7123 74.6938 36.176 74.7145 35.6347 74.6119C35.0674 73.8907 34.531 73.1475 34.0244 72.3823C33.5302 72.3205 33.0347 72.2998 32.538 72.3204C32.538 73.1049 32.538 73.8894 32.538 74.6739C32.1255 74.6739 31.7118 74.6739 31.2993 74.6739C31.2993 72.3204 31.2993 69.9669 31.2993 67.6135ZM32.538 68.7283C33.4633 68.6952 34.3712 68.7985 35.2631 69.0379C35.6223 69.6877 35.5802 70.3071 35.1392 70.8959C34.2833 71.0674 33.4162 71.1293 32.538 71.0817C32.538 70.2973 32.538 69.5127 32.538 68.7283Z" fill="#092434"/>
<path opacity="0.681" fill-rule="evenodd" clip-rule="evenodd" d="M46.5352 67.6134C47.8642 67.5635 49.1859 67.6254 50.4989 67.7992C51.221 68.0262 51.6967 68.5011 51.9234 69.2237C52.3643 70.9252 51.7648 72.0193 50.1273 72.5061C49.3445 72.5681 48.5591 72.5886 47.7738 72.5681C47.7738 73.27 47.7738 73.9719 47.7738 74.6738C47.3613 74.6738 46.9476 74.6738 46.5352 74.6738C46.5352 72.3203 46.5352 69.9669 46.5352 67.6134ZM47.7738 68.7282C48.7115 68.6701 49.5996 68.8352 50.437 69.2237C50.8309 69.9011 50.7689 70.541 50.2512 71.1436C49.4497 71.4072 48.6236 71.5104 47.7738 71.4533C47.7738 70.545 47.7738 69.6365 47.7738 68.7282Z" fill="#092434"/>
<path opacity="0.655" fill-rule="evenodd" clip-rule="evenodd" d="M58.0547 67.6137C58.5427 67.5774 59.0171 67.6186 59.4792 67.7376C60.4912 70.0312 61.5031 72.3227 62.5139 74.6122C62.0197 74.674 61.5242 74.6947 61.0275 74.6741C60.8739 74.1391 60.667 73.6231 60.4082 73.1258C59.2934 73.0432 58.1786 73.0432 57.0637 73.1258C56.8049 73.6231 56.598 74.1391 56.4444 74.6741C55.9477 74.6947 55.4522 74.674 54.958 74.6122C55.9787 72.2727 57.0105 69.9399 58.0547 67.6137ZM58.674 69.224C59.0431 70.0371 59.4147 70.863 59.7888 71.7013C59.0865 71.8664 58.3854 71.8664 57.6831 71.7013C58.0844 70.8995 58.4151 70.0737 58.674 69.224Z" fill="#092434"/>
<path opacity="0.67" fill-rule="evenodd" clip-rule="evenodd" d="M65.3628 67.6136C67.1799 67.6136 68.9958 67.6136 70.8129 67.6136C70.8129 68.0265 70.8129 68.4395 70.8129 68.8523C70.1106 68.8523 69.4095 68.8523 68.7072 68.8523C68.7072 70.7929 68.7072 72.7334 68.7072 74.6741C68.2947 74.6741 67.881 74.6741 67.4685 74.6741C67.4685 72.7334 67.4685 70.7929 67.4685 68.8523C66.7662 68.8523 66.0651 68.8523 65.3628 68.8523C65.3628 68.4395 65.3628 68.0265 65.3628 67.6136Z" fill="#092434"/>
<path opacity="0.685" fill-rule="evenodd" clip-rule="evenodd" d="M74.6519 67.6136C75.0643 67.6136 75.478 67.6136 75.8905 67.6136C75.8905 68.6046 75.8905 69.5955 75.8905 70.5865C77.0053 70.5865 78.1201 70.5865 79.2349 70.5865C79.2349 69.5955 79.2349 68.6046 79.2349 67.6136C79.6474 67.6136 80.0611 67.6136 80.4736 67.6136C80.4736 69.9671 80.4736 72.3206 80.4736 74.6741C80.0611 74.6741 79.6474 74.6741 79.2349 74.6741C79.2349 73.7244 79.2349 72.7748 79.2349 71.8251C78.1201 71.8251 77.0053 71.8251 75.8905 71.8251C75.8905 72.7748 75.8905 73.7244 75.8905 74.6741C75.478 74.6741 75.0643 74.6741 74.6519 74.6741C74.6519 72.3206 74.6519 69.9671 74.6519 67.6136Z" fill="#092434"/>
<path opacity="0.67" fill-rule="evenodd" clip-rule="evenodd" d="M89.7654 67.6136C91.5825 67.6136 93.3984 67.6136 95.2155 67.6136C95.2155 68.0265 95.2155 68.4395 95.2155 68.8523C94.5132 68.8523 93.8121 68.8523 93.1098 68.8523C93.1098 70.7929 93.1098 72.7334 93.1098 74.6741C92.6973 74.6741 92.2836 74.6741 91.8711 74.6741C91.8711 72.7334 91.8711 70.7929 91.8711 68.8523C91.1688 68.8523 90.4677 68.8523 89.7654 68.8523C89.7654 68.4395 89.7654 68.0265 89.7654 67.6136Z" fill="#092434"/>
<path opacity="0.674" fill-rule="evenodd" clip-rule="evenodd" d="M115.405 67.6136C117.056 67.6136 118.709 67.6136 120.36 67.6136C120.36 68.0265 120.36 68.4395 120.36 68.8523C119.121 68.8523 117.882 68.8523 116.644 68.8523C116.644 69.4304 116.644 70.0084 116.644 70.5865C117.759 70.5865 118.873 70.5865 119.988 70.5865C119.988 70.9581 119.988 71.3297 119.988 71.7013C118.873 71.7013 117.759 71.7013 116.644 71.7013C116.644 72.2793 116.644 72.8573 116.644 73.4354C117.923 73.4354 119.204 73.4354 120.484 73.4354C120.484 73.8482 120.484 74.2612 120.484 74.6741C118.79 74.6741 117.098 74.6741 115.405 74.6741C115.405 72.3206 115.405 69.9671 115.405 67.6136Z" fill="#092434"/>
<path opacity="0.649" fill-rule="evenodd" clip-rule="evenodd" d="M123.952 67.6131C124.494 67.5727 125.032 67.6141 125.562 67.737C126.037 68.4389 126.512 69.1408 126.987 69.8427C127.461 69.1408 127.937 68.4389 128.411 67.737C128.947 67.5719 129.485 67.5719 130.021 67.737C129.303 68.8227 128.602 69.9168 127.916 71.0195C128.698 72.2155 129.483 73.4129 130.269 74.6116C129.733 74.6942 129.195 74.6942 128.659 74.6116C128.087 73.7757 127.529 72.9294 126.987 72.0723C126.444 72.9294 125.887 73.7757 125.314 74.6116C124.773 74.7142 124.237 74.6935 123.704 74.5497C124.504 73.3836 125.288 72.2068 126.058 71.0195C125.324 69.8961 124.622 68.7606 123.952 67.6131Z" fill="#092434"/>
<path opacity="0.674" fill-rule="evenodd" clip-rule="evenodd" d="M143.893 67.6136C145.544 67.6136 147.196 67.6136 148.848 67.6136C148.848 68.0265 148.848 68.4395 148.848 68.8523C147.609 68.8523 146.37 68.8523 145.131 68.8523C145.131 69.4304 145.131 70.0084 145.131 70.5865C146.246 70.5865 147.361 70.5865 148.476 70.5865C148.476 70.9581 148.476 71.3297 148.476 71.7013C147.361 71.7013 146.246 71.7013 145.131 71.7013C145.131 72.2793 145.131 72.8573 145.131 73.4354C146.411 73.4354 147.692 73.4354 148.971 73.4354C148.971 73.8482 148.971 74.2612 148.971 74.6741C147.278 74.6741 145.586 74.6741 143.893 74.6741C143.893 72.3206 143.893 69.9671 143.893 67.6136Z" fill="#092434"/>
<path opacity="0.64" fill-rule="evenodd" clip-rule="evenodd" d="M152.938 67.6136C153.393 67.6136 153.846 67.6136 154.301 67.6136C154.301 69.5543 154.301 71.4948 154.301 73.4354C155.332 73.4354 156.365 73.4354 157.397 73.4354C157.397 73.8482 157.397 74.2612 157.397 74.6741C155.911 74.6741 154.424 74.6741 152.938 74.6741C152.938 72.3206 152.938 69.9671 152.938 67.6136Z" fill="#092434"/>
<path opacity="0.64" fill-rule="evenodd" clip-rule="evenodd" d="M161.234 67.6136C161.689 67.6136 162.142 67.6136 162.597 67.6136C162.597 69.5543 162.597 71.4948 162.597 73.4354C163.629 73.4354 164.662 73.4354 165.694 73.4354C165.694 73.8482 165.694 74.2612 165.694 74.6741C164.207 74.6741 162.721 74.6741 161.234 74.6741C161.234 72.3206 161.234 69.9671 161.234 67.6136Z" fill="#092434"/>
<path opacity="0.674" fill-rule="evenodd" clip-rule="evenodd" d="M169.535 67.6136C171.186 67.6136 172.839 67.6136 174.49 67.6136C174.49 68.0265 174.49 68.4395 174.49 68.8523C173.251 68.8523 172.012 68.8523 170.774 68.8523C170.774 69.4304 170.774 70.0084 170.774 70.5865C171.889 70.5865 173.003 70.5865 174.118 70.5865C174.118 70.9581 174.118 71.3297 174.118 71.7013C173.003 71.7013 171.889 71.7013 170.774 71.7013C170.774 72.2793 170.774 72.8573 170.774 73.4354C172.053 73.4354 173.334 73.4354 174.614 73.4354C174.614 73.8482 174.614 74.2612 174.614 74.6741C172.92 74.6741 171.228 74.6741 169.535 74.6741C169.535 72.3206 169.535 69.9671 169.535 67.6136Z" fill="#092434"/>
<path opacity="0.678" fill-rule="evenodd" clip-rule="evenodd" d="M178.702 67.6136C179.164 67.5736 179.618 67.615 180.065 67.7375C181.301 69.3655 182.56 70.9758 183.843 72.5683C183.905 70.9173 183.926 69.2656 183.905 67.6136C184.317 67.6136 184.731 67.6136 185.143 67.6136C185.143 69.9671 185.143 72.3206 185.143 74.6741C184.688 74.6945 184.233 74.6739 183.781 74.6121C182.521 73.0225 181.263 71.4328 180.003 69.8432C179.941 71.453 179.92 73.0633 179.941 74.6741C179.529 74.6741 179.115 74.6741 178.702 74.6741C178.702 72.3206 178.702 69.9671 178.702 67.6136Z" fill="#092434"/>
<path opacity="0.652" fill-rule="evenodd" clip-rule="evenodd" d="M204.589 67.6136C204.589 68.0265 204.589 68.4395 204.589 68.8523C203.351 68.8523 202.112 68.8523 200.873 68.8523C200.873 69.4304 200.873 70.0084 200.873 70.5865C201.988 70.5865 203.103 70.5865 204.218 70.5865C204.218 70.9581 204.218 71.3297 204.218 71.7013C203.103 71.7013 201.988 71.7013 200.873 71.7013C200.873 72.2793 200.873 72.8573 200.873 73.4354C202.112 73.4354 203.351 73.4354 204.589 73.4354C204.589 73.8482 204.589 74.2612 204.589 74.6741C202.896 74.6741 201.204 74.6741 199.511 74.6741C199.511 72.3206 199.511 69.9671 199.511 67.6136C201.204 67.6136 202.896 67.6136 204.589 67.6136Z" fill="#092434"/>
<path opacity="0.45" fill-rule="evenodd" clip-rule="evenodd" d="M213.377 0.245239C213.707 0.245239 214.038 0.245239 214.368 0.245239C214.368 27.5786 214.368 54.9119 214.368 82.2452C214.038 82.2452 213.707 82.2452 213.377 82.2452C213.377 54.9119 213.377 27.5786 213.377 0.245239Z" fill="#092434"/>
<path opacity="0.982" fill-rule="evenodd" clip-rule="evenodd" d="M253.758 0.245239C254.419 0.245239 255.08 0.245239 255.74 0.245239C255.74 2.51613 255.74 4.78704 255.74 7.05793C253.252 7.4927 252.323 8.93782 252.953 11.3933C253.561 12.492 254.49 13.1113 255.74 13.2513C255.74 14.4073 255.74 15.5635 255.74 16.7196C251.116 16.7196 246.492 16.7196 241.867 16.7196C241.496 16.7196 241.124 16.7196 240.752 16.7196C240.324 16.5979 239.869 16.5567 239.39 16.5957C239.59 10.3097 242.356 5.54079 247.689 2.28905C249.607 1.24506 251.63 0.563792 253.758 0.245239Z" fill="#4BB1FE"/>
<path opacity="0.981" fill-rule="evenodd" clip-rule="evenodd" d="M255.739 0.245239C256.193 0.245239 256.647 0.245239 257.101 0.245239C263.99 1.04135 268.717 4.67478 271.284 11.1455C271.61 12.2216 271.878 13.295 272.089 14.3661C272.089 15.1093 272.089 15.8525 272.089 16.5957C271.772 16.5583 271.483 16.5997 271.222 16.7196C270.726 16.7196 270.231 16.7196 269.736 16.7196C265.07 16.7196 260.404 16.7196 255.739 16.7196C255.739 15.5635 255.739 14.4073 255.739 13.2513C258.152 12.8405 259.123 11.4367 258.649 9.0398C258.068 7.80975 257.098 7.14913 255.739 7.05793C255.739 4.78704 255.739 2.51613 255.739 0.245239Z" fill="#014CFD"/>
<path opacity="0.982" fill-rule="evenodd" clip-rule="evenodd" d="M272.09 0.245239C272.75 0.245239 273.411 0.245239 274.072 0.245239C280.484 1.26804 284.964 4.7776 287.511 10.7739C288.17 12.658 288.521 14.5986 288.564 16.5957C288.564 18.8665 288.564 21.1375 288.564 23.4084C288.523 23.4084 288.481 23.4084 288.44 23.4084C288.44 21.1375 288.44 18.8665 288.44 16.5957C287.657 16.6594 286.873 16.7006 286.087 16.7196C281.462 16.7196 276.838 16.7196 272.214 16.7196C271.883 16.7196 271.553 16.7196 271.223 16.7196C271.484 16.5997 271.773 16.5583 272.09 16.5957C272.09 15.8525 272.09 15.1093 272.09 14.3661C272.09 9.65914 272.09 4.95219 272.09 0.245239Z" fill="#3291FE"/>
<path opacity="0.992" fill-rule="evenodd" clip-rule="evenodd" d="M239.39 16.5954C239.869 16.5564 240.324 16.5976 240.753 16.7193C240.298 16.7193 239.844 16.7193 239.39 16.7193C239.39 22.1694 239.39 27.6196 239.39 33.0697C233.94 33.0697 228.49 33.0697 223.04 33.0697C223.04 32.4091 223.04 31.7484 223.04 31.0878C224.067 24.6709 227.577 20.191 233.568 17.6483C235.447 16.9499 237.387 16.5989 239.39 16.5954Z" fill="#3291FE"/>
<path opacity="0.984" fill-rule="evenodd" clip-rule="evenodd" d="M288.566 16.5959C294.868 16.8448 299.637 19.6525 302.873 25.0189C304.233 27.5292 304.915 30.213 304.917 33.0703C304.174 33.0703 303.43 33.0703 302.687 33.0703C297.939 33.0703 293.191 33.0703 288.442 33.0703C288.442 31.9142 288.442 30.758 288.442 29.602C290.913 29.2454 291.883 27.8416 291.353 25.3905C290.789 24.229 289.86 23.5684 288.566 23.4086C288.566 21.1378 288.566 18.8668 288.566 16.5959Z" fill="#4BB1FE"/>
<path opacity="0.99" fill-rule="evenodd" clip-rule="evenodd" d="M240.752 16.7197C241.124 16.7197 241.496 16.7197 241.867 16.7197C249.77 18.388 254.394 23.2188 255.74 31.2122C255.74 31.8315 255.74 32.4508 255.74 33.0702C250.29 33.0702 244.84 33.0702 239.39 33.0702C239.39 27.62 239.39 22.1699 239.39 16.7197C239.844 16.7197 240.298 16.7197 240.752 16.7197Z" fill="#014CFD"/>
<path opacity="0.984" fill-rule="evenodd" clip-rule="evenodd" d="M269.736 16.7197C270.231 16.7197 270.726 16.7197 271.222 16.7197C271.552 16.7197 271.882 16.7197 272.213 16.7197C272.213 21.3441 272.213 25.9685 272.213 30.5928C272.213 30.9232 272.213 31.2534 272.213 31.5838C272.091 32.0542 272.05 32.5497 272.089 33.0702C271.387 33.0702 270.685 33.0702 269.983 33.0702C265.276 33.0702 260.569 33.0702 255.862 33.0702C255.821 33.0702 255.78 33.0702 255.739 33.0702C255.739 32.4508 255.739 31.8315 255.739 31.2122C256.733 24.7448 260.243 20.2237 266.267 17.6487C267.419 17.2579 268.575 16.9483 269.736 16.7197Z" fill="#6BD0FD"/>
<path opacity="0.986" fill-rule="evenodd" clip-rule="evenodd" d="M288.44 23.4086C286.041 23.8911 285.112 25.3363 285.653 27.744C286.221 28.9052 287.15 29.5246 288.44 29.602C288.44 30.758 288.44 31.9142 288.44 33.0703C283.527 33.0703 278.614 33.0703 273.7 33.0703C273.205 33.0703 272.709 33.0703 272.214 33.0703C272.214 32.5748 272.214 32.0793 272.214 31.5839C272.214 31.2535 272.214 30.9233 272.214 30.5929C273.824 22.9544 278.448 18.3301 286.087 16.7198C286.873 16.7009 287.657 16.6596 288.44 16.5959C288.44 18.8668 288.44 21.1378 288.44 23.4086Z" fill="#014CFD"/>
<path opacity="0.986" fill-rule="evenodd" clip-rule="evenodd" d="M223.04 33.0699C228.49 33.0699 233.94 33.0699 239.39 33.0699C239.396 33.9802 239.437 34.8887 239.514 35.795C239.514 40.3369 239.514 44.8786 239.514 49.4204C244.221 49.4204 248.928 49.4204 253.635 49.4204C254.337 49.4204 255.039 49.4204 255.74 49.4204C255.74 54.9118 255.74 60.4033 255.74 65.8947C248.152 65.5089 242.971 61.7929 240.195 54.7467C239.645 53.0553 239.377 51.3211 239.39 49.5443C231.655 49.0934 226.431 45.2535 223.721 38.0246C223.452 37.026 223.225 36.0351 223.04 35.0518C223.04 34.3912 223.04 33.7305 223.04 33.0699Z" fill="#6BD0FD"/>
<path opacity="0.985" fill-rule="evenodd" clip-rule="evenodd" d="M239.39 33.0699C244.84 33.0699 250.29 33.0699 255.74 33.0699C255.782 33.0699 255.823 33.0699 255.864 33.0699C255.864 37.653 255.864 42.2361 255.864 46.8192C255.791 47.6844 255.75 48.5515 255.74 49.4204C255.038 49.4204 254.337 49.4204 253.635 49.4204C245.971 47.9498 241.264 43.408 239.514 35.795C239.437 34.8887 239.396 33.9802 239.39 33.0699Z" fill="#4CB2FE"/>
<path opacity="0.985" fill-rule="evenodd" clip-rule="evenodd" d="M269.983 33.0699C270.685 33.0699 271.387 33.0699 272.089 33.0699C272.089 38.5201 272.089 43.9702 272.089 49.4204C272.089 49.4616 272.089 49.503 272.089 49.5443C267.547 49.5443 263.005 49.5443 258.464 49.5443C257.598 49.4713 256.731 49.4301 255.862 49.4204C255.862 54.9118 255.862 60.4033 255.862 65.8947C255.821 65.8947 255.78 65.8947 255.739 65.8947C255.739 60.4033 255.739 54.9118 255.739 49.4204C255.748 48.5515 255.789 47.6844 255.862 46.8192C257.554 39.1412 262.26 34.5581 269.983 33.0699Z" fill="#3190FE"/>
<path opacity="0.985" fill-rule="evenodd" clip-rule="evenodd" d="M272.213 31.5833C272.213 32.0787 272.213 32.5742 272.213 33.0697C272.708 33.0697 273.204 33.0697 273.699 33.0697C280.038 33.8763 284.56 37.1794 287.263 42.979C287.948 44.6054 288.34 46.2982 288.439 48.0576C288.439 48.553 288.439 49.0485 288.439 49.544C283.897 49.544 279.356 49.544 274.814 49.544C273.908 49.4674 272.999 49.4262 272.089 49.4201C272.089 43.97 272.089 38.5198 272.089 33.0697C272.05 32.5492 272.091 32.0537 272.213 31.5833Z" fill="#4BB1FE"/>
<path opacity="0.988" fill-rule="evenodd" clip-rule="evenodd" d="M302.685 33.0702C303.428 33.0702 304.171 33.0702 304.915 33.0702C304.915 38.5203 304.915 43.9705 304.915 49.4206C299.465 49.4206 294.014 49.4206 288.564 49.4206C288.564 48.9664 288.564 48.5123 288.564 48.0581C289.406 40.9838 293.163 36.2149 299.836 33.7515C300.797 33.5008 301.747 33.2736 302.685 33.0702Z" fill="#014BFD"/>
<path opacity="0.987" fill-rule="evenodd" clip-rule="evenodd" d="M258.464 49.5444C266.021 51.279 270.563 55.9447 272.09 63.5414C272.09 64.2846 272.09 65.0278 272.09 65.771C272.09 65.8122 272.09 65.8536 272.09 65.8949C266.681 65.8949 261.272 65.8949 255.863 65.8949C255.863 60.4035 255.863 54.9119 255.863 49.4205C256.732 49.4302 257.599 49.4714 258.464 49.5444Z" fill="#014CFD"/>
<path opacity="0.841" fill-rule="evenodd" clip-rule="evenodd" d="M288.442 48.0579C288.484 48.0579 288.525 48.0579 288.566 48.0579C288.566 48.5121 288.566 48.9662 288.566 49.4204C294.016 49.4204 299.467 49.4204 304.917 49.4204C304.917 49.4616 304.917 49.503 304.917 49.5443C299.425 49.5443 293.934 49.5443 288.442 49.5443C288.442 49.0488 288.442 48.5533 288.442 48.0579Z" fill="#2680FD"/>
<path opacity="0.988" fill-rule="evenodd" clip-rule="evenodd" d="M272.089 49.4205C272.999 49.4266 273.908 49.4678 274.814 49.5444C282.315 51.2648 286.857 55.8891 288.44 63.4175C288.44 63.8717 288.44 64.3258 288.44 64.78C288.44 65.1104 288.44 65.4406 288.44 65.771C282.989 65.771 277.539 65.771 272.089 65.771C272.089 65.0278 272.089 64.2846 272.089 63.5414C272.089 58.8757 272.089 54.2101 272.089 49.5444C272.089 49.5032 272.089 49.4618 272.089 49.4205Z" fill="#6BD0FD"/>
<path opacity="0.987" fill-rule="evenodd" clip-rule="evenodd" d="M288.442 49.5444C293.934 49.5444 299.425 49.5444 304.917 49.5444C304.605 56.5517 301.302 61.5683 295.007 64.5943C292.948 65.4601 290.801 65.8936 288.566 65.8949C288.605 65.4969 288.563 65.1253 288.442 64.7801C288.442 64.3259 288.442 63.8718 288.442 63.4175C288.442 58.7932 288.442 54.1688 288.442 49.5444Z" fill="#3291FE"/>
<path opacity="0.988" fill-rule="evenodd" clip-rule="evenodd" d="M288.44 64.78C288.561 65.1252 288.602 65.4968 288.563 65.8948C288.302 72.2633 285.453 77.0736 280.017 80.3253C278.128 81.3059 276.147 81.9458 274.071 82.2453C273.41 82.2453 272.75 82.2453 272.089 82.2453C272.089 76.7951 272.089 71.345 272.089 65.8948C272.089 65.8536 272.089 65.8122 272.089 65.771C277.539 65.771 282.989 65.771 288.44 65.771C288.44 65.4406 288.44 65.1104 288.44 64.78Z" fill="#4CB2FE"/>
</svg>
